<?xml version="1.0" standalone="no"?>
 <!DOCTYPE svg PUBLIC "-//W3C//DTD SVG 1.1//EN" 
 "http://www.w3.org/Graphics/SVG/1.1/DTD/svg11.dtd"> 
<svg
  xmlns:svg="http://www.w3.org/2000/svg"
  xmlns="http://www.w3.org/2000/svg"
  xmlns:xlink="http://www.w3.org/1999/xlink"
  version="1.1"
  width="297.0022mm" height="210.0072mm" viewBox="0.0000 0.0000 297.0022 210.0072">
<title>SVG Image created as Digispark USB-B_Cu.svg date 2025/11/07 15:51:31 </title>
  <desc>Image generated by PCBNEW </desc>
<g style="fill:#000000; fill-opacity:1.0000;stroke:#000000; stroke-opacity:1.0000;
stroke-linecap:round; stroke-linejoin:round;"
 transform="translate(0 0) scale(1 1)">
<path style="fill:#000000; fill-opacity:1.0000; stroke:none;fill-rule:evenodd;"
d="M 165.3904,89.4444
163.5904,89.4444
163.5904,87.6444
165.3904,87.6444
Z" /> 
</g>
<g style="fill:#000000; fill-opacity:1.0000; stroke:none;">
<circle cx="164.4904" cy="86.0044" r="0.9000" /> 
<path style="fill:#000000; fill-opacity:1.0000; stroke:none;fill-rule:evenodd;"
d="M 158.8144,77.7630
160.5144,77.7630
160.5144,79.4630
158.8144,79.4630
Z" /> 
</g>
<g style="fill:#000000; fill-opacity:1.0000; stroke:none;">
<circle cx="157.1244" cy="78.6130" r="0.8500" /> 
</g>
<g style="fill:#000000; fill-opacity:1.0000; stroke:none;">
<circle cx="154.5844" cy="78.6130" r="0.8500" /> 
</g>
<g style="fill:#000000; fill-opacity:1.0000; stroke:none;">
<circle cx="152.0444" cy="78.6130" r="0.8500" /> 
<path style="fill:#000000; fill-opacity:1.0000; stroke:none;fill-rule:evenodd;"
d="M 153.0722,88.9626
151.3722,88.9626
151.3722,87.2626
153.0722,87.2626
Z" /> 
</g>
<g style="fill:#000000; fill-opacity:1.0000; stroke:none;">
<circle cx="154.7622" cy="88.1126" r="0.8500" /> 
</g>
<g style="fill:#000000; fill-opacity:1.0000; stroke:none;">
<circle cx="157.3022" cy="88.1126" r="0.8500" /> 
</g>
<g style="fill:#000000; fill-opacity:1.0000; stroke:none;">
<circle cx="159.8422" cy="88.1126" r="0.8500" /> 
</g>
<g style="fill:#000000; fill-opacity:1.0000; stroke:none;">
<circle cx="143.5608" cy="82.0420" r="0.3000" /> 
</g>
<g style="fill:#000000; fill-opacity:1.0000; stroke:none;">
<circle cx="138.6078" cy="86.6394" r="0.3000" /> 
</g>
<g style="fill:#000000; fill-opacity:1.0000; stroke:none;">
<circle cx="155.6512" cy="83.8708" r="0.3000" /> 
</g>
<g style="fill:#000000; fill-opacity:1.0000; stroke:none;">
<circle cx="154.6764" cy="82.7024" r="0.3000" /> 
</g>
<g style="fill:#000000; fill-opacity:1.0000; stroke:none;">
<circle cx="154.0764" cy="81.8134" r="0.3000" /> 
</g>
<g style="fill:#000000; fill-opacity:1.0000; stroke:none;">
<circle cx="161.1884" cy="85.1408" r="0.3000" /> 
</g>
<g style="fill:#000000; fill-opacity:1.0000; stroke:none;">
<circle cx="157.8864" cy="83.5914" r="0.3000" /> 
</g>
<g style="fill:none; 
stroke:#000000; stroke-width:0.5000; stroke-opacity:1; 
stroke-linecap:round; stroke-linejoin:round;">
<path d="M158.6912 89.2636
L159.8422 88.1126
" />
<path d="M150.7824 89.2636
L158.6912 89.2636
" />
<path d="M143.5608 82.0420
L150.7824 89.2636
" />
</g>
<g style="fill:none; 
stroke:#000000; stroke-width:0.2000; stroke-opacity:1; 
stroke-linecap:round; stroke-linejoin:round;">
<path d="M146.1008 80.5434
L146.9136 79.7306
" />
<path d="M138.6078 86.6394
L138.6078 81.8896
" />
<path d="M146.9136 78.5622
L146.9644 78.6130
" />
<path d="M146.9644 78.6130
L152.0444 78.6130
" />
<path d="M138.6078 81.8896
L139.9540 80.5434
" />
<path d="M146.9136 79.7306
L146.9136 78.5622
" />
<path d="M139.9540 80.5434
L146.1008 80.5434
" />
<path d="M155.6512 86.4616
L157.3022 88.1126
" />
<path d="M155.6512 83.8708
L155.6512 86.4616
" />
<path d="M154.7622 82.8294
L154.7622 88.1126
" />
<path d="M154.6764 82.7024
L154.6764 82.7436
" />
<path d="M154.6764 82.7436
L154.7622 82.8294
" />
<path d="M153.5684 86.7664
L152.2222 88.1126
" />
<path d="M154.0764 86.3600
L153.6700 86.7664
" />
<path d="M153.6700 86.7664
L153.5684 86.7664
" />
<path d="M154.0764 81.8134
L154.0764 86.3600
" />
<path d="M161.3408 84.9884
L161.3408 81.4324
" />
<path d="M161.3408 81.4324
L159.6644 79.7560
" />
<path d="M159.6644 79.7560
L159.6644 78.6130
" />
<path d="M161.1884 85.1408
L161.3408 84.9884
" />
<path d="M157.8864 83.5914
L157.1244 82.8294
" />
<path d="M157.1244 82.8294
L157.1244 78.6130
" />
</g> 
</svg>
