<?xml version="1.0" standalone="no"?>
 <!DOCTYPE svg PUBLIC "-//W3C//DTD SVG 1.1//EN" 
 "http://www.w3.org/Graphics/SVG/1.1/DTD/svg11.dtd"> 
<svg
  xmlns:svg="http://www.w3.org/2000/svg"
  xmlns="http://www.w3.org/2000/svg"
  xmlns:xlink="http://www.w3.org/1999/xlink"
  version="1.1"
  width="297.0022mm" height="210.0072mm" viewBox="0.0000 0.0000 297.0022 210.0072">
<title>SVG Image created as Digispark USB-F_Silkscreen.svg date 2025/11/07 15:51:31 </title>
  <desc>Image generated by PCBNEW </desc>
<g style="fill:#000000; fill-opacity:1.0000;stroke:#000000; stroke-opacity:1.0000;
stroke-linecap:round; stroke-linejoin:round;"
 transform="translate(0 0) scale(1 1)">
</g>
<g style="fill:none; 
stroke:#000000; stroke-width:0.1500; stroke-opacity:1; 
stroke-linecap:round; stroke-linejoin:round;">
<text x="144.4752" y="78.0716"
textLength="2.2024" font-size="1.3333" lengthAdjust="spacingAndGlyphs"
text-anchor="middle" opacity="0" stroke-opacity="0">R4</text>
<g class="stroked-text"><desc>R4</desc>
<path d="M144.3085 78.0264
L143.9752 77.5502
" />
<path d="M143.7371 78.0264
L143.7371 77.0264
" />
<path d="M143.7371 77.0264
L144.1181 77.0264
" />
<path d="M144.1181 77.0264
L144.2133 77.0740
" />
<path d="M144.2133 77.0740
L144.2609 77.1217
" />
<path d="M144.2609 77.1217
L144.3085 77.2169
" />
<path d="M144.3085 77.2169
L144.3085 77.3598
" />
<path d="M144.3085 77.3598
L144.2609 77.4550
" />
<path d="M144.2609 77.4550
L144.2133 77.5026
" />
<path d="M144.2133 77.5026
L144.1181 77.5502
" />
<path d="M144.1181 77.5502
L143.7371 77.5502
" />
<path d="M145.1657 77.3598
L145.1657 78.0264
" />
<path d="M144.9276 76.9788
L144.6895 77.6931
" />
<path d="M144.6895 77.6931
L145.3085 77.6931
" />
</g><text x="163.4490" y="80.5872"
textLength="2.2024" font-size="1.3333" lengthAdjust="spacingAndGlyphs"
text-anchor="middle" opacity="0" stroke-opacity="0">R3</text>
<g class="stroked-text"><desc>R3</desc>
<path d="M163.2823 80.5420
L162.9490 80.0658
" />
<path d="M162.7109 80.5420
L162.7109 79.5420
" />
<path d="M162.7109 79.5420
L163.0919 79.5420
" />
<path d="M163.0919 79.5420
L163.1871 79.5896
" />
<path d="M163.1871 79.5896
L163.2347 79.6373
" />
<path d="M163.2347 79.6373
L163.2823 79.7325
" />
<path d="M163.2823 79.7325
L163.2823 79.8754
" />
<path d="M163.2823 79.8754
L163.2347 79.9706
" />
<path d="M163.2347 79.9706
L163.1871 80.0182
" />
<path d="M163.1871 80.0182
L163.0919 80.0658
" />
<path d="M163.0919 80.0658
L162.7109 80.0658
" />
<path d="M163.6157 79.5420
L164.2347 79.5420
" />
<path d="M164.2347 79.5420
L163.9014 79.9230
" />
<path d="M163.9014 79.9230
L164.0442 79.9230
" />
<path d="M164.0442 79.9230
L164.1395 79.9706
" />
<path d="M164.1395 79.9706
L164.1871 80.0182
" />
<path d="M164.1871 80.0182
L164.2347 80.1134
" />
<path d="M164.2347 80.1134
L164.2347 80.3515
" />
<path d="M164.2347 80.3515
L164.1871 80.4468
" />
<path d="M164.1871 80.4468
L164.1395 80.4944
" />
<path d="M164.1395 80.4944
L164.0442 80.5420
" />
<path d="M164.0442 80.5420
L163.7585 80.5420
" />
<path d="M163.7585 80.5420
L163.6633 80.4944
" />
<path d="M163.6633 80.4944
L163.6157 80.4468
" />
</g><g transform="rotate(-90.000000 161.5304 87.2744)">
<text x="161.5304" y="87.7744"
textLength="2.2024" font-size="1.3333" lengthAdjust="spacingAndGlyphs"
text-anchor="middle" opacity="0" stroke-opacity="0">D3</text>
</g>
<g class="stroked-text"><desc>D3</desc>
<path d="M161.9852 88.0125
L160.9852 88.0125
" />
<path d="M160.9852 88.0125
L160.9852 87.7744
" />
<path d="M160.9852 87.7744
L161.0328 87.6315
" />
<path d="M161.0328 87.6315
L161.1281 87.5363
" />
<path d="M161.1281 87.5363
L161.2233 87.4887
" />
<path d="M161.2233 87.4887
L161.4138 87.4411
" />
<path d="M161.4138 87.4411
L161.5566 87.4411
" />
<path d="M161.5566 87.4411
L161.7471 87.4887
" />
<path d="M161.7471 87.4887
L161.8424 87.5363
" />
<path d="M161.8424 87.5363
L161.9376 87.6315
" />
<path d="M161.9376 87.6315
L161.9852 87.7744
" />
<path d="M161.9852 87.7744
L161.9852 88.0125
" />
<path d="M160.9852 87.1077
L160.9852 86.4887
" />
<path d="M160.9852 86.4887
L161.3662 86.8220
" />
<path d="M161.3662 86.8220
L161.3662 86.6792
" />
<path d="M161.3662 86.6792
L161.4138 86.5839
" />
<path d="M161.4138 86.5839
L161.4614 86.5363
" />
<path d="M161.4614 86.5363
L161.5566 86.4887
" />
<path d="M161.5566 86.4887
L161.7947 86.4887
" />
<path d="M161.7947 86.4887
L161.8900 86.5363
" />
<path d="M161.8900 86.5363
L161.9376 86.5839
" />
<path d="M161.9376 86.5839
L161.9852 86.6792
" />
<path d="M161.9852 86.6792
L161.9852 86.9649
" />
<path d="M161.9852 86.9649
L161.9376 87.0601
" />
<path d="M161.9376 87.0601
L161.8900 87.1077
" />
</g><text x="139.6492" y="78.1224"
textLength="2.2024" font-size="1.3333" lengthAdjust="spacingAndGlyphs"
text-anchor="middle" opacity="0" stroke-opacity="0">C1</text>
<g class="stroked-text"><desc>C1</desc>
<path d="M139.4825 77.9820
L139.4349 78.0296
" />
<path d="M139.4349 78.0296
L139.2921 78.0772
" />
<path d="M139.2921 78.0772
L139.1968 78.0772
" />
<path d="M139.1968 78.0772
L139.0540 78.0296
" />
<path d="M139.0540 78.0296
L138.9587 77.9344
" />
<path d="M138.9587 77.9344
L138.9111 77.8391
" />
<path d="M138.9111 77.8391
L138.8635 77.6486
" />
<path d="M138.8635 77.6486
L138.8635 77.5058
" />
<path d="M138.8635 77.5058
L138.9111 77.3153
" />
<path d="M138.9111 77.3153
L138.9587 77.2201
" />
<path d="M138.9587 77.2201
L139.0540 77.1248
" />
<path d="M139.0540 77.1248
L139.1968 77.0772
" />
<path d="M139.1968 77.0772
L139.2921 77.0772
" />
<path d="M139.2921 77.0772
L139.4349 77.1248
" />
<path d="M139.4349 77.1248
L139.4825 77.1725
" />
<path d="M140.4349 78.0772
L139.8635 78.0772
" />
<path d="M140.1492 78.0772
L140.1492 77.0772
" />
<path d="M140.1492 77.0772
L140.0540 77.2201
" />
<path d="M140.0540 77.2201
L139.9587 77.3153
" />
<path d="M139.9587 77.3153
L139.8635 77.3629
" />
</g><text x="161.7726" y="84.4470"
textLength="2.2500" font-size="1.3333" lengthAdjust="spacingAndGlyphs"
text-anchor="middle" opacity="0" stroke-opacity="0">U2</text>
<g class="stroked-text"><desc>U2</desc>
<path d="M161.0107 83.4018
L161.0107 84.2113
" />
<path d="M161.0107 84.2113
L161.0583 84.3066
" />
<path d="M161.0583 84.3066
L161.1059 84.3542
" />
<path d="M161.1059 84.3542
L161.2012 84.4018
" />
<path d="M161.2012 84.4018
L161.3916 84.4018
" />
<path d="M161.3916 84.4018
L161.4869 84.3542
" />
<path d="M161.4869 84.3542
L161.5345 84.3066
" />
<path d="M161.5345 84.3066
L161.5821 84.2113
" />
<path d="M161.5821 84.2113
L161.5821 83.4018
" />
<path d="M162.0107 83.4971
L162.0583 83.4494
" />
<path d="M162.0583 83.4494
L162.1536 83.4018
" />
<path d="M162.1536 83.4018
L162.3916 83.4018
" />
<path d="M162.3916 83.4018
L162.4869 83.4494
" />
<path d="M162.4869 83.4494
L162.5345 83.4971
" />
<path d="M162.5345 83.4971
L162.5821 83.5923
" />
<path d="M162.5821 83.5923
L162.5821 83.6875
" />
<path d="M162.5821 83.6875
L162.5345 83.8304
" />
<path d="M162.5345 83.8304
L161.9631 84.4018
" />
<path d="M161.9631 84.4018
L162.5821 84.4018
" />
</g></g>
<g style="fill:none; 
stroke:#000000; stroke-width:0.1000; stroke-opacity:1; 
stroke-linecap:round; stroke-linejoin:round;">
<text x="135.8138" y="78.1986"
textLength="2.1000" font-size="1.3333" lengthAdjust="spacingAndGlyphs"
text-anchor="middle" opacity="0" stroke-opacity="0">U1</text>
<g class="stroked-text"><desc>U1</desc>
<path d="M135.0519 77.1560
L135.0519 77.9655
" />
<path d="M135.0519 77.9655
L135.0995 78.0608
" />
<path d="M135.0995 78.0608
L135.1471 78.1084
" />
<path d="M135.1471 78.1084
L135.2424 78.1560
" />
<path d="M135.2424 78.1560
L135.4328 78.1560
" />
<path d="M135.4328 78.1560
L135.5281 78.1084
" />
<path d="M135.5281 78.1084
L135.5757 78.0608
" />
<path d="M135.5757 78.0608
L135.6233 77.9655
" />
<path d="M135.6233 77.9655
L135.6233 77.1560
" />
<path d="M136.6233 78.1560
L136.0519 78.1560
" />
<path d="M136.3376 78.1560
L136.3376 77.1560
" />
<path d="M136.3376 77.1560
L136.2424 77.2989
" />
<path d="M136.2424 77.2989
L136.1471 77.3941
" />
<path d="M136.1471 77.3941
L136.0519 77.4417
" />
</g><text x="137.0330" y="88.1634"
textLength="3.1000" font-size="1.3333" lengthAdjust="spacingAndGlyphs"
text-anchor="start" opacity="0" stroke-opacity="0">USB</text>
<g class="stroked-text"><desc>USB</desc>
<path d="M137.3369 87.0358
L137.3369 87.8453
" />
<path d="M137.3369 87.8453
L137.3845 87.9406
" />
<path d="M137.3845 87.9406
L137.4321 87.9882
" />
<path d="M137.4321 87.9882
L137.5274 88.0358
" />
<path d="M137.5274 88.0358
L137.7178 88.0358
" />
<path d="M137.7178 88.0358
L137.8131 87.9882
" />
<path d="M137.8131 87.9882
L137.8607 87.9406
" />
<path d="M137.8607 87.9406
L137.9083 87.8453
" />
<path d="M137.9083 87.8453
L137.9083 87.0358
" />
<path d="M138.3369 87.9882
L138.4797 88.0358
" />
<path d="M138.4797 88.0358
L138.7178 88.0358
" />
<path d="M138.7178 88.0358
L138.8131 87.9882
" />
<path d="M138.8131 87.9882
L138.8607 87.9406
" />
<path d="M138.8607 87.9406
L138.9083 87.8453
" />
<path d="M138.9083 87.8453
L138.9083 87.7501
" />
<path d="M138.9083 87.7501
L138.8607 87.6549
" />
<path d="M138.8607 87.6549
L138.8131 87.6072
" />
<path d="M138.8131 87.6072
L138.7178 87.5596
" />
<path d="M138.7178 87.5596
L138.5274 87.5120
" />
<path d="M138.5274 87.5120
L138.4321 87.4644
" />
<path d="M138.4321 87.4644
L138.3845 87.4168
" />
<path d="M138.3845 87.4168
L138.3369 87.3215
" />
<path d="M138.3369 87.3215
L138.3369 87.2263
" />
<path d="M138.3369 87.2263
L138.3845 87.1311
" />
<path d="M138.3845 87.1311
L138.4321 87.0834
" />
<path d="M138.4321 87.0834
L138.5274 87.0358
" />
<path d="M138.5274 87.0358
L138.7655 87.0358
" />
<path d="M138.7655 87.0358
L138.9083 87.0834
" />
<path d="M139.6702 87.5120
L139.8131 87.5596
" />
<path d="M139.8131 87.5596
L139.8607 87.6072
" />
<path d="M139.8607 87.6072
L139.9083 87.7025
" />
<path d="M139.9083 87.7025
L139.9083 87.8453
" />
<path d="M139.9083 87.8453
L139.8607 87.9406
" />
<path d="M139.8607 87.9406
L139.8131 87.9882
" />
<path d="M139.8131 87.9882
L139.7178 88.0358
" />
<path d="M139.7178 88.0358
L139.3369 88.0358
" />
<path d="M139.3369 88.0358
L139.3369 87.0358
" />
<path d="M139.3369 87.0358
L139.6702 87.0358
" />
<path d="M139.6702 87.0358
L139.7655 87.0834
" />
<path d="M139.7655 87.0834
L139.8131 87.1311
" />
<path d="M139.8131 87.1311
L139.8607 87.2263
" />
<path d="M139.8607 87.2263
L139.8607 87.3215
" />
<path d="M139.8607 87.3215
L139.8131 87.4168
" />
<path d="M139.8131 87.4168
L139.7655 87.4644
" />
<path d="M139.7655 87.4644
L139.6702 87.5120
" />
<path d="M139.6702 87.5120
L139.3369 87.5120
" />
</g></g>
<g style="fill:none; 
stroke:#000000; stroke-width:0.1500; stroke-opacity:1; 
stroke-linecap:round; stroke-linejoin:round;">
<g transform="rotate(-90.000000 162.0444 78.6130)">
<text x="162.0444" y="79.1130"
textLength="1.9643" font-size="1.3333" lengthAdjust="spacingAndGlyphs"
text-anchor="middle" opacity="0" stroke-opacity="0">J2</text>
</g>
<g class="stroked-text"><desc>J2</desc>
<path d="M161.4992 78.9463
L162.2135 78.9463
" />
<path d="M162.2135 78.9463
L162.3564 78.9940
" />
<path d="M162.3564 78.9940
L162.4516 79.0892
" />
<path d="M162.4516 79.0892
L162.4992 79.2320
" />
<path d="M162.4992 79.2320
L162.4992 79.3273
" />
<path d="M161.5945 78.5178
L161.5468 78.4701
" />
<path d="M161.5468 78.4701
L161.4992 78.3749
" />
<path d="M161.4992 78.3749
L161.4992 78.1368
" />
<path d="M161.4992 78.1368
L161.5468 78.0416
" />
<path d="M161.5468 78.0416
L161.5945 77.9940
" />
<path d="M161.5945 77.9940
L161.6897 77.9463
" />
<path d="M161.6897 77.9463
L161.7849 77.9463
" />
<path d="M161.7849 77.9463
L161.9278 77.9940
" />
<path d="M161.9278 77.9940
L162.4992 78.5654
" />
<path d="M162.4992 78.5654
L162.4992 77.9463
" />
</g><g transform="rotate(-90.000000 149.8422 88.1126)">
<text x="149.8422" y="88.6126"
textLength="1.9643" font-size="1.3333" lengthAdjust="spacingAndGlyphs"
text-anchor="middle" opacity="0" stroke-opacity="0">J1</text>
</g>
<g class="stroked-text"><desc>J1</desc>
<path d="M149.2970 88.4459
L150.0113 88.4459
" />
<path d="M150.0113 88.4459
L150.1542 88.4936
" />
<path d="M150.1542 88.4936
L150.2494 88.5888
" />
<path d="M150.2494 88.5888
L150.2970 88.7316
" />
<path d="M150.2970 88.7316
L150.2970 88.8269
" />
<path d="M150.2970 87.4459
L150.2970 88.0174
" />
<path d="M150.2970 87.7316
L149.2970 87.7316
" />
<path d="M149.2970 87.7316
L149.4399 87.8269
" />
<path d="M149.4399 87.8269
L149.5351 87.9221
" />
<path d="M149.5351 87.9221
L149.5827 88.0174
" />
</g><text x="143.1036" y="89.7302"
textLength="2.2024" font-size="1.3333" lengthAdjust="spacingAndGlyphs"
text-anchor="middle" opacity="0" stroke-opacity="0">D1</text>
<g class="stroked-text"><desc>D1</desc>
<path d="M142.3655 89.6850
L142.3655 88.6850
" />
<path d="M142.3655 88.6850
L142.6036 88.6850
" />
<path d="M142.6036 88.6850
L142.7465 88.7326
" />
<path d="M142.7465 88.7326
L142.8417 88.8279
" />
<path d="M142.8417 88.8279
L142.8893 88.9231
" />
<path d="M142.8893 88.9231
L142.9369 89.1136
" />
<path d="M142.9369 89.1136
L142.9369 89.2564
" />
<path d="M142.9369 89.2564
L142.8893 89.4469
" />
<path d="M142.8893 89.4469
L142.8417 89.5422
" />
<path d="M142.8417 89.5422
L142.7465 89.6374
" />
<path d="M142.7465 89.6374
L142.6036 89.6850
" />
<path d="M142.6036 89.6850
L142.3655 89.6850
" />
<path d="M143.8893 89.6850
L143.3179 89.6850
" />
<path d="M143.6036 89.6850
L143.6036 88.6850
" />
<path d="M143.6036 88.6850
L143.5084 88.8279
" />
<path d="M143.5084 88.8279
L143.4131 88.9231
" />
<path d="M143.4131 88.9231
L143.3179 88.9707
" />
</g><text x="145.8214" y="89.0952"
textLength="2.2024" font-size="1.3333" lengthAdjust="spacingAndGlyphs"
text-anchor="middle" opacity="0" stroke-opacity="0">D2</text>
<g class="stroked-text"><desc>D2</desc>
<path d="M145.0833 89.0500
L145.0833 88.0500
" />
<path d="M145.0833 88.0500
L145.3214 88.0500
" />
<path d="M145.3214 88.0500
L145.4643 88.0976
" />
<path d="M145.4643 88.0976
L145.5595 88.1929
" />
<path d="M145.5595 88.1929
L145.6071 88.2881
" />
<path d="M145.6071 88.2881
L145.6547 88.4786
" />
<path d="M145.6547 88.4786
L145.6547 88.6214
" />
<path d="M145.6547 88.6214
L145.6071 88.8119
" />
<path d="M145.6071 88.8119
L145.5595 88.9072
" />
<path d="M145.5595 88.9072
L145.4643 89.0024
" />
<path d="M145.4643 89.0024
L145.3214 89.0500
" />
<path d="M145.3214 89.0500
L145.0833 89.0500
" />
<path d="M146.0357 88.1453
L146.0833 88.0976
" />
<path d="M146.0833 88.0976
L146.1785 88.0500
" />
<path d="M146.1785 88.0500
L146.4166 88.0500
" />
<path d="M146.4166 88.0500
L146.5119 88.0976
" />
<path d="M146.5119 88.0976
L146.5595 88.1453
" />
<path d="M146.5595 88.1453
L146.6071 88.2405
" />
<path d="M146.6071 88.2405
L146.6071 88.3357
" />
<path d="M146.6071 88.3357
L146.5595 88.4786
" />
<path d="M146.5595 88.4786
L145.9881 89.0500
" />
<path d="M145.9881 89.0500
L146.6071 89.0500
" />
</g><text x="148.5712" y="83.6850"
textLength="2.2024" font-size="1.3333" lengthAdjust="spacingAndGlyphs"
text-anchor="middle" opacity="0" stroke-opacity="0">R2</text>
<g class="stroked-text"><desc>R2</desc>
<path d="M148.4045 83.6398
L148.0712 83.1636
" />
<path d="M147.8331 83.6398
L147.8331 82.6398
" />
<path d="M147.8331 82.6398
L148.2141 82.6398
" />
<path d="M148.2141 82.6398
L148.3093 82.6874
" />
<path d="M148.3093 82.6874
L148.3569 82.7351
" />
<path d="M148.3569 82.7351
L148.4045 82.8303
" />
<path d="M148.4045 82.8303
L148.4045 82.9732
" />
<path d="M148.4045 82.9732
L148.3569 83.0684
" />
<path d="M148.3569 83.0684
L148.3093 83.1160
" />
<path d="M148.3093 83.1160
L148.2141 83.1636
" />
<path d="M148.2141 83.1636
L147.8331 83.1636
" />
<path d="M148.7855 82.7351
L148.8331 82.6874
" />
<path d="M148.8331 82.6874
L148.9283 82.6398
" />
<path d="M148.9283 82.6398
L149.1664 82.6398
" />
<path d="M149.1664 82.6398
L149.2617 82.6874
" />
<path d="M149.2617 82.6874
L149.3093 82.7351
" />
<path d="M149.3093 82.7351
L149.3569 82.8303
" />
<path d="M149.3569 82.8303
L149.3569 82.9255
" />
<path d="M149.3569 82.9255
L149.3093 83.0684
" />
<path d="M149.3093 83.0684
L148.7379 83.6398
" />
<path d="M148.7379 83.6398
L149.3569 83.6398
" />
</g><text x="148.4028" y="80.2062"
textLength="2.2024" font-size="1.3333" lengthAdjust="spacingAndGlyphs"
text-anchor="middle" opacity="0" stroke-opacity="0">R1</text>
<g class="stroked-text"><desc>R1</desc>
<path d="M148.2361 80.1610
L147.9028 79.6848
" />
<path d="M147.6647 80.1610
L147.6647 79.1610
" />
<path d="M147.6647 79.1610
L148.0457 79.1610
" />
<path d="M148.0457 79.1610
L148.1409 79.2086
" />
<path d="M148.1409 79.2086
L148.1885 79.2563
" />
<path d="M148.1885 79.2563
L148.2361 79.3515
" />
<path d="M148.2361 79.3515
L148.2361 79.4944
" />
<path d="M148.2361 79.4944
L148.1885 79.5896
" />
<path d="M148.1885 79.5896
L148.1409 79.6372
" />
<path d="M148.1409 79.6372
L148.0457 79.6848
" />
<path d="M148.0457 79.6848
L147.6647 79.6848
" />
<path d="M149.1885 80.1610
L148.6171 80.1610
" />
<path d="M148.9028 80.1610
L148.9028 79.1610
" />
<path d="M148.9028 79.1610
L148.8076 79.3039
" />
<path d="M148.8076 79.3039
L148.7123 79.3991
" />
<path d="M148.7123 79.3991
L148.6171 79.4467
" />
</g></g>
<g style="fill:none; 
stroke:#000000; stroke-width:0.1200; stroke-opacity:1; 
stroke-linecap:round; stroke-linejoin:round;">
<path d="M144.3498 80.1987
L144.3498 80.6529
" />
<path d="M145.8198 80.1987
L145.8198 80.6529
" />
<path d="M163.2219 81.0022
L163.6761 81.0022
" />
<path d="M163.2219 82.4722
L163.6761 82.4722
" />
<path d="M163.2544 88.8344
L163.4104 88.8344
" />
<path d="M165.5704 88.8344
L165.7264 88.8344
" />
<path d="M163.4104 85.6030 A1.9900 1.9900 0.0 0 0 163.2549 88.8344" />
<path d="M163.4104 86.2334 A1.5000 1.5000 0.0 0 0 163.4104 88.3154" />
<path d="M165.7259 88.8344 A1.9900 1.9900 0.0 0 0 165.5704 85.6030" />
<path d="M165.5704 88.3154 A1.5000 1.5000 0.0 0 0 165.5704 86.2334" />
<path d="M141.0506 79.7428
L141.0506 81.1654
" />
<path d="M142.8706 79.7428
L142.8706 81.1654
" />
<path d="M153.2468 80.5774
L153.2468 80.8474
" />
<path d="M153.2468 86.0974
L153.2468 85.8274
" />
<path d="M156.0068 80.5774
L153.2468 80.5774
" />
<path d="M156.0068 80.5774
L158.7668 80.5774
" />
<path d="M156.0068 86.0974
L153.2468 86.0974
" />
<path d="M156.0068 86.0974
L158.7668 86.0974
" />
<path d="M158.7668 80.5774
L158.7668 80.8474
" />
<path d="M158.7668 86.0974
L158.7668 85.8274
" />
<path style="fill:#000000; fill-opacity:1.0000; 
stroke:#000000; stroke-width:0.1200; stroke-opacity:1; 
stroke-linecap:round; stroke-linejoin:round;fill-rule:evenodd;"
d="M 152.4818,80.8474
152.2418,80.5174
152.7218,80.5174
Z" /> 
</g>
<g style="fill:none; 
stroke:#000000; stroke-width:0.1200; stroke-opacity:1; 
stroke-linecap:round; stroke-linejoin:round;">
<path d="M150.6644 77.2330
L150.6644 79.9930
" />
<path d="M158.3944 77.2330
L150.6644 77.2330
" />
<path d="M158.3944 77.2330
L158.3944 79.9930
" />
<path d="M158.3944 79.9930
L150.6644 79.9930
" />
<path d="M159.6644 77.2330
L161.0444 77.2330
" />
<path d="M161.0444 77.2330
L161.0444 78.6130
" />
<path d="M150.8422 89.4926
L150.8422 88.1126
" />
<path d="M152.2222 89.4926
L150.8422 89.4926
" />
<path d="M153.4922 86.7326
L161.2222 86.7326
" />
<path d="M153.4922 89.4926
L153.4922 86.7326
" />
<path d="M153.4922 89.4926
L161.2222 89.4926
" />
<path d="M161.2222 89.4926
L161.2222 86.7326
" />
<path d="M140.8336 83.6454
L140.8336 87.6554
" />
<path d="M142.8336 83.6454
L140.8336 83.6454
" />
<path d="M142.8336 83.6454
L142.8336 87.6554
" />
<path d="M143.9324 82.8326
L143.9324 86.8426
" />
<path d="M145.9324 82.8326
L143.9324 82.8326
" />
<path d="M145.9324 82.8326
L145.9324 86.8426
" />
<path d="M148.4043 84.2026
L148.8585 84.2026
" />
<path d="M148.4043 85.6726
L148.8585 85.6726
" />
<path d="M148.1757 80.6212
L148.6299 80.6212
" />
<path d="M148.1757 82.0912
L148.6299 82.0912
" />
</g> 
</svg>
