<?xml version="1.0" standalone="no"?>
 <!DOCTYPE svg PUBLIC "-//W3C//DTD SVG 1.1//EN" 
 "http://www.w3.org/Graphics/SVG/1.1/DTD/svg11.dtd"> 
<svg
  xmlns:svg="http://www.w3.org/2000/svg"
  xmlns="http://www.w3.org/2000/svg"
  xmlns:xlink="http://www.w3.org/1999/xlink"
  version="1.1"
  width="297.0022mm" height="210.0072mm" viewBox="0.0000 0.0000 297.0022 210.0072">
<title>SVG Image created as Digispark USB-F_Paste.svg date 2025/11/07 15:51:31 </title>
  <desc>Image generated by PCBNEW </desc>
<g style="fill:#000000; fill-opacity:1.0000;stroke:#000000; stroke-opacity:1.0000;
stroke-linecap:round; stroke-linejoin:round;"
 transform="translate(0 0) scale(1 1)">
<path style="fill:#000000; fill-opacity:1.0000; stroke:none;fill-rule:evenodd;"
d="M 145.5348,78.8258
145.6305,78.8448
145.7116,78.8990
145.7658,78.9801
145.7848,79.0758
145.7848,79.7758
145.7658,79.8715
145.7116,79.9526
145.6305,80.0068
145.5348,80.0258
144.6348,80.0258
144.5391,80.0068
144.4580,79.9526
144.4038,79.8715
144.3848,79.7758
144.3848,79.0758
144.4038,78.9801
144.4580,78.8990
144.5391,78.8448
144.6348,78.8258
Z" /> 
<path style="fill:#000000; fill-opacity:1.0000; stroke:none;fill-rule:evenodd;"
d="M 145.5348,80.8258
145.6305,80.8448
145.7116,80.8990
145.7658,80.9801
145.7848,81.0758
145.7848,81.7758
145.7658,81.8715
145.7116,81.9526
145.6305,82.0068
145.5348,82.0258
144.6348,82.0258
144.5391,82.0068
144.4580,81.9526
144.4038,81.8715
144.3848,81.7758
144.3848,81.0758
144.4038,80.9801
144.4580,80.8990
144.5391,80.8448
144.6348,80.8258
Z" /> 
<path style="fill:#000000; fill-opacity:1.0000; stroke:none;fill-rule:evenodd;"
d="M 161.8490,81.2872
161.8680,81.1915
161.9222,81.1104
162.0033,81.0562
162.0990,81.0372
162.7990,81.0372
162.8947,81.0562
162.9758,81.1104
163.0300,81.1915
163.0490,81.2872
163.0490,82.1872
163.0300,82.2829
162.9758,82.3640
162.8947,82.4182
162.7990,82.4372
162.0990,82.4372
162.0033,82.4182
161.9222,82.3640
161.8680,82.2829
161.8490,82.1872
Z" /> 
<path style="fill:#000000; fill-opacity:1.0000; stroke:none;fill-rule:evenodd;"
d="M 163.8490,81.2872
163.8680,81.1915
163.9222,81.1104
164.0033,81.0562
164.0990,81.0372
164.7990,81.0372
164.8947,81.0562
164.9758,81.1104
165.0300,81.1915
165.0490,81.2872
165.0490,82.1872
165.0300,82.2829
164.9758,82.3640
164.8947,82.4182
164.7990,82.4372
164.0990,82.4372
164.0033,82.4182
163.9222,82.3640
163.8680,82.2829
163.8490,82.1872
Z" /> 
<path style="fill:#000000; fill-opacity:1.0000; stroke:none;fill-rule:evenodd;"
d="M 142.6106,78.2291
142.7063,78.2481
142.7874,78.3023
142.8416,78.3834
142.8606,78.4791
142.8606,79.3041
142.8416,79.3998
142.7874,79.4809
142.7063,79.5351
142.6106,79.5541
141.3106,79.5541
141.2149,79.5351
141.1338,79.4809
141.0796,79.3998
141.0606,79.3041
141.0606,78.4791
141.0796,78.3834
141.1338,78.3023
141.2149,78.2481
141.3106,78.2291
Z" /> 
<path style="fill:#000000; fill-opacity:1.0000; stroke:none;fill-rule:evenodd;"
d="M 142.6106,81.3541
142.7063,81.3731
142.7874,81.4273
142.8416,81.5084
142.8606,81.6041
142.8606,82.4291
142.8416,82.5248
142.7874,82.6059
142.7063,82.6601
142.6106,82.6791
141.3106,82.6791
141.2149,82.6601
141.1338,82.6059
141.0796,82.5248
141.0606,82.4291
141.0606,81.6041
141.0796,81.5084
141.1338,81.4273
141.2149,81.3731
141.3106,81.3541
Z" /> 
<path style="fill:#000000; fill-opacity:1.0000; stroke:none;fill-rule:evenodd;"
d="M 151.6068,81.2699
151.6192,81.2077
151.6544,81.1550
151.7071,81.1198
151.7693,81.1074
153.0693,81.1074
153.1315,81.1198
153.1842,81.1550
153.2194,81.2077
153.2318,81.2699
153.2318,81.5949
153.2194,81.6571
153.1842,81.7098
153.1315,81.7450
153.0693,81.7574
151.7693,81.7574
151.7071,81.7450
151.6544,81.7098
151.6192,81.6571
151.6068,81.5949
Z" /> 
<path style="fill:#000000; fill-opacity:1.0000; stroke:none;fill-rule:evenodd;"
d="M 151.6068,82.5399
151.6192,82.4777
151.6544,82.4250
151.7071,82.3898
151.7693,82.3774
153.0693,82.3774
153.1315,82.3898
153.1842,82.4250
153.2194,82.4777
153.2318,82.5399
153.2318,82.8649
153.2194,82.9271
153.1842,82.9798
153.1315,83.0150
153.0693,83.0274
151.7693,83.0274
151.7071,83.0150
151.6544,82.9798
151.6192,82.9271
151.6068,82.8649
Z" /> 
<path style="fill:#000000; fill-opacity:1.0000; stroke:none;fill-rule:evenodd;"
d="M 151.6068,83.8099
151.6192,83.7477
151.6544,83.6950
151.7071,83.6598
151.7693,83.6474
153.0693,83.6474
153.1315,83.6598
153.1842,83.6950
153.2194,83.7477
153.2318,83.8099
153.2318,84.1349
153.2194,84.1971
153.1842,84.2498
153.1315,84.2850
153.0693,84.2974
151.7693,84.2974
151.7071,84.2850
151.6544,84.2498
151.6192,84.1971
151.6068,84.1349
Z" /> 
<path style="fill:#000000; fill-opacity:1.0000; stroke:none;fill-rule:evenodd;"
d="M 151.6068,85.0799
151.6192,85.0177
151.6544,84.9650
151.7071,84.9298
151.7693,84.9174
153.0693,84.9174
153.1315,84.9298
153.1842,84.9650
153.2194,85.0177
153.2318,85.0799
153.2318,85.4049
153.2194,85.4671
153.1842,85.5198
153.1315,85.5550
153.0693,85.5674
151.7693,85.5674
151.7071,85.5550
151.6544,85.5198
151.6192,85.4671
151.6068,85.4049
Z" /> 
<path style="fill:#000000; fill-opacity:1.0000; stroke:none;fill-rule:evenodd;"
d="M 158.7818,85.0799
158.7942,85.0177
158.8294,84.9650
158.8821,84.9298
158.9443,84.9174
160.2443,84.9174
160.3065,84.9298
160.3592,84.9650
160.3944,85.0177
160.4068,85.0799
160.4068,85.4049
160.3944,85.4671
160.3592,85.5198
160.3065,85.5550
160.2443,85.5674
158.9443,85.5674
158.8821,85.5550
158.8294,85.5198
158.7942,85.4671
158.7818,85.4049
Z" /> 
<path style="fill:#000000; fill-opacity:1.0000; stroke:none;fill-rule:evenodd;"
d="M 158.7818,83.8099
158.7942,83.7477
158.8294,83.6950
158.8821,83.6598
158.9443,83.6474
160.2443,83.6474
160.3065,83.6598
160.3592,83.6950
160.3944,83.7477
160.4068,83.8099
160.4068,84.1349
160.3944,84.1971
160.3592,84.2498
160.3065,84.2850
160.2443,84.2974
158.9443,84.2974
158.8821,84.2850
158.8294,84.2498
158.7942,84.1971
158.7818,84.1349
Z" /> 
<path style="fill:#000000; fill-opacity:1.0000; stroke:none;fill-rule:evenodd;"
d="M 158.7818,82.5399
158.7942,82.4777
158.8294,82.4250
158.8821,82.3898
158.9443,82.3774
160.2443,82.3774
160.3065,82.3898
160.3592,82.4250
160.3944,82.4777
160.4068,82.5399
160.4068,82.8649
160.3944,82.9271
160.3592,82.9798
160.3065,83.0150
160.2443,83.0274
158.9443,83.0274
158.8821,83.0150
158.8294,82.9798
158.7942,82.9271
158.7818,82.8649
Z" /> 
<path style="fill:#000000; fill-opacity:1.0000; stroke:none;fill-rule:evenodd;"
d="M 158.7818,81.2699
158.7942,81.2077
158.8294,81.1550
158.8821,81.1198
158.9443,81.1074
160.2443,81.1074
160.3065,81.1198
160.3592,81.1550
160.3944,81.2077
160.4068,81.2699
160.4068,81.5949
160.3944,81.6571
160.3592,81.7098
160.3065,81.7450
160.2443,81.7574
158.9443,81.7574
158.8821,81.7450
158.8294,81.7098
158.7942,81.6571
158.7818,81.5949
Z" /> 
<path style="fill:#000000; fill-opacity:1.0000; stroke:none;fill-rule:evenodd;"
d="M 134.6209,87.9652
134.6129,88.0339
134.5684,88.1347
134.4904,88.2127
134.3896,88.2572
134.3209,88.2652
127.9209,88.2652
127.8522,88.2572
127.7514,88.2127
127.6734,88.1347
127.6289,88.0339
127.6209,87.9652
127.6209,86.5652
127.6289,86.4965
127.6734,86.3957
127.7514,86.3177
127.8522,86.2732
127.9209,86.2652
134.3209,86.2652
134.3896,86.2732
134.4904,86.3177
134.5684,86.3957
134.6129,86.4965
134.6209,86.5652
Z" /> 
<path style="fill:#000000; fill-opacity:1.0000; stroke:none;fill-rule:evenodd;"
d="M 134.1209,85.0402
134.1038,85.1263
134.0550,85.1993
133.9820,85.2481
133.8959,85.2652
128.3459,85.2652
128.2598,85.2481
128.1868,85.1993
128.1380,85.1263
128.1209,85.0402
128.1209,83.9902
128.1380,83.9041
128.1868,83.8311
128.2598,83.7823
128.3459,83.7652
133.8959,83.7652
133.9820,83.7823
134.0550,83.8311
134.1038,83.9041
134.1209,83.9902
Z" /> 
<path style="fill:#000000; fill-opacity:1.0000; stroke:none;fill-rule:evenodd;"
d="M 134.1209,83.0402
134.1038,83.1263
134.0550,83.1993
133.9820,83.2481
133.8959,83.2652
128.3459,83.2652
128.2598,83.2481
128.1868,83.1993
128.1380,83.1263
128.1209,83.0402
128.1209,81.9902
128.1380,81.9041
128.1868,81.8311
128.2598,81.7823
128.3459,81.7652
133.8959,81.7652
133.9820,81.7823
134.0550,81.8311
134.1038,81.9041
134.1209,81.9902
Z" /> 
<path style="fill:#000000; fill-opacity:1.0000; stroke:none;fill-rule:evenodd;"
d="M 134.6209,80.4652
134.6129,80.5339
134.5684,80.6347
134.4904,80.7127
134.3896,80.7572
134.3209,80.7652
127.9209,80.7652
127.8522,80.7572
127.7514,80.7127
127.6734,80.6347
127.6289,80.5339
127.6209,80.4652
127.6209,79.0652
127.6289,78.9965
127.6734,78.8957
127.7514,78.8177
127.8522,78.7732
127.9209,78.7652
134.3209,78.7652
134.3896,78.7732
134.4904,78.8177
134.5684,78.8957
134.6129,78.9965
134.6209,79.0652
Z" /> 
<path style="fill:#000000; fill-opacity:1.0000; stroke:none;fill-rule:evenodd;"
d="M 142.2086,83.9054
142.2947,83.9225
142.3677,83.9713
142.4165,84.0443
142.4336,84.1304
142.4336,84.5804
142.4165,84.6665
142.3677,84.7395
142.2947,84.7883
142.2086,84.8054
141.4586,84.8054
141.3725,84.7883
141.2995,84.7395
141.2507,84.6665
141.2336,84.5804
141.2336,84.1304
141.2507,84.0443
141.2995,83.9713
141.3725,83.9225
141.4586,83.9054
Z" /> 
<path style="fill:#000000; fill-opacity:1.0000; stroke:none;fill-rule:evenodd;"
d="M 142.2086,87.2054
142.2947,87.2225
142.3677,87.2713
142.4165,87.3443
142.4336,87.4304
142.4336,87.8804
142.4165,87.9665
142.3677,88.0395
142.2947,88.0883
142.2086,88.1054
141.4586,88.1054
141.3725,88.0883
141.2995,88.0395
141.2507,87.9665
141.2336,87.8804
141.2336,87.4304
141.2507,87.3443
141.2995,87.2713
141.3725,87.2225
141.4586,87.2054
Z" /> 
<path style="fill:#000000; fill-opacity:1.0000; stroke:none;fill-rule:evenodd;"
d="M 145.3074,83.0926
145.3935,83.1097
145.4665,83.1585
145.5153,83.2315
145.5324,83.3176
145.5324,83.7676
145.5153,83.8537
145.4665,83.9267
145.3935,83.9755
145.3074,83.9926
144.5574,83.9926
144.4713,83.9755
144.3983,83.9267
144.3495,83.8537
144.3324,83.7676
144.3324,83.3176
144.3495,83.2315
144.3983,83.1585
144.4713,83.1097
144.5574,83.0926
Z" /> 
<path style="fill:#000000; fill-opacity:1.0000; stroke:none;fill-rule:evenodd;"
d="M 145.3074,86.3926
145.3935,86.4097
145.4665,86.4585
145.5153,86.5315
145.5324,86.6176
145.5324,87.0676
145.5153,87.1537
145.4665,87.2267
145.3935,87.2755
145.3074,87.2926
144.5574,87.2926
144.4713,87.2755
144.3983,87.2267
144.3495,87.1537
144.3324,87.0676
144.3324,86.6176
144.3495,86.5315
144.3983,86.4585
144.4713,86.4097
144.5574,86.3926
Z" /> 
<path style="fill:#000000; fill-opacity:1.0000; stroke:none;fill-rule:evenodd;"
d="M 147.0314,84.4876
147.0504,84.3919
147.1046,84.3108
147.1857,84.2566
147.2814,84.2376
147.9814,84.2376
148.0771,84.2566
148.1582,84.3108
148.2124,84.3919
148.2314,84.4876
148.2314,85.3876
148.2124,85.4833
148.1582,85.5644
148.0771,85.6186
147.9814,85.6376
147.2814,85.6376
147.1857,85.6186
147.1046,85.5644
147.0504,85.4833
147.0314,85.3876
Z" /> 
<path style="fill:#000000; fill-opacity:1.0000; stroke:none;fill-rule:evenodd;"
d="M 149.0314,84.4876
149.0504,84.3919
149.1046,84.3108
149.1857,84.2566
149.2814,84.2376
149.9814,84.2376
150.0771,84.2566
150.1582,84.3108
150.2124,84.3919
150.2314,84.4876
150.2314,85.3876
150.2124,85.4833
150.1582,85.5644
150.0771,85.6186
149.9814,85.6376
149.2814,85.6376
149.1857,85.6186
149.1046,85.5644
149.0504,85.4833
149.0314,85.3876
Z" /> 
<path style="fill:#000000; fill-opacity:1.0000; stroke:none;fill-rule:evenodd;"
d="M 146.8028,80.9062
146.8218,80.8105
146.8760,80.7294
146.9571,80.6752
147.0528,80.6562
147.7528,80.6562
147.8485,80.6752
147.9296,80.7294
147.9838,80.8105
148.0028,80.9062
148.0028,81.8062
147.9838,81.9019
147.9296,81.9830
147.8485,82.0372
147.7528,82.0562
147.0528,82.0562
146.9571,82.0372
146.8760,81.9830
146.8218,81.9019
146.8028,81.8062
Z" /> 
<path style="fill:#000000; fill-opacity:1.0000; stroke:none;fill-rule:evenodd;"
d="M 148.8028,80.9062
148.8218,80.8105
148.8760,80.7294
148.9571,80.6752
149.0528,80.6562
149.7528,80.6562
149.8485,80.6752
149.9296,80.7294
149.9838,80.8105
150.0028,80.9062
150.0028,81.8062
149.9838,81.9019
149.9296,81.9830
149.8485,82.0372
149.7528,82.0562
149.0528,82.0562
148.9571,82.0372
148.8760,81.9830
148.8218,81.9019
148.8028,81.8062
Z" /> 
</g> 
</svg>
