%TF.GenerationSoftware,KiCad,Pcbnew,9.0.2*%
%TF.CreationDate,2025-11-07T14:57:23+01:00*%
%TF.ProjectId,Digispark_USB_Panel,44696769-7370-4617-926b-5f5553425f50,rev?*%
%TF.SameCoordinates,Original*%
%TF.FileFunction,Copper,L2,Bot*%
%TF.FilePolarity,Positive*%
%FSLAX46Y46*%
G04 Gerber Fmt 4.6, Leading zero omitted, Abs format (unit mm)*
G04 Created by KiCad (PCBNEW 9.0.2) date 2025-11-07 14:57:23*
%MOMM*%
%LPD*%
G01*
G04 APERTURE LIST*
%TA.AperFunction,ComponentPad*%
%ADD10R,1.700000X1.700000*%
%TD*%
%TA.AperFunction,ComponentPad*%
%ADD11C,1.700000*%
%TD*%
%TA.AperFunction,ComponentPad*%
%ADD12R,1.800000X1.800000*%
%TD*%
%TA.AperFunction,ComponentPad*%
%ADD13C,1.800000*%
%TD*%
%TA.AperFunction,ViaPad*%
%ADD14C,0.600000*%
%TD*%
%TA.AperFunction,Conductor*%
%ADD15C,0.500000*%
%TD*%
%TA.AperFunction,Conductor*%
%ADD16C,0.200000*%
%TD*%
G04 APERTURE END LIST*
D10*
%TO.P,J2,1,Pin_1*%
%TO.N,Net-(J2-Pin_1)*%
X134286050Y-102487600D03*
D11*
%TO.P,J2,2,Pin_2*%
%TO.N,Net-(J2-Pin_2)*%
X131746050Y-102487600D03*
%TO.P,J2,3,Pin_3*%
%TO.N,Net-(J2-Pin_3)*%
X129206050Y-102487600D03*
%TO.P,J2,4,Pin_4*%
%TO.N,+5V*%
X126666050Y-102487600D03*
%TD*%
D12*
%TO.P,D3,1,K*%
%TO.N,GND*%
X139112050Y-112419000D03*
D13*
%TO.P,D3,2,A*%
%TO.N,Net-(D3-A)*%
X139112050Y-109879000D03*
%TD*%
D10*
%TO.P,J1,1,Pin_1*%
%TO.N,Net-(J1-Pin_1)*%
X126843850Y-111987200D03*
D11*
%TO.P,J1,2,Pin_2*%
%TO.N,Net-(J1-Pin_2)*%
X129383850Y-111987200D03*
%TO.P,J1,3,Pin_3*%
%TO.N,Net-(J1-Pin_3)*%
X131923850Y-111987200D03*
%TO.P,J1,4,Pin_4*%
%TO.N,GND*%
X134463850Y-111987200D03*
%TD*%
%TO.P,J2,4,Pin_4*%
%TO.N,+5V*%
X126595400Y-118375800D03*
%TO.P,J2,3,Pin_3*%
%TO.N,Net-(J2-Pin_3)*%
X129135400Y-118375800D03*
%TO.P,J2,2,Pin_2*%
%TO.N,Net-(J2-Pin_2)*%
X131675400Y-118375800D03*
D10*
%TO.P,J2,1,Pin_1*%
%TO.N,Net-(J2-Pin_1)*%
X134215400Y-118375800D03*
%TD*%
D13*
%TO.P,D3,2,A*%
%TO.N,Net-(D3-A)*%
X139041400Y-125767200D03*
D12*
%TO.P,D3,1,K*%
%TO.N,GND*%
X139041400Y-128307200D03*
%TD*%
D11*
%TO.P,J1,4,Pin_4*%
%TO.N,GND*%
X134393200Y-127875400D03*
%TO.P,J1,3,Pin_3*%
%TO.N,Net-(J1-Pin_3)*%
X131853200Y-127875400D03*
%TO.P,J1,2,Pin_2*%
%TO.N,Net-(J1-Pin_2)*%
X129313200Y-127875400D03*
D10*
%TO.P,J1,1,Pin_1*%
%TO.N,Net-(J1-Pin_1)*%
X126773200Y-127875400D03*
%TD*%
D11*
%TO.P,J2,4,Pin_4*%
%TO.N,+5V*%
X127146850Y-71141000D03*
%TO.P,J2,3,Pin_3*%
%TO.N,Net-(J2-Pin_3)*%
X129686850Y-71141000D03*
%TO.P,J2,2,Pin_2*%
%TO.N,Net-(J2-Pin_2)*%
X132226850Y-71141000D03*
D10*
%TO.P,J2,1,Pin_1*%
%TO.N,Net-(J2-Pin_1)*%
X134766850Y-71141000D03*
%TD*%
D11*
%TO.P,J2,4,Pin_4*%
%TO.N,+5V*%
X127076200Y-87029200D03*
%TO.P,J2,3,Pin_3*%
%TO.N,Net-(J2-Pin_3)*%
X129616200Y-87029200D03*
%TO.P,J2,2,Pin_2*%
%TO.N,Net-(J2-Pin_2)*%
X132156200Y-87029200D03*
D10*
%TO.P,J2,1,Pin_1*%
%TO.N,Net-(J2-Pin_1)*%
X134696200Y-87029200D03*
%TD*%
D11*
%TO.P,J1,4,Pin_4*%
%TO.N,GND*%
X134944650Y-80640600D03*
%TO.P,J1,3,Pin_3*%
%TO.N,Net-(J1-Pin_3)*%
X132404650Y-80640600D03*
%TO.P,J1,2,Pin_2*%
%TO.N,Net-(J1-Pin_2)*%
X129864650Y-80640600D03*
D10*
%TO.P,J1,1,Pin_1*%
%TO.N,Net-(J1-Pin_1)*%
X127324650Y-80640600D03*
%TD*%
D13*
%TO.P,D3,2,A*%
%TO.N,Net-(D3-A)*%
X139522200Y-94420600D03*
D12*
%TO.P,D3,1,K*%
%TO.N,GND*%
X139522200Y-96960600D03*
%TD*%
D11*
%TO.P,J1,4,Pin_4*%
%TO.N,GND*%
X134874000Y-96528800D03*
%TO.P,J1,3,Pin_3*%
%TO.N,Net-(J1-Pin_3)*%
X132334000Y-96528800D03*
%TO.P,J1,2,Pin_2*%
%TO.N,Net-(J1-Pin_2)*%
X129794000Y-96528800D03*
D10*
%TO.P,J1,1,Pin_1*%
%TO.N,Net-(J1-Pin_1)*%
X127254000Y-96528800D03*
%TD*%
D13*
%TO.P,D3,2,A*%
%TO.N,Net-(D3-A)*%
X139592850Y-78532400D03*
D12*
%TO.P,D3,1,K*%
%TO.N,GND*%
X139592850Y-81072400D03*
%TD*%
D13*
%TO.P,D3,2,A*%
%TO.N,Net-(D3-A)*%
X181468050Y-125893000D03*
D12*
%TO.P,D3,1,K*%
%TO.N,GND*%
X181468050Y-128433000D03*
%TD*%
D11*
%TO.P,J2,4,Pin_4*%
%TO.N,+5V*%
X169092700Y-102613400D03*
%TO.P,J2,3,Pin_3*%
%TO.N,Net-(J2-Pin_3)*%
X171632700Y-102613400D03*
%TO.P,J2,2,Pin_2*%
%TO.N,Net-(J2-Pin_2)*%
X174172700Y-102613400D03*
D10*
%TO.P,J2,1,Pin_1*%
%TO.N,Net-(J2-Pin_1)*%
X176712700Y-102613400D03*
%TD*%
D13*
%TO.P,D3,2,A*%
%TO.N,Net-(D3-A)*%
X181538700Y-110004800D03*
D12*
%TO.P,D3,1,K*%
%TO.N,GND*%
X181538700Y-112544800D03*
%TD*%
D11*
%TO.P,J1,4,Pin_4*%
%TO.N,GND*%
X176890500Y-112113000D03*
%TO.P,J1,3,Pin_3*%
%TO.N,Net-(J1-Pin_3)*%
X174350500Y-112113000D03*
%TO.P,J1,2,Pin_2*%
%TO.N,Net-(J1-Pin_2)*%
X171810500Y-112113000D03*
D10*
%TO.P,J1,1,Pin_1*%
%TO.N,Net-(J1-Pin_1)*%
X169270500Y-112113000D03*
%TD*%
D11*
%TO.P,J2,4,Pin_4*%
%TO.N,+5V*%
X169022050Y-118501600D03*
%TO.P,J2,3,Pin_3*%
%TO.N,Net-(J2-Pin_3)*%
X171562050Y-118501600D03*
%TO.P,J2,2,Pin_2*%
%TO.N,Net-(J2-Pin_2)*%
X174102050Y-118501600D03*
D10*
%TO.P,J2,1,Pin_1*%
%TO.N,Net-(J2-Pin_1)*%
X176642050Y-118501600D03*
%TD*%
D11*
%TO.P,J2,4,Pin_4*%
%TO.N,+5V*%
X169502850Y-87155000D03*
%TO.P,J2,3,Pin_3*%
%TO.N,Net-(J2-Pin_3)*%
X172042850Y-87155000D03*
%TO.P,J2,2,Pin_2*%
%TO.N,Net-(J2-Pin_2)*%
X174582850Y-87155000D03*
D10*
%TO.P,J2,1,Pin_1*%
%TO.N,Net-(J2-Pin_1)*%
X177122850Y-87155000D03*
%TD*%
D11*
%TO.P,J1,4,Pin_4*%
%TO.N,GND*%
X177300650Y-96654600D03*
%TO.P,J1,3,Pin_3*%
%TO.N,Net-(J1-Pin_3)*%
X174760650Y-96654600D03*
%TO.P,J1,2,Pin_2*%
%TO.N,Net-(J1-Pin_2)*%
X172220650Y-96654600D03*
D10*
%TO.P,J1,1,Pin_1*%
%TO.N,Net-(J1-Pin_1)*%
X169680650Y-96654600D03*
%TD*%
D11*
%TO.P,J1,4,Pin_4*%
%TO.N,GND*%
X177371300Y-80766400D03*
%TO.P,J1,3,Pin_3*%
%TO.N,Net-(J1-Pin_3)*%
X174831300Y-80766400D03*
%TO.P,J1,2,Pin_2*%
%TO.N,Net-(J1-Pin_2)*%
X172291300Y-80766400D03*
D10*
%TO.P,J1,1,Pin_1*%
%TO.N,Net-(J1-Pin_1)*%
X169751300Y-80766400D03*
%TD*%
D13*
%TO.P,D3,2,A*%
%TO.N,Net-(D3-A)*%
X181948850Y-94546400D03*
D12*
%TO.P,D3,1,K*%
%TO.N,GND*%
X181948850Y-97086400D03*
%TD*%
D11*
%TO.P,J1,4,Pin_4*%
%TO.N,GND*%
X176819850Y-128001200D03*
%TO.P,J1,3,Pin_3*%
%TO.N,Net-(J1-Pin_3)*%
X174279850Y-128001200D03*
%TO.P,J1,2,Pin_2*%
%TO.N,Net-(J1-Pin_2)*%
X171739850Y-128001200D03*
D10*
%TO.P,J1,1,Pin_1*%
%TO.N,Net-(J1-Pin_1)*%
X169199850Y-128001200D03*
%TD*%
D11*
%TO.P,J2,4,Pin_4*%
%TO.N,+5V*%
X169573500Y-71266800D03*
%TO.P,J2,3,Pin_3*%
%TO.N,Net-(J2-Pin_3)*%
X172113500Y-71266800D03*
%TO.P,J2,2,Pin_2*%
%TO.N,Net-(J2-Pin_2)*%
X174653500Y-71266800D03*
D10*
%TO.P,J2,1,Pin_1*%
%TO.N,Net-(J2-Pin_1)*%
X177193500Y-71266800D03*
%TD*%
D13*
%TO.P,D3,2,A*%
%TO.N,Net-(D3-A)*%
X182019500Y-78658200D03*
D12*
%TO.P,D3,1,K*%
%TO.N,GND*%
X182019500Y-81198200D03*
%TD*%
D14*
%TO.N,Net-(J1-Pin_1)*%
X128698050Y-105688000D03*
%TO.N,+5V*%
X113229450Y-110514000D03*
%TO.N,GND*%
X118182450Y-105916600D03*
%TO.N,Net-(J2-Pin_1)*%
X135810050Y-109015400D03*
%TO.N,Net-(J2-Pin_2)*%
X132508050Y-107466000D03*
%TO.N,Net-(J1-Pin_3)*%
X130272850Y-107745400D03*
%TO.N,Net-(J1-Pin_2)*%
X129298050Y-106577000D03*
%TO.N,GND*%
X118111800Y-121804800D03*
%TO.N,+5V*%
X113158800Y-126402200D03*
%TO.N,Net-(J2-Pin_1)*%
X135739400Y-124903600D03*
%TO.N,Net-(J1-Pin_2)*%
X129227400Y-122465200D03*
%TO.N,Net-(J1-Pin_1)*%
X128627400Y-121576200D03*
%TO.N,Net-(J2-Pin_2)*%
X132437400Y-123354200D03*
%TO.N,Net-(J1-Pin_3)*%
X130202200Y-123633600D03*
X130753650Y-76398800D03*
%TO.N,+5V*%
X113710250Y-79167400D03*
%TO.N,GND*%
X118663250Y-74570000D03*
%TO.N,Net-(J2-Pin_1)*%
X136290850Y-77668800D03*
%TO.N,Net-(J2-Pin_2)*%
X132988850Y-76119400D03*
%TO.N,Net-(J1-Pin_2)*%
X129778850Y-75230400D03*
%TO.N,Net-(J1-Pin_1)*%
X129178850Y-74341400D03*
%TO.N,Net-(J2-Pin_2)*%
X132918200Y-92007600D03*
%TO.N,Net-(J1-Pin_1)*%
X129108200Y-90229600D03*
%TO.N,+5V*%
X113639600Y-95055600D03*
%TO.N,Net-(J1-Pin_2)*%
X129708200Y-91118600D03*
%TO.N,Net-(J2-Pin_1)*%
X136220200Y-93557000D03*
%TO.N,Net-(J1-Pin_3)*%
X130683000Y-92287000D03*
%TO.N,GND*%
X118592600Y-90458200D03*
%TO.N,Net-(J1-Pin_2)*%
X171724700Y-106702800D03*
%TO.N,Net-(J1-Pin_1)*%
X171124700Y-105813800D03*
%TO.N,Net-(J1-Pin_3)*%
X172699500Y-107871200D03*
%TO.N,+5V*%
X155585450Y-126528000D03*
%TO.N,Net-(J1-Pin_1)*%
X171054050Y-121702000D03*
%TO.N,Net-(J2-Pin_1)*%
X178236700Y-109141200D03*
%TO.N,+5V*%
X155656100Y-110639800D03*
%TO.N,Net-(J2-Pin_2)*%
X174934700Y-107591800D03*
%TO.N,GND*%
X160609100Y-106042400D03*
X160538450Y-121930600D03*
%TO.N,Net-(J2-Pin_1)*%
X178166050Y-125029400D03*
%TO.N,Net-(J1-Pin_2)*%
X171654050Y-122591000D03*
%TO.N,Net-(J2-Pin_1)*%
X178717500Y-77794600D03*
%TO.N,Net-(J1-Pin_1)*%
X171605500Y-74467200D03*
%TO.N,+5V*%
X156066250Y-95181400D03*
%TO.N,Net-(J2-Pin_2)*%
X175415500Y-76245200D03*
%TO.N,+5V*%
X156136900Y-79293200D03*
%TO.N,Net-(J2-Pin_2)*%
X175344850Y-92133400D03*
%TO.N,GND*%
X161089900Y-74695800D03*
%TO.N,Net-(J1-Pin_3)*%
X172628850Y-123759400D03*
X173180300Y-76524600D03*
%TO.N,Net-(J1-Pin_2)*%
X172205500Y-75356200D03*
%TO.N,Net-(J1-Pin_1)*%
X171534850Y-90355400D03*
%TO.N,Net-(J1-Pin_3)*%
X173109650Y-92412800D03*
%TO.N,Net-(J2-Pin_2)*%
X174864050Y-123480000D03*
%TO.N,GND*%
X161019250Y-90584000D03*
%TO.N,Net-(J1-Pin_2)*%
X172134850Y-91244400D03*
%TO.N,Net-(J2-Pin_1)*%
X178646850Y-93682800D03*
%TD*%
D15*
%TO.N,GND*%
X125404050Y-113138200D02*
X133312850Y-113138200D01*
X133312850Y-113138200D02*
X134463850Y-111987200D01*
D16*
%TO.N,Net-(J1-Pin_2)*%
X129383850Y-106704000D02*
X129383850Y-111987200D01*
D15*
%TO.N,GND*%
X118182450Y-105916600D02*
X125404050Y-113138200D01*
D16*
%TO.N,+5V*%
X121535250Y-103605200D02*
X121535250Y-102436800D01*
X113229450Y-110514000D02*
X113229450Y-105764200D01*
X121586050Y-102487600D02*
X126666050Y-102487600D01*
%TO.N,Net-(J1-Pin_3)*%
X130272850Y-107745400D02*
X130272850Y-110336200D01*
%TO.N,+5V*%
X113229450Y-105764200D02*
X114575650Y-104418000D01*
X114575650Y-104418000D02*
X120722450Y-104418000D01*
%TO.N,Net-(J1-Pin_2)*%
X129298050Y-106577000D02*
X129298050Y-106618200D01*
%TO.N,Net-(J2-Pin_1)*%
X135962450Y-105307000D02*
X134286050Y-103630600D01*
%TO.N,Net-(J1-Pin_1)*%
X128698050Y-110234600D02*
X128291650Y-110641000D01*
%TO.N,Net-(J2-Pin_1)*%
X134286050Y-103630600D02*
X134286050Y-102487600D01*
X135810050Y-109015400D02*
X135962450Y-108863000D01*
%TO.N,Net-(J1-Pin_2)*%
X129298050Y-106618200D02*
X129383850Y-106704000D01*
%TO.N,Net-(J1-Pin_1)*%
X128291650Y-110641000D02*
X128190050Y-110641000D01*
%TO.N,Net-(J1-Pin_3)*%
X130272850Y-110336200D02*
X131923850Y-111987200D01*
%TO.N,+5V*%
X120722450Y-104418000D02*
X121535250Y-103605200D01*
%TO.N,Net-(J1-Pin_1)*%
X128190050Y-110641000D02*
X126843850Y-111987200D01*
%TO.N,Net-(J2-Pin_2)*%
X132508050Y-107466000D02*
X131746050Y-106704000D01*
X131746050Y-106704000D02*
X131746050Y-102487600D01*
%TO.N,+5V*%
X121535250Y-102436800D02*
X121586050Y-102487600D01*
%TO.N,Net-(J1-Pin_1)*%
X128698050Y-105688000D02*
X128698050Y-110234600D01*
%TO.N,Net-(J2-Pin_1)*%
X135962450Y-108863000D02*
X135962450Y-105307000D01*
%TO.N,Net-(J1-Pin_2)*%
X129313200Y-122592200D02*
X129313200Y-127875400D01*
D15*
%TO.N,GND*%
X118111800Y-121804800D02*
X125333400Y-129026400D01*
X133242200Y-129026400D02*
X134393200Y-127875400D01*
D16*
%TO.N,+5V*%
X113158800Y-126402200D02*
X113158800Y-121652400D01*
X121464600Y-119493400D02*
X121464600Y-118325000D01*
%TO.N,Net-(J1-Pin_2)*%
X129227400Y-122465200D02*
X129227400Y-122506400D01*
%TO.N,+5V*%
X120651800Y-120306200D02*
X121464600Y-119493400D01*
%TO.N,Net-(J1-Pin_1)*%
X128119400Y-126529200D02*
X126773200Y-127875400D01*
%TO.N,Net-(J1-Pin_3)*%
X130202200Y-123633600D02*
X130202200Y-126224400D01*
%TO.N,Net-(J2-Pin_1)*%
X135739400Y-124903600D02*
X135891800Y-124751200D01*
%TO.N,Net-(J1-Pin_2)*%
X129227400Y-122506400D02*
X129313200Y-122592200D01*
%TO.N,Net-(J2-Pin_2)*%
X132437400Y-123354200D02*
X131675400Y-122592200D01*
X131675400Y-122592200D02*
X131675400Y-118375800D01*
%TO.N,+5V*%
X121464600Y-118325000D02*
X121515400Y-118375800D01*
%TO.N,Net-(J2-Pin_1)*%
X134215400Y-119518800D02*
X134215400Y-118375800D01*
%TO.N,Net-(J1-Pin_1)*%
X128221000Y-126529200D02*
X128119400Y-126529200D01*
%TO.N,+5V*%
X121515400Y-118375800D02*
X126595400Y-118375800D01*
%TO.N,Net-(J1-Pin_3)*%
X130202200Y-126224400D02*
X131853200Y-127875400D01*
%TO.N,+5V*%
X113158800Y-121652400D02*
X114505000Y-120306200D01*
%TO.N,Net-(J2-Pin_1)*%
X135891800Y-121195200D02*
X134215400Y-119518800D01*
%TO.N,Net-(J1-Pin_1)*%
X128627400Y-121576200D02*
X128627400Y-126122800D01*
%TO.N,+5V*%
X114505000Y-120306200D02*
X120651800Y-120306200D01*
%TO.N,Net-(J1-Pin_1)*%
X128627400Y-126122800D02*
X128221000Y-126529200D01*
%TO.N,Net-(J1-Pin_3)*%
X173180300Y-76524600D02*
X173180300Y-79115400D01*
%TO.N,+5V*%
X156136900Y-74543400D02*
X157483100Y-73197200D01*
D15*
%TO.N,GND*%
X125884850Y-81791600D02*
X133793650Y-81791600D01*
D16*
%TO.N,+5V*%
X122066850Y-71141000D02*
X127146850Y-71141000D01*
D15*
%TO.N,GND*%
X133793650Y-81791600D02*
X134944650Y-80640600D01*
D16*
%TO.N,+5V*%
X122016050Y-72258600D02*
X122016050Y-71090200D01*
X115056450Y-73071400D02*
X121203250Y-73071400D01*
%TO.N,Net-(J1-Pin_2)*%
X129864650Y-75357400D02*
X129864650Y-80640600D01*
D15*
%TO.N,GND*%
X118663250Y-74570000D02*
X125884850Y-81791600D01*
D16*
%TO.N,+5V*%
X113710250Y-79167400D02*
X113710250Y-74417600D01*
%TO.N,Net-(J1-Pin_3)*%
X130753650Y-76398800D02*
X130753650Y-78989600D01*
%TO.N,+5V*%
X113710250Y-74417600D02*
X115056450Y-73071400D01*
%TO.N,Net-(J2-Pin_1)*%
X135891800Y-124751200D02*
X135891800Y-121195200D01*
%TO.N,Net-(J1-Pin_1)*%
X128670850Y-79294400D02*
X127324650Y-80640600D01*
%TO.N,+5V*%
X122016050Y-71090200D02*
X122066850Y-71141000D01*
%TO.N,Net-(J1-Pin_2)*%
X129778850Y-75230400D02*
X129778850Y-75271600D01*
%TO.N,Net-(J1-Pin_1)*%
X128772450Y-79294400D02*
X128670850Y-79294400D01*
%TO.N,Net-(J1-Pin_2)*%
X129778850Y-75271600D02*
X129864650Y-75357400D01*
%TO.N,Net-(J2-Pin_1)*%
X136290850Y-77668800D02*
X136443250Y-77516400D01*
%TO.N,Net-(J2-Pin_2)*%
X132988850Y-76119400D02*
X132226850Y-75357400D01*
X132226850Y-75357400D02*
X132226850Y-71141000D01*
%TO.N,+5V*%
X121203250Y-73071400D02*
X122016050Y-72258600D01*
%TO.N,Net-(J1-Pin_3)*%
X130753650Y-78989600D02*
X132404650Y-80640600D01*
%TO.N,Net-(J1-Pin_2)*%
X129794000Y-91245600D02*
X129794000Y-96528800D01*
%TO.N,Net-(J2-Pin_1)*%
X134766850Y-72284000D02*
X134766850Y-71141000D01*
%TO.N,Net-(J1-Pin_1)*%
X129178850Y-78888000D02*
X128772450Y-79294400D01*
X129178850Y-74341400D02*
X129178850Y-78888000D01*
%TO.N,Net-(J2-Pin_1)*%
X136443250Y-77516400D02*
X136443250Y-73960400D01*
X136443250Y-73960400D02*
X134766850Y-72284000D01*
X136220200Y-93557000D02*
X136372600Y-93404600D01*
X134696200Y-88172200D02*
X134696200Y-87029200D01*
%TO.N,Net-(J1-Pin_1)*%
X128701800Y-95182600D02*
X128600200Y-95182600D01*
%TO.N,Net-(J1-Pin_3)*%
X130683000Y-92287000D02*
X130683000Y-94877800D01*
%TO.N,+5V*%
X113639600Y-95055600D02*
X113639600Y-90305800D01*
%TO.N,Net-(J1-Pin_1)*%
X128600200Y-95182600D02*
X127254000Y-96528800D01*
%TO.N,Net-(J2-Pin_2)*%
X132156200Y-91245600D02*
X132156200Y-87029200D01*
D15*
%TO.N,GND*%
X118592600Y-90458200D02*
X125814200Y-97679800D01*
D16*
%TO.N,+5V*%
X121945400Y-86978400D02*
X121996200Y-87029200D01*
D15*
%TO.N,GND*%
X133723000Y-97679800D02*
X134874000Y-96528800D01*
D16*
%TO.N,+5V*%
X121945400Y-88146800D02*
X121945400Y-86978400D01*
%TO.N,Net-(J1-Pin_2)*%
X129708200Y-91159800D02*
X129794000Y-91245600D01*
X129708200Y-91118600D02*
X129708200Y-91159800D01*
%TO.N,+5V*%
X121996200Y-87029200D02*
X127076200Y-87029200D01*
D15*
%TO.N,GND*%
X125814200Y-97679800D02*
X133723000Y-97679800D01*
D16*
%TO.N,Net-(J2-Pin_2)*%
X132918200Y-92007600D02*
X132156200Y-91245600D01*
%TO.N,+5V*%
X121132600Y-88959600D02*
X121945400Y-88146800D01*
%TO.N,Net-(J1-Pin_1)*%
X129108200Y-90229600D02*
X129108200Y-94776200D01*
%TO.N,+5V*%
X114985800Y-88959600D02*
X121132600Y-88959600D01*
%TO.N,Net-(J1-Pin_2)*%
X171810500Y-106829800D02*
X171810500Y-112113000D01*
D15*
%TO.N,GND*%
X160609100Y-106042400D02*
X167830700Y-113264000D01*
D16*
%TO.N,Net-(J1-Pin_1)*%
X129108200Y-94776200D02*
X128701800Y-95182600D01*
D15*
%TO.N,GND*%
X167830700Y-113264000D02*
X175739500Y-113264000D01*
D16*
%TO.N,+5V*%
X155656100Y-110639800D02*
X155656100Y-105890000D01*
%TO.N,Net-(J1-Pin_3)*%
X130683000Y-94877800D02*
X132334000Y-96528800D01*
%TO.N,+5V*%
X113639600Y-90305800D02*
X114985800Y-88959600D01*
X163961900Y-103731000D02*
X163961900Y-102562600D01*
D15*
%TO.N,GND*%
X175739500Y-113264000D02*
X176890500Y-112113000D01*
D16*
%TO.N,Net-(J2-Pin_1)*%
X136372600Y-93404600D02*
X136372600Y-89848600D01*
X136372600Y-89848600D02*
X134696200Y-88172200D01*
X178236700Y-109141200D02*
X178389100Y-108988800D01*
%TO.N,Net-(J1-Pin_2)*%
X171724700Y-106702800D02*
X171724700Y-106744000D01*
%TO.N,Net-(J2-Pin_1)*%
X178389100Y-105432800D02*
X176712700Y-103756400D01*
%TO.N,Net-(J1-Pin_3)*%
X172699500Y-110462000D02*
X174350500Y-112113000D01*
%TO.N,+5V*%
X163149100Y-104543800D02*
X163961900Y-103731000D01*
%TO.N,Net-(J2-Pin_2)*%
X174934700Y-107591800D02*
X174172700Y-106829800D01*
%TO.N,Net-(J1-Pin_3)*%
X172699500Y-107871200D02*
X172699500Y-110462000D01*
%TO.N,Net-(J1-Pin_1)*%
X170616700Y-110766800D02*
X169270500Y-112113000D01*
X171124700Y-110360400D02*
X170718300Y-110766800D01*
%TO.N,+5V*%
X157002300Y-104543800D02*
X163149100Y-104543800D01*
%TO.N,Net-(J2-Pin_2)*%
X174172700Y-106829800D02*
X174172700Y-102613400D01*
%TO.N,+5V*%
X155656100Y-105890000D02*
X157002300Y-104543800D01*
%TO.N,Net-(J2-Pin_1)*%
X176712700Y-103756400D02*
X176712700Y-102613400D01*
%TO.N,+5V*%
X163961900Y-102562600D02*
X164012700Y-102613400D01*
%TO.N,Net-(J1-Pin_1)*%
X171124700Y-105813800D02*
X171124700Y-110360400D01*
%TO.N,+5V*%
X164012700Y-102613400D02*
X169092700Y-102613400D01*
%TO.N,Net-(J1-Pin_1)*%
X170718300Y-110766800D02*
X170616700Y-110766800D01*
%TO.N,Net-(J2-Pin_1)*%
X178389100Y-108988800D02*
X178389100Y-105432800D01*
%TO.N,Net-(J1-Pin_2)*%
X171724700Y-106744000D02*
X171810500Y-106829800D01*
%TO.N,+5V*%
X155585450Y-126528000D02*
X155585450Y-121778200D01*
D15*
%TO.N,GND*%
X160538450Y-121930600D02*
X167760050Y-129152200D01*
D16*
%TO.N,+5V*%
X163891250Y-119619200D02*
X163891250Y-118450800D01*
%TO.N,Net-(J1-Pin_2)*%
X171739850Y-122718000D02*
X171739850Y-128001200D01*
D15*
%TO.N,GND*%
X175668850Y-129152200D02*
X176819850Y-128001200D01*
D16*
%TO.N,Net-(J1-Pin_1)*%
X171054050Y-121702000D02*
X171054050Y-126248600D01*
%TO.N,Net-(J1-Pin_2)*%
X171654050Y-122591000D02*
X171654050Y-122632200D01*
%TO.N,Net-(J2-Pin_1)*%
X178166050Y-125029400D02*
X178318450Y-124877000D01*
X178318450Y-121321000D02*
X176642050Y-119644600D01*
%TO.N,+5V*%
X156931650Y-120432000D02*
X163078450Y-120432000D01*
%TO.N,Net-(J1-Pin_1)*%
X171054050Y-126248600D02*
X170647650Y-126655000D01*
%TO.N,Net-(J1-Pin_3)*%
X172628850Y-123759400D02*
X172628850Y-126350200D01*
%TO.N,Net-(J2-Pin_2)*%
X174102050Y-122718000D02*
X174102050Y-118501600D01*
%TO.N,Net-(J1-Pin_1)*%
X170546050Y-126655000D02*
X169199850Y-128001200D01*
X170647650Y-126655000D02*
X170546050Y-126655000D01*
%TO.N,+5V*%
X163942050Y-118501600D02*
X169022050Y-118501600D01*
%TO.N,Net-(J2-Pin_1)*%
X176642050Y-119644600D02*
X176642050Y-118501600D01*
%TO.N,+5V*%
X155585450Y-121778200D02*
X156931650Y-120432000D01*
D15*
%TO.N,GND*%
X168311500Y-81917400D02*
X176220300Y-81917400D01*
D16*
%TO.N,Net-(J1-Pin_3)*%
X172628850Y-126350200D02*
X174279850Y-128001200D01*
%TO.N,Net-(J1-Pin_2)*%
X171654050Y-122632200D02*
X171739850Y-122718000D01*
%TO.N,Net-(J2-Pin_2)*%
X174864050Y-123480000D02*
X174102050Y-122718000D01*
%TO.N,+5V*%
X163891250Y-118450800D02*
X163942050Y-118501600D01*
X163078450Y-120432000D02*
X163891250Y-119619200D01*
X164442700Y-72384400D02*
X164442700Y-71216000D01*
%TO.N,Net-(J1-Pin_2)*%
X172291300Y-75483200D02*
X172291300Y-80766400D01*
D15*
%TO.N,GND*%
X161089900Y-74695800D02*
X168311500Y-81917400D01*
D16*
%TO.N,+5V*%
X156136900Y-79293200D02*
X156136900Y-74543400D01*
X157483100Y-73197200D02*
X163629900Y-73197200D01*
D15*
%TO.N,GND*%
X176220300Y-81917400D02*
X177371300Y-80766400D01*
D16*
%TO.N,+5V*%
X164493500Y-71266800D02*
X169573500Y-71266800D01*
%TO.N,Net-(J2-Pin_1)*%
X177193500Y-72409800D02*
X177193500Y-71266800D01*
%TO.N,Net-(J1-Pin_2)*%
X172205500Y-75397400D02*
X172291300Y-75483200D01*
%TO.N,Net-(J1-Pin_1)*%
X171605500Y-79013800D02*
X171199100Y-79420200D01*
X171199100Y-79420200D02*
X171097500Y-79420200D01*
X171097500Y-79420200D02*
X169751300Y-80766400D01*
%TO.N,Net-(J2-Pin_1)*%
X178318450Y-124877000D02*
X178318450Y-121321000D01*
%TO.N,Net-(J2-Pin_2)*%
X174653500Y-75483200D02*
X174653500Y-71266800D01*
%TO.N,Net-(J2-Pin_1)*%
X178717500Y-77794600D02*
X178869900Y-77642200D01*
%TO.N,+5V*%
X163629900Y-73197200D02*
X164442700Y-72384400D01*
%TO.N,Net-(J1-Pin_3)*%
X173180300Y-79115400D02*
X174831300Y-80766400D01*
%TO.N,Net-(J1-Pin_2)*%
X172220650Y-91371400D02*
X172220650Y-96654600D01*
%TO.N,Net-(J2-Pin_2)*%
X175415500Y-76245200D02*
X174653500Y-75483200D01*
%TO.N,+5V*%
X164442700Y-71216000D02*
X164493500Y-71266800D01*
%TO.N,Net-(J1-Pin_2)*%
X172205500Y-75356200D02*
X172205500Y-75397400D01*
%TO.N,+5V*%
X156066250Y-95181400D02*
X156066250Y-90431600D01*
%TO.N,Net-(J1-Pin_3)*%
X173109650Y-92412800D02*
X173109650Y-95003600D01*
D15*
%TO.N,GND*%
X161019250Y-90584000D02*
X168240850Y-97805600D01*
D16*
%TO.N,+5V*%
X164372050Y-87104200D02*
X164422850Y-87155000D01*
X164372050Y-88272600D02*
X164372050Y-87104200D01*
%TO.N,Net-(J2-Pin_1)*%
X178646850Y-93682800D02*
X178799250Y-93530400D01*
X177122850Y-88298000D02*
X177122850Y-87155000D01*
X178869900Y-77642200D02*
X178869900Y-74086200D01*
%TO.N,Net-(J1-Pin_1)*%
X171026850Y-95308400D02*
X169680650Y-96654600D01*
%TO.N,Net-(J2-Pin_1)*%
X178869900Y-74086200D02*
X177193500Y-72409800D01*
%TO.N,Net-(J2-Pin_2)*%
X174582850Y-91371400D02*
X174582850Y-87155000D01*
D15*
%TO.N,GND*%
X176149650Y-97805600D02*
X177300650Y-96654600D01*
D16*
%TO.N,Net-(J1-Pin_1)*%
X171605500Y-74467200D02*
X171605500Y-79013800D01*
%TO.N,Net-(J1-Pin_2)*%
X172134850Y-91285600D02*
X172220650Y-91371400D01*
X172134850Y-91244400D02*
X172134850Y-91285600D01*
%TO.N,Net-(J1-Pin_1)*%
X171128450Y-95308400D02*
X171026850Y-95308400D01*
%TO.N,+5V*%
X164422850Y-87155000D02*
X169502850Y-87155000D01*
%TO.N,Net-(J2-Pin_1)*%
X178799250Y-89974400D02*
X177122850Y-88298000D01*
D15*
%TO.N,GND*%
X168240850Y-97805600D02*
X176149650Y-97805600D01*
D16*
%TO.N,Net-(J2-Pin_1)*%
X178799250Y-93530400D02*
X178799250Y-89974400D01*
%TO.N,Net-(J1-Pin_1)*%
X171534850Y-94902000D02*
X171128450Y-95308400D01*
%TO.N,Net-(J1-Pin_3)*%
X173109650Y-95003600D02*
X174760650Y-96654600D01*
%TO.N,Net-(J1-Pin_1)*%
X171534850Y-90355400D02*
X171534850Y-94902000D01*
%TO.N,+5V*%
X157412450Y-89085400D02*
X163559250Y-89085400D01*
X163559250Y-89085400D02*
X164372050Y-88272600D01*
X156066250Y-90431600D02*
X157412450Y-89085400D01*
%TO.N,Net-(J2-Pin_2)*%
X175344850Y-92133400D02*
X174582850Y-91371400D01*
D15*
%TO.N,GND*%
X167760050Y-129152200D02*
X175668850Y-129152200D01*
X125333400Y-129026400D02*
X133242200Y-129026400D01*
%TD*%
M02*
