%TF.GenerationSoftware,KiCad,Pcbnew,9.0.2*%
%TF.CreationDate,2025-11-07T14:57:23+01:00*%
%TF.ProjectId,Digispark_USB_Panel,44696769-7370-4617-926b-5f5553425f50,rev?*%
%TF.SameCoordinates,Original*%
%TF.FileFunction,Legend,Top*%
%TF.FilePolarity,Positive*%
%FSLAX46Y46*%
G04 Gerber Fmt 4.6, Leading zero omitted, Abs format (unit mm)*
G04 Created by KiCad (PCBNEW 9.0.2) date 2025-11-07 14:57:23*
%MOMM*%
%LPD*%
G01*
G04 APERTURE LIST*
%ADD10C,0.150000*%
%ADD11C,0.100000*%
%ADD12C,0.120000*%
G04 APERTURE END LIST*
D10*
X123026183Y-107514419D02*
X122692850Y-107038228D01*
X122454755Y-107514419D02*
X122454755Y-106514419D01*
X122454755Y-106514419D02*
X122835707Y-106514419D01*
X122835707Y-106514419D02*
X122930945Y-106562038D01*
X122930945Y-106562038D02*
X122978564Y-106609657D01*
X122978564Y-106609657D02*
X123026183Y-106704895D01*
X123026183Y-106704895D02*
X123026183Y-106847752D01*
X123026183Y-106847752D02*
X122978564Y-106942990D01*
X122978564Y-106942990D02*
X122930945Y-106990609D01*
X122930945Y-106990609D02*
X122835707Y-107038228D01*
X122835707Y-107038228D02*
X122454755Y-107038228D01*
X123407136Y-106609657D02*
X123454755Y-106562038D01*
X123454755Y-106562038D02*
X123549993Y-106514419D01*
X123549993Y-106514419D02*
X123788088Y-106514419D01*
X123788088Y-106514419D02*
X123883326Y-106562038D01*
X123883326Y-106562038D02*
X123930945Y-106609657D01*
X123930945Y-106609657D02*
X123978564Y-106704895D01*
X123978564Y-106704895D02*
X123978564Y-106800133D01*
X123978564Y-106800133D02*
X123930945Y-106942990D01*
X123930945Y-106942990D02*
X123359517Y-107514419D01*
X123359517Y-107514419D02*
X123978564Y-107514419D01*
D11*
X109673545Y-101030619D02*
X109673545Y-101840142D01*
X109673545Y-101840142D02*
X109721164Y-101935380D01*
X109721164Y-101935380D02*
X109768783Y-101983000D01*
X109768783Y-101983000D02*
X109864021Y-102030619D01*
X109864021Y-102030619D02*
X110054497Y-102030619D01*
X110054497Y-102030619D02*
X110149735Y-101983000D01*
X110149735Y-101983000D02*
X110197354Y-101935380D01*
X110197354Y-101935380D02*
X110244973Y-101840142D01*
X110244973Y-101840142D02*
X110244973Y-101030619D01*
X111244973Y-102030619D02*
X110673545Y-102030619D01*
X110959259Y-102030619D02*
X110959259Y-101030619D01*
X110959259Y-101030619D02*
X110864021Y-101173476D01*
X110864021Y-101173476D02*
X110768783Y-101268714D01*
X110768783Y-101268714D02*
X110673545Y-101316333D01*
X111958534Y-110910419D02*
X111958534Y-111719942D01*
X111958534Y-111719942D02*
X112006153Y-111815180D01*
X112006153Y-111815180D02*
X112053772Y-111862800D01*
X112053772Y-111862800D02*
X112149010Y-111910419D01*
X112149010Y-111910419D02*
X112339486Y-111910419D01*
X112339486Y-111910419D02*
X112434724Y-111862800D01*
X112434724Y-111862800D02*
X112482343Y-111815180D01*
X112482343Y-111815180D02*
X112529962Y-111719942D01*
X112529962Y-111719942D02*
X112529962Y-110910419D01*
X112958534Y-111862800D02*
X113101391Y-111910419D01*
X113101391Y-111910419D02*
X113339486Y-111910419D01*
X113339486Y-111910419D02*
X113434724Y-111862800D01*
X113434724Y-111862800D02*
X113482343Y-111815180D01*
X113482343Y-111815180D02*
X113529962Y-111719942D01*
X113529962Y-111719942D02*
X113529962Y-111624704D01*
X113529962Y-111624704D02*
X113482343Y-111529466D01*
X113482343Y-111529466D02*
X113434724Y-111481847D01*
X113434724Y-111481847D02*
X113339486Y-111434228D01*
X113339486Y-111434228D02*
X113149010Y-111386609D01*
X113149010Y-111386609D02*
X113053772Y-111338990D01*
X113053772Y-111338990D02*
X113006153Y-111291371D01*
X113006153Y-111291371D02*
X112958534Y-111196133D01*
X112958534Y-111196133D02*
X112958534Y-111100895D01*
X112958534Y-111100895D02*
X113006153Y-111005657D01*
X113006153Y-111005657D02*
X113053772Y-110958038D01*
X113053772Y-110958038D02*
X113149010Y-110910419D01*
X113149010Y-110910419D02*
X113387105Y-110910419D01*
X113387105Y-110910419D02*
X113529962Y-110958038D01*
X114291867Y-111386609D02*
X114434724Y-111434228D01*
X114434724Y-111434228D02*
X114482343Y-111481847D01*
X114482343Y-111481847D02*
X114529962Y-111577085D01*
X114529962Y-111577085D02*
X114529962Y-111719942D01*
X114529962Y-111719942D02*
X114482343Y-111815180D01*
X114482343Y-111815180D02*
X114434724Y-111862800D01*
X114434724Y-111862800D02*
X114339486Y-111910419D01*
X114339486Y-111910419D02*
X113958534Y-111910419D01*
X113958534Y-111910419D02*
X113958534Y-110910419D01*
X113958534Y-110910419D02*
X114291867Y-110910419D01*
X114291867Y-110910419D02*
X114387105Y-110958038D01*
X114387105Y-110958038D02*
X114434724Y-111005657D01*
X114434724Y-111005657D02*
X114482343Y-111100895D01*
X114482343Y-111100895D02*
X114482343Y-111196133D01*
X114482343Y-111196133D02*
X114434724Y-111291371D01*
X114434724Y-111291371D02*
X114387105Y-111338990D01*
X114387105Y-111338990D02*
X114291867Y-111386609D01*
X114291867Y-111386609D02*
X113958534Y-111386609D01*
D10*
X136120869Y-102820933D02*
X136835154Y-102820933D01*
X136835154Y-102820933D02*
X136978011Y-102868552D01*
X136978011Y-102868552D02*
X137073250Y-102963790D01*
X137073250Y-102963790D02*
X137120869Y-103106647D01*
X137120869Y-103106647D02*
X137120869Y-103201885D01*
X136216107Y-102392361D02*
X136168488Y-102344742D01*
X136168488Y-102344742D02*
X136120869Y-102249504D01*
X136120869Y-102249504D02*
X136120869Y-102011409D01*
X136120869Y-102011409D02*
X136168488Y-101916171D01*
X136168488Y-101916171D02*
X136216107Y-101868552D01*
X136216107Y-101868552D02*
X136311345Y-101820933D01*
X136311345Y-101820933D02*
X136406583Y-101820933D01*
X136406583Y-101820933D02*
X136549440Y-101868552D01*
X136549440Y-101868552D02*
X137120869Y-102439980D01*
X137120869Y-102439980D02*
X137120869Y-101820933D01*
X114104183Y-101856580D02*
X114056564Y-101904200D01*
X114056564Y-101904200D02*
X113913707Y-101951819D01*
X113913707Y-101951819D02*
X113818469Y-101951819D01*
X113818469Y-101951819D02*
X113675612Y-101904200D01*
X113675612Y-101904200D02*
X113580374Y-101808961D01*
X113580374Y-101808961D02*
X113532755Y-101713723D01*
X113532755Y-101713723D02*
X113485136Y-101523247D01*
X113485136Y-101523247D02*
X113485136Y-101380390D01*
X113485136Y-101380390D02*
X113532755Y-101189914D01*
X113532755Y-101189914D02*
X113580374Y-101094676D01*
X113580374Y-101094676D02*
X113675612Y-100999438D01*
X113675612Y-100999438D02*
X113818469Y-100951819D01*
X113818469Y-100951819D02*
X113913707Y-100951819D01*
X113913707Y-100951819D02*
X114056564Y-100999438D01*
X114056564Y-100999438D02*
X114104183Y-101047057D01*
X115056564Y-101951819D02*
X114485136Y-101951819D01*
X114770850Y-101951819D02*
X114770850Y-100951819D01*
X114770850Y-100951819D02*
X114675612Y-101094676D01*
X114675612Y-101094676D02*
X114580374Y-101189914D01*
X114580374Y-101189914D02*
X114485136Y-101237533D01*
X135632345Y-107276419D02*
X135632345Y-108085942D01*
X135632345Y-108085942D02*
X135679964Y-108181180D01*
X135679964Y-108181180D02*
X135727583Y-108228800D01*
X135727583Y-108228800D02*
X135822821Y-108276419D01*
X135822821Y-108276419D02*
X136013297Y-108276419D01*
X136013297Y-108276419D02*
X136108535Y-108228800D01*
X136108535Y-108228800D02*
X136156154Y-108181180D01*
X136156154Y-108181180D02*
X136203773Y-108085942D01*
X136203773Y-108085942D02*
X136203773Y-107276419D01*
X136632345Y-107371657D02*
X136679964Y-107324038D01*
X136679964Y-107324038D02*
X136775202Y-107276419D01*
X136775202Y-107276419D02*
X137013297Y-107276419D01*
X137013297Y-107276419D02*
X137108535Y-107324038D01*
X137108535Y-107324038D02*
X137156154Y-107371657D01*
X137156154Y-107371657D02*
X137203773Y-107466895D01*
X137203773Y-107466895D02*
X137203773Y-107562133D01*
X137203773Y-107562133D02*
X137156154Y-107704990D01*
X137156154Y-107704990D02*
X136584726Y-108276419D01*
X136584726Y-108276419D02*
X137203773Y-108276419D01*
X116987155Y-113559619D02*
X116987155Y-112559619D01*
X116987155Y-112559619D02*
X117225250Y-112559619D01*
X117225250Y-112559619D02*
X117368107Y-112607238D01*
X117368107Y-112607238D02*
X117463345Y-112702476D01*
X117463345Y-112702476D02*
X117510964Y-112797714D01*
X117510964Y-112797714D02*
X117558583Y-112988190D01*
X117558583Y-112988190D02*
X117558583Y-113131047D01*
X117558583Y-113131047D02*
X117510964Y-113321523D01*
X117510964Y-113321523D02*
X117463345Y-113416761D01*
X117463345Y-113416761D02*
X117368107Y-113512000D01*
X117368107Y-113512000D02*
X117225250Y-113559619D01*
X117225250Y-113559619D02*
X116987155Y-113559619D01*
X118510964Y-113559619D02*
X117939536Y-113559619D01*
X118225250Y-113559619D02*
X118225250Y-112559619D01*
X118225250Y-112559619D02*
X118130012Y-112702476D01*
X118130012Y-112702476D02*
X118034774Y-112797714D01*
X118034774Y-112797714D02*
X117939536Y-112845333D01*
X136606869Y-111887094D02*
X135606869Y-111887094D01*
X135606869Y-111887094D02*
X135606869Y-111648999D01*
X135606869Y-111648999D02*
X135654488Y-111506142D01*
X135654488Y-111506142D02*
X135749726Y-111410904D01*
X135749726Y-111410904D02*
X135844964Y-111363285D01*
X135844964Y-111363285D02*
X136035440Y-111315666D01*
X136035440Y-111315666D02*
X136178297Y-111315666D01*
X136178297Y-111315666D02*
X136368773Y-111363285D01*
X136368773Y-111363285D02*
X136464011Y-111410904D01*
X136464011Y-111410904D02*
X136559250Y-111506142D01*
X136559250Y-111506142D02*
X136606869Y-111648999D01*
X136606869Y-111648999D02*
X136606869Y-111887094D01*
X135606869Y-110982332D02*
X135606869Y-110363285D01*
X135606869Y-110363285D02*
X135987821Y-110696618D01*
X135987821Y-110696618D02*
X135987821Y-110553761D01*
X135987821Y-110553761D02*
X136035440Y-110458523D01*
X136035440Y-110458523D02*
X136083059Y-110410904D01*
X136083059Y-110410904D02*
X136178297Y-110363285D01*
X136178297Y-110363285D02*
X136416392Y-110363285D01*
X136416392Y-110363285D02*
X136511630Y-110410904D01*
X136511630Y-110410904D02*
X136559250Y-110458523D01*
X136559250Y-110458523D02*
X136606869Y-110553761D01*
X136606869Y-110553761D02*
X136606869Y-110839475D01*
X136606869Y-110839475D02*
X136559250Y-110934713D01*
X136559250Y-110934713D02*
X136511630Y-110982332D01*
X119704955Y-112924619D02*
X119704955Y-111924619D01*
X119704955Y-111924619D02*
X119943050Y-111924619D01*
X119943050Y-111924619D02*
X120085907Y-111972238D01*
X120085907Y-111972238D02*
X120181145Y-112067476D01*
X120181145Y-112067476D02*
X120228764Y-112162714D01*
X120228764Y-112162714D02*
X120276383Y-112353190D01*
X120276383Y-112353190D02*
X120276383Y-112496047D01*
X120276383Y-112496047D02*
X120228764Y-112686523D01*
X120228764Y-112686523D02*
X120181145Y-112781761D01*
X120181145Y-112781761D02*
X120085907Y-112877000D01*
X120085907Y-112877000D02*
X119943050Y-112924619D01*
X119943050Y-112924619D02*
X119704955Y-112924619D01*
X120657336Y-112019857D02*
X120704955Y-111972238D01*
X120704955Y-111972238D02*
X120800193Y-111924619D01*
X120800193Y-111924619D02*
X121038288Y-111924619D01*
X121038288Y-111924619D02*
X121133526Y-111972238D01*
X121133526Y-111972238D02*
X121181145Y-112019857D01*
X121181145Y-112019857D02*
X121228764Y-112115095D01*
X121228764Y-112115095D02*
X121228764Y-112210333D01*
X121228764Y-112210333D02*
X121181145Y-112353190D01*
X121181145Y-112353190D02*
X120609717Y-112924619D01*
X120609717Y-112924619D02*
X121228764Y-112924619D01*
X137903983Y-104416619D02*
X137570650Y-103940428D01*
X137332555Y-104416619D02*
X137332555Y-103416619D01*
X137332555Y-103416619D02*
X137713507Y-103416619D01*
X137713507Y-103416619D02*
X137808745Y-103464238D01*
X137808745Y-103464238D02*
X137856364Y-103511857D01*
X137856364Y-103511857D02*
X137903983Y-103607095D01*
X137903983Y-103607095D02*
X137903983Y-103749952D01*
X137903983Y-103749952D02*
X137856364Y-103845190D01*
X137856364Y-103845190D02*
X137808745Y-103892809D01*
X137808745Y-103892809D02*
X137713507Y-103940428D01*
X137713507Y-103940428D02*
X137332555Y-103940428D01*
X138237317Y-103416619D02*
X138856364Y-103416619D01*
X138856364Y-103416619D02*
X138523031Y-103797571D01*
X138523031Y-103797571D02*
X138665888Y-103797571D01*
X138665888Y-103797571D02*
X138761126Y-103845190D01*
X138761126Y-103845190D02*
X138808745Y-103892809D01*
X138808745Y-103892809D02*
X138856364Y-103988047D01*
X138856364Y-103988047D02*
X138856364Y-104226142D01*
X138856364Y-104226142D02*
X138808745Y-104321380D01*
X138808745Y-104321380D02*
X138761126Y-104369000D01*
X138761126Y-104369000D02*
X138665888Y-104416619D01*
X138665888Y-104416619D02*
X138380174Y-104416619D01*
X138380174Y-104416619D02*
X138284936Y-104369000D01*
X138284936Y-104369000D02*
X138237317Y-104321380D01*
X118930183Y-101901019D02*
X118596850Y-101424828D01*
X118358755Y-101901019D02*
X118358755Y-100901019D01*
X118358755Y-100901019D02*
X118739707Y-100901019D01*
X118739707Y-100901019D02*
X118834945Y-100948638D01*
X118834945Y-100948638D02*
X118882564Y-100996257D01*
X118882564Y-100996257D02*
X118930183Y-101091495D01*
X118930183Y-101091495D02*
X118930183Y-101234352D01*
X118930183Y-101234352D02*
X118882564Y-101329590D01*
X118882564Y-101329590D02*
X118834945Y-101377209D01*
X118834945Y-101377209D02*
X118739707Y-101424828D01*
X118739707Y-101424828D02*
X118358755Y-101424828D01*
X119787326Y-101234352D02*
X119787326Y-101901019D01*
X119549231Y-100853400D02*
X119311136Y-101567685D01*
X119311136Y-101567685D02*
X119930183Y-101567685D01*
X122857783Y-104035619D02*
X122524450Y-103559428D01*
X122286355Y-104035619D02*
X122286355Y-103035619D01*
X122286355Y-103035619D02*
X122667307Y-103035619D01*
X122667307Y-103035619D02*
X122762545Y-103083238D01*
X122762545Y-103083238D02*
X122810164Y-103130857D01*
X122810164Y-103130857D02*
X122857783Y-103226095D01*
X122857783Y-103226095D02*
X122857783Y-103368952D01*
X122857783Y-103368952D02*
X122810164Y-103464190D01*
X122810164Y-103464190D02*
X122762545Y-103511809D01*
X122762545Y-103511809D02*
X122667307Y-103559428D01*
X122667307Y-103559428D02*
X122286355Y-103559428D01*
X123810164Y-104035619D02*
X123238736Y-104035619D01*
X123524450Y-104035619D02*
X123524450Y-103035619D01*
X123524450Y-103035619D02*
X123429212Y-103178476D01*
X123429212Y-103178476D02*
X123333974Y-103273714D01*
X123333974Y-103273714D02*
X123238736Y-103321333D01*
X123918669Y-112320533D02*
X124632954Y-112320533D01*
X124632954Y-112320533D02*
X124775811Y-112368152D01*
X124775811Y-112368152D02*
X124871050Y-112463390D01*
X124871050Y-112463390D02*
X124918669Y-112606247D01*
X124918669Y-112606247D02*
X124918669Y-112701485D01*
X124918669Y-111320533D02*
X124918669Y-111891961D01*
X124918669Y-111606247D02*
X123918669Y-111606247D01*
X123918669Y-111606247D02*
X124061526Y-111701485D01*
X124061526Y-111701485D02*
X124156764Y-111796723D01*
X124156764Y-111796723D02*
X124204383Y-111891961D01*
X123506983Y-76167819D02*
X123173650Y-75691628D01*
X122935555Y-76167819D02*
X122935555Y-75167819D01*
X122935555Y-75167819D02*
X123316507Y-75167819D01*
X123316507Y-75167819D02*
X123411745Y-75215438D01*
X123411745Y-75215438D02*
X123459364Y-75263057D01*
X123459364Y-75263057D02*
X123506983Y-75358295D01*
X123506983Y-75358295D02*
X123506983Y-75501152D01*
X123506983Y-75501152D02*
X123459364Y-75596390D01*
X123459364Y-75596390D02*
X123411745Y-75644009D01*
X123411745Y-75644009D02*
X123316507Y-75691628D01*
X123316507Y-75691628D02*
X122935555Y-75691628D01*
X123887936Y-75263057D02*
X123935555Y-75215438D01*
X123935555Y-75215438D02*
X124030793Y-75167819D01*
X124030793Y-75167819D02*
X124268888Y-75167819D01*
X124268888Y-75167819D02*
X124364126Y-75215438D01*
X124364126Y-75215438D02*
X124411745Y-75263057D01*
X124411745Y-75263057D02*
X124459364Y-75358295D01*
X124459364Y-75358295D02*
X124459364Y-75453533D01*
X124459364Y-75453533D02*
X124411745Y-75596390D01*
X124411745Y-75596390D02*
X123840317Y-76167819D01*
X123840317Y-76167819D02*
X124459364Y-76167819D01*
X118859533Y-117789219D02*
X118526200Y-117313028D01*
X118288105Y-117789219D02*
X118288105Y-116789219D01*
X118288105Y-116789219D02*
X118669057Y-116789219D01*
X118669057Y-116789219D02*
X118764295Y-116836838D01*
X118764295Y-116836838D02*
X118811914Y-116884457D01*
X118811914Y-116884457D02*
X118859533Y-116979695D01*
X118859533Y-116979695D02*
X118859533Y-117122552D01*
X118859533Y-117122552D02*
X118811914Y-117217790D01*
X118811914Y-117217790D02*
X118764295Y-117265409D01*
X118764295Y-117265409D02*
X118669057Y-117313028D01*
X118669057Y-117313028D02*
X118288105Y-117313028D01*
X119716676Y-117122552D02*
X119716676Y-117789219D01*
X119478581Y-116741600D02*
X119240486Y-117455885D01*
X119240486Y-117455885D02*
X119859533Y-117455885D01*
D11*
X109602895Y-116918819D02*
X109602895Y-117728342D01*
X109602895Y-117728342D02*
X109650514Y-117823580D01*
X109650514Y-117823580D02*
X109698133Y-117871200D01*
X109698133Y-117871200D02*
X109793371Y-117918819D01*
X109793371Y-117918819D02*
X109983847Y-117918819D01*
X109983847Y-117918819D02*
X110079085Y-117871200D01*
X110079085Y-117871200D02*
X110126704Y-117823580D01*
X110126704Y-117823580D02*
X110174323Y-117728342D01*
X110174323Y-117728342D02*
X110174323Y-116918819D01*
X111174323Y-117918819D02*
X110602895Y-117918819D01*
X110888609Y-117918819D02*
X110888609Y-116918819D01*
X110888609Y-116918819D02*
X110793371Y-117061676D01*
X110793371Y-117061676D02*
X110698133Y-117156914D01*
X110698133Y-117156914D02*
X110602895Y-117204533D01*
X111887884Y-126798619D02*
X111887884Y-127608142D01*
X111887884Y-127608142D02*
X111935503Y-127703380D01*
X111935503Y-127703380D02*
X111983122Y-127751000D01*
X111983122Y-127751000D02*
X112078360Y-127798619D01*
X112078360Y-127798619D02*
X112268836Y-127798619D01*
X112268836Y-127798619D02*
X112364074Y-127751000D01*
X112364074Y-127751000D02*
X112411693Y-127703380D01*
X112411693Y-127703380D02*
X112459312Y-127608142D01*
X112459312Y-127608142D02*
X112459312Y-126798619D01*
X112887884Y-127751000D02*
X113030741Y-127798619D01*
X113030741Y-127798619D02*
X113268836Y-127798619D01*
X113268836Y-127798619D02*
X113364074Y-127751000D01*
X113364074Y-127751000D02*
X113411693Y-127703380D01*
X113411693Y-127703380D02*
X113459312Y-127608142D01*
X113459312Y-127608142D02*
X113459312Y-127512904D01*
X113459312Y-127512904D02*
X113411693Y-127417666D01*
X113411693Y-127417666D02*
X113364074Y-127370047D01*
X113364074Y-127370047D02*
X113268836Y-127322428D01*
X113268836Y-127322428D02*
X113078360Y-127274809D01*
X113078360Y-127274809D02*
X112983122Y-127227190D01*
X112983122Y-127227190D02*
X112935503Y-127179571D01*
X112935503Y-127179571D02*
X112887884Y-127084333D01*
X112887884Y-127084333D02*
X112887884Y-126989095D01*
X112887884Y-126989095D02*
X112935503Y-126893857D01*
X112935503Y-126893857D02*
X112983122Y-126846238D01*
X112983122Y-126846238D02*
X113078360Y-126798619D01*
X113078360Y-126798619D02*
X113316455Y-126798619D01*
X113316455Y-126798619D02*
X113459312Y-126846238D01*
X114221217Y-127274809D02*
X114364074Y-127322428D01*
X114364074Y-127322428D02*
X114411693Y-127370047D01*
X114411693Y-127370047D02*
X114459312Y-127465285D01*
X114459312Y-127465285D02*
X114459312Y-127608142D01*
X114459312Y-127608142D02*
X114411693Y-127703380D01*
X114411693Y-127703380D02*
X114364074Y-127751000D01*
X114364074Y-127751000D02*
X114268836Y-127798619D01*
X114268836Y-127798619D02*
X113887884Y-127798619D01*
X113887884Y-127798619D02*
X113887884Y-126798619D01*
X113887884Y-126798619D02*
X114221217Y-126798619D01*
X114221217Y-126798619D02*
X114316455Y-126846238D01*
X114316455Y-126846238D02*
X114364074Y-126893857D01*
X114364074Y-126893857D02*
X114411693Y-126989095D01*
X114411693Y-126989095D02*
X114411693Y-127084333D01*
X114411693Y-127084333D02*
X114364074Y-127179571D01*
X114364074Y-127179571D02*
X114316455Y-127227190D01*
X114316455Y-127227190D02*
X114221217Y-127274809D01*
X114221217Y-127274809D02*
X113887884Y-127274809D01*
D10*
X114033533Y-117744780D02*
X113985914Y-117792400D01*
X113985914Y-117792400D02*
X113843057Y-117840019D01*
X113843057Y-117840019D02*
X113747819Y-117840019D01*
X113747819Y-117840019D02*
X113604962Y-117792400D01*
X113604962Y-117792400D02*
X113509724Y-117697161D01*
X113509724Y-117697161D02*
X113462105Y-117601923D01*
X113462105Y-117601923D02*
X113414486Y-117411447D01*
X113414486Y-117411447D02*
X113414486Y-117268590D01*
X113414486Y-117268590D02*
X113462105Y-117078114D01*
X113462105Y-117078114D02*
X113509724Y-116982876D01*
X113509724Y-116982876D02*
X113604962Y-116887638D01*
X113604962Y-116887638D02*
X113747819Y-116840019D01*
X113747819Y-116840019D02*
X113843057Y-116840019D01*
X113843057Y-116840019D02*
X113985914Y-116887638D01*
X113985914Y-116887638D02*
X114033533Y-116935257D01*
X114985914Y-117840019D02*
X114414486Y-117840019D01*
X114700200Y-117840019D02*
X114700200Y-116840019D01*
X114700200Y-116840019D02*
X114604962Y-116982876D01*
X114604962Y-116982876D02*
X114509724Y-117078114D01*
X114509724Y-117078114D02*
X114414486Y-117125733D01*
X119634305Y-128812819D02*
X119634305Y-127812819D01*
X119634305Y-127812819D02*
X119872400Y-127812819D01*
X119872400Y-127812819D02*
X120015257Y-127860438D01*
X120015257Y-127860438D02*
X120110495Y-127955676D01*
X120110495Y-127955676D02*
X120158114Y-128050914D01*
X120158114Y-128050914D02*
X120205733Y-128241390D01*
X120205733Y-128241390D02*
X120205733Y-128384247D01*
X120205733Y-128384247D02*
X120158114Y-128574723D01*
X120158114Y-128574723D02*
X120110495Y-128669961D01*
X120110495Y-128669961D02*
X120015257Y-128765200D01*
X120015257Y-128765200D02*
X119872400Y-128812819D01*
X119872400Y-128812819D02*
X119634305Y-128812819D01*
X120586686Y-127908057D02*
X120634305Y-127860438D01*
X120634305Y-127860438D02*
X120729543Y-127812819D01*
X120729543Y-127812819D02*
X120967638Y-127812819D01*
X120967638Y-127812819D02*
X121062876Y-127860438D01*
X121062876Y-127860438D02*
X121110495Y-127908057D01*
X121110495Y-127908057D02*
X121158114Y-128003295D01*
X121158114Y-128003295D02*
X121158114Y-128098533D01*
X121158114Y-128098533D02*
X121110495Y-128241390D01*
X121110495Y-128241390D02*
X120539067Y-128812819D01*
X120539067Y-128812819D02*
X121158114Y-128812819D01*
X135561695Y-123164619D02*
X135561695Y-123974142D01*
X135561695Y-123974142D02*
X135609314Y-124069380D01*
X135609314Y-124069380D02*
X135656933Y-124117000D01*
X135656933Y-124117000D02*
X135752171Y-124164619D01*
X135752171Y-124164619D02*
X135942647Y-124164619D01*
X135942647Y-124164619D02*
X136037885Y-124117000D01*
X136037885Y-124117000D02*
X136085504Y-124069380D01*
X136085504Y-124069380D02*
X136133123Y-123974142D01*
X136133123Y-123974142D02*
X136133123Y-123164619D01*
X136561695Y-123259857D02*
X136609314Y-123212238D01*
X136609314Y-123212238D02*
X136704552Y-123164619D01*
X136704552Y-123164619D02*
X136942647Y-123164619D01*
X136942647Y-123164619D02*
X137037885Y-123212238D01*
X137037885Y-123212238D02*
X137085504Y-123259857D01*
X137085504Y-123259857D02*
X137133123Y-123355095D01*
X137133123Y-123355095D02*
X137133123Y-123450333D01*
X137133123Y-123450333D02*
X137085504Y-123593190D01*
X137085504Y-123593190D02*
X136514076Y-124164619D01*
X136514076Y-124164619D02*
X137133123Y-124164619D01*
X122955533Y-123402619D02*
X122622200Y-122926428D01*
X122384105Y-123402619D02*
X122384105Y-122402619D01*
X122384105Y-122402619D02*
X122765057Y-122402619D01*
X122765057Y-122402619D02*
X122860295Y-122450238D01*
X122860295Y-122450238D02*
X122907914Y-122497857D01*
X122907914Y-122497857D02*
X122955533Y-122593095D01*
X122955533Y-122593095D02*
X122955533Y-122735952D01*
X122955533Y-122735952D02*
X122907914Y-122831190D01*
X122907914Y-122831190D02*
X122860295Y-122878809D01*
X122860295Y-122878809D02*
X122765057Y-122926428D01*
X122765057Y-122926428D02*
X122384105Y-122926428D01*
X123336486Y-122497857D02*
X123384105Y-122450238D01*
X123384105Y-122450238D02*
X123479343Y-122402619D01*
X123479343Y-122402619D02*
X123717438Y-122402619D01*
X123717438Y-122402619D02*
X123812676Y-122450238D01*
X123812676Y-122450238D02*
X123860295Y-122497857D01*
X123860295Y-122497857D02*
X123907914Y-122593095D01*
X123907914Y-122593095D02*
X123907914Y-122688333D01*
X123907914Y-122688333D02*
X123860295Y-122831190D01*
X123860295Y-122831190D02*
X123288867Y-123402619D01*
X123288867Y-123402619D02*
X123907914Y-123402619D01*
X136050219Y-118709133D02*
X136764504Y-118709133D01*
X136764504Y-118709133D02*
X136907361Y-118756752D01*
X136907361Y-118756752D02*
X137002600Y-118851990D01*
X137002600Y-118851990D02*
X137050219Y-118994847D01*
X137050219Y-118994847D02*
X137050219Y-119090085D01*
X136145457Y-118280561D02*
X136097838Y-118232942D01*
X136097838Y-118232942D02*
X136050219Y-118137704D01*
X136050219Y-118137704D02*
X136050219Y-117899609D01*
X136050219Y-117899609D02*
X136097838Y-117804371D01*
X136097838Y-117804371D02*
X136145457Y-117756752D01*
X136145457Y-117756752D02*
X136240695Y-117709133D01*
X136240695Y-117709133D02*
X136335933Y-117709133D01*
X136335933Y-117709133D02*
X136478790Y-117756752D01*
X136478790Y-117756752D02*
X137050219Y-118328180D01*
X137050219Y-118328180D02*
X137050219Y-117709133D01*
X136536219Y-127775294D02*
X135536219Y-127775294D01*
X135536219Y-127775294D02*
X135536219Y-127537199D01*
X135536219Y-127537199D02*
X135583838Y-127394342D01*
X135583838Y-127394342D02*
X135679076Y-127299104D01*
X135679076Y-127299104D02*
X135774314Y-127251485D01*
X135774314Y-127251485D02*
X135964790Y-127203866D01*
X135964790Y-127203866D02*
X136107647Y-127203866D01*
X136107647Y-127203866D02*
X136298123Y-127251485D01*
X136298123Y-127251485D02*
X136393361Y-127299104D01*
X136393361Y-127299104D02*
X136488600Y-127394342D01*
X136488600Y-127394342D02*
X136536219Y-127537199D01*
X136536219Y-127537199D02*
X136536219Y-127775294D01*
X135536219Y-126870532D02*
X135536219Y-126251485D01*
X135536219Y-126251485D02*
X135917171Y-126584818D01*
X135917171Y-126584818D02*
X135917171Y-126441961D01*
X135917171Y-126441961D02*
X135964790Y-126346723D01*
X135964790Y-126346723D02*
X136012409Y-126299104D01*
X136012409Y-126299104D02*
X136107647Y-126251485D01*
X136107647Y-126251485D02*
X136345742Y-126251485D01*
X136345742Y-126251485D02*
X136440980Y-126299104D01*
X136440980Y-126299104D02*
X136488600Y-126346723D01*
X136488600Y-126346723D02*
X136536219Y-126441961D01*
X136536219Y-126441961D02*
X136536219Y-126727675D01*
X136536219Y-126727675D02*
X136488600Y-126822913D01*
X136488600Y-126822913D02*
X136440980Y-126870532D01*
X137833333Y-120304819D02*
X137500000Y-119828628D01*
X137261905Y-120304819D02*
X137261905Y-119304819D01*
X137261905Y-119304819D02*
X137642857Y-119304819D01*
X137642857Y-119304819D02*
X137738095Y-119352438D01*
X137738095Y-119352438D02*
X137785714Y-119400057D01*
X137785714Y-119400057D02*
X137833333Y-119495295D01*
X137833333Y-119495295D02*
X137833333Y-119638152D01*
X137833333Y-119638152D02*
X137785714Y-119733390D01*
X137785714Y-119733390D02*
X137738095Y-119781009D01*
X137738095Y-119781009D02*
X137642857Y-119828628D01*
X137642857Y-119828628D02*
X137261905Y-119828628D01*
X138166667Y-119304819D02*
X138785714Y-119304819D01*
X138785714Y-119304819D02*
X138452381Y-119685771D01*
X138452381Y-119685771D02*
X138595238Y-119685771D01*
X138595238Y-119685771D02*
X138690476Y-119733390D01*
X138690476Y-119733390D02*
X138738095Y-119781009D01*
X138738095Y-119781009D02*
X138785714Y-119876247D01*
X138785714Y-119876247D02*
X138785714Y-120114342D01*
X138785714Y-120114342D02*
X138738095Y-120209580D01*
X138738095Y-120209580D02*
X138690476Y-120257200D01*
X138690476Y-120257200D02*
X138595238Y-120304819D01*
X138595238Y-120304819D02*
X138309524Y-120304819D01*
X138309524Y-120304819D02*
X138214286Y-120257200D01*
X138214286Y-120257200D02*
X138166667Y-120209580D01*
X116916505Y-129447819D02*
X116916505Y-128447819D01*
X116916505Y-128447819D02*
X117154600Y-128447819D01*
X117154600Y-128447819D02*
X117297457Y-128495438D01*
X117297457Y-128495438D02*
X117392695Y-128590676D01*
X117392695Y-128590676D02*
X117440314Y-128685914D01*
X117440314Y-128685914D02*
X117487933Y-128876390D01*
X117487933Y-128876390D02*
X117487933Y-129019247D01*
X117487933Y-129019247D02*
X117440314Y-129209723D01*
X117440314Y-129209723D02*
X117392695Y-129304961D01*
X117392695Y-129304961D02*
X117297457Y-129400200D01*
X117297457Y-129400200D02*
X117154600Y-129447819D01*
X117154600Y-129447819D02*
X116916505Y-129447819D01*
X118440314Y-129447819D02*
X117868886Y-129447819D01*
X118154600Y-129447819D02*
X118154600Y-128447819D01*
X118154600Y-128447819D02*
X118059362Y-128590676D01*
X118059362Y-128590676D02*
X117964124Y-128685914D01*
X117964124Y-128685914D02*
X117868886Y-128733533D01*
X122787133Y-119923819D02*
X122453800Y-119447628D01*
X122215705Y-119923819D02*
X122215705Y-118923819D01*
X122215705Y-118923819D02*
X122596657Y-118923819D01*
X122596657Y-118923819D02*
X122691895Y-118971438D01*
X122691895Y-118971438D02*
X122739514Y-119019057D01*
X122739514Y-119019057D02*
X122787133Y-119114295D01*
X122787133Y-119114295D02*
X122787133Y-119257152D01*
X122787133Y-119257152D02*
X122739514Y-119352390D01*
X122739514Y-119352390D02*
X122691895Y-119400009D01*
X122691895Y-119400009D02*
X122596657Y-119447628D01*
X122596657Y-119447628D02*
X122215705Y-119447628D01*
X123739514Y-119923819D02*
X123168086Y-119923819D01*
X123453800Y-119923819D02*
X123453800Y-118923819D01*
X123453800Y-118923819D02*
X123358562Y-119066676D01*
X123358562Y-119066676D02*
X123263324Y-119161914D01*
X123263324Y-119161914D02*
X123168086Y-119209533D01*
X123848019Y-128208733D02*
X124562304Y-128208733D01*
X124562304Y-128208733D02*
X124705161Y-128256352D01*
X124705161Y-128256352D02*
X124800400Y-128351590D01*
X124800400Y-128351590D02*
X124848019Y-128494447D01*
X124848019Y-128494447D02*
X124848019Y-128589685D01*
X124848019Y-127208733D02*
X124848019Y-127780161D01*
X124848019Y-127494447D02*
X123848019Y-127494447D01*
X123848019Y-127494447D02*
X123990876Y-127589685D01*
X123990876Y-127589685D02*
X124086114Y-127684923D01*
X124086114Y-127684923D02*
X124133733Y-127780161D01*
X120185755Y-81578019D02*
X120185755Y-80578019D01*
X120185755Y-80578019D02*
X120423850Y-80578019D01*
X120423850Y-80578019D02*
X120566707Y-80625638D01*
X120566707Y-80625638D02*
X120661945Y-80720876D01*
X120661945Y-80720876D02*
X120709564Y-80816114D01*
X120709564Y-80816114D02*
X120757183Y-81006590D01*
X120757183Y-81006590D02*
X120757183Y-81149447D01*
X120757183Y-81149447D02*
X120709564Y-81339923D01*
X120709564Y-81339923D02*
X120661945Y-81435161D01*
X120661945Y-81435161D02*
X120566707Y-81530400D01*
X120566707Y-81530400D02*
X120423850Y-81578019D01*
X120423850Y-81578019D02*
X120185755Y-81578019D01*
X121138136Y-80673257D02*
X121185755Y-80625638D01*
X121185755Y-80625638D02*
X121280993Y-80578019D01*
X121280993Y-80578019D02*
X121519088Y-80578019D01*
X121519088Y-80578019D02*
X121614326Y-80625638D01*
X121614326Y-80625638D02*
X121661945Y-80673257D01*
X121661945Y-80673257D02*
X121709564Y-80768495D01*
X121709564Y-80768495D02*
X121709564Y-80863733D01*
X121709564Y-80863733D02*
X121661945Y-81006590D01*
X121661945Y-81006590D02*
X121090517Y-81578019D01*
X121090517Y-81578019D02*
X121709564Y-81578019D01*
X136601669Y-71474333D02*
X137315954Y-71474333D01*
X137315954Y-71474333D02*
X137458811Y-71521952D01*
X137458811Y-71521952D02*
X137554050Y-71617190D01*
X137554050Y-71617190D02*
X137601669Y-71760047D01*
X137601669Y-71760047D02*
X137601669Y-71855285D01*
X136696907Y-71045761D02*
X136649288Y-70998142D01*
X136649288Y-70998142D02*
X136601669Y-70902904D01*
X136601669Y-70902904D02*
X136601669Y-70664809D01*
X136601669Y-70664809D02*
X136649288Y-70569571D01*
X136649288Y-70569571D02*
X136696907Y-70521952D01*
X136696907Y-70521952D02*
X136792145Y-70474333D01*
X136792145Y-70474333D02*
X136887383Y-70474333D01*
X136887383Y-70474333D02*
X137030240Y-70521952D01*
X137030240Y-70521952D02*
X137601669Y-71093380D01*
X137601669Y-71093380D02*
X137601669Y-70474333D01*
X136531019Y-87362533D02*
X137245304Y-87362533D01*
X137245304Y-87362533D02*
X137388161Y-87410152D01*
X137388161Y-87410152D02*
X137483400Y-87505390D01*
X137483400Y-87505390D02*
X137531019Y-87648247D01*
X137531019Y-87648247D02*
X137531019Y-87743485D01*
X136626257Y-86933961D02*
X136578638Y-86886342D01*
X136578638Y-86886342D02*
X136531019Y-86791104D01*
X136531019Y-86791104D02*
X136531019Y-86553009D01*
X136531019Y-86553009D02*
X136578638Y-86457771D01*
X136578638Y-86457771D02*
X136626257Y-86410152D01*
X136626257Y-86410152D02*
X136721495Y-86362533D01*
X136721495Y-86362533D02*
X136816733Y-86362533D01*
X136816733Y-86362533D02*
X136959590Y-86410152D01*
X136959590Y-86410152D02*
X137531019Y-86981580D01*
X137531019Y-86981580D02*
X137531019Y-86362533D01*
X124399469Y-80973933D02*
X125113754Y-80973933D01*
X125113754Y-80973933D02*
X125256611Y-81021552D01*
X125256611Y-81021552D02*
X125351850Y-81116790D01*
X125351850Y-81116790D02*
X125399469Y-81259647D01*
X125399469Y-81259647D02*
X125399469Y-81354885D01*
X125399469Y-79973933D02*
X125399469Y-80545361D01*
X125399469Y-80259647D02*
X124399469Y-80259647D01*
X124399469Y-80259647D02*
X124542326Y-80354885D01*
X124542326Y-80354885D02*
X124637564Y-80450123D01*
X124637564Y-80450123D02*
X124685183Y-80545361D01*
X137017019Y-96428694D02*
X136017019Y-96428694D01*
X136017019Y-96428694D02*
X136017019Y-96190599D01*
X136017019Y-96190599D02*
X136064638Y-96047742D01*
X136064638Y-96047742D02*
X136159876Y-95952504D01*
X136159876Y-95952504D02*
X136255114Y-95904885D01*
X136255114Y-95904885D02*
X136445590Y-95857266D01*
X136445590Y-95857266D02*
X136588447Y-95857266D01*
X136588447Y-95857266D02*
X136778923Y-95904885D01*
X136778923Y-95904885D02*
X136874161Y-95952504D01*
X136874161Y-95952504D02*
X136969400Y-96047742D01*
X136969400Y-96047742D02*
X137017019Y-96190599D01*
X137017019Y-96190599D02*
X137017019Y-96428694D01*
X136017019Y-95523932D02*
X136017019Y-94904885D01*
X136017019Y-94904885D02*
X136397971Y-95238218D01*
X136397971Y-95238218D02*
X136397971Y-95095361D01*
X136397971Y-95095361D02*
X136445590Y-95000123D01*
X136445590Y-95000123D02*
X136493209Y-94952504D01*
X136493209Y-94952504D02*
X136588447Y-94904885D01*
X136588447Y-94904885D02*
X136826542Y-94904885D01*
X136826542Y-94904885D02*
X136921780Y-94952504D01*
X136921780Y-94952504D02*
X136969400Y-95000123D01*
X136969400Y-95000123D02*
X137017019Y-95095361D01*
X137017019Y-95095361D02*
X137017019Y-95381075D01*
X137017019Y-95381075D02*
X136969400Y-95476313D01*
X136969400Y-95476313D02*
X136921780Y-95523932D01*
X124328819Y-96862133D02*
X125043104Y-96862133D01*
X125043104Y-96862133D02*
X125185961Y-96909752D01*
X125185961Y-96909752D02*
X125281200Y-97004990D01*
X125281200Y-97004990D02*
X125328819Y-97147847D01*
X125328819Y-97147847D02*
X125328819Y-97243085D01*
X125328819Y-95862133D02*
X125328819Y-96433561D01*
X125328819Y-96147847D02*
X124328819Y-96147847D01*
X124328819Y-96147847D02*
X124471676Y-96243085D01*
X124471676Y-96243085D02*
X124566914Y-96338323D01*
X124566914Y-96338323D02*
X124614533Y-96433561D01*
X114584983Y-70509980D02*
X114537364Y-70557600D01*
X114537364Y-70557600D02*
X114394507Y-70605219D01*
X114394507Y-70605219D02*
X114299269Y-70605219D01*
X114299269Y-70605219D02*
X114156412Y-70557600D01*
X114156412Y-70557600D02*
X114061174Y-70462361D01*
X114061174Y-70462361D02*
X114013555Y-70367123D01*
X114013555Y-70367123D02*
X113965936Y-70176647D01*
X113965936Y-70176647D02*
X113965936Y-70033790D01*
X113965936Y-70033790D02*
X114013555Y-69843314D01*
X114013555Y-69843314D02*
X114061174Y-69748076D01*
X114061174Y-69748076D02*
X114156412Y-69652838D01*
X114156412Y-69652838D02*
X114299269Y-69605219D01*
X114299269Y-69605219D02*
X114394507Y-69605219D01*
X114394507Y-69605219D02*
X114537364Y-69652838D01*
X114537364Y-69652838D02*
X114584983Y-69700457D01*
X115537364Y-70605219D02*
X114965936Y-70605219D01*
X115251650Y-70605219D02*
X115251650Y-69605219D01*
X115251650Y-69605219D02*
X115156412Y-69748076D01*
X115156412Y-69748076D02*
X115061174Y-69843314D01*
X115061174Y-69843314D02*
X114965936Y-69890933D01*
D11*
X110154345Y-69684019D02*
X110154345Y-70493542D01*
X110154345Y-70493542D02*
X110201964Y-70588780D01*
X110201964Y-70588780D02*
X110249583Y-70636400D01*
X110249583Y-70636400D02*
X110344821Y-70684019D01*
X110344821Y-70684019D02*
X110535297Y-70684019D01*
X110535297Y-70684019D02*
X110630535Y-70636400D01*
X110630535Y-70636400D02*
X110678154Y-70588780D01*
X110678154Y-70588780D02*
X110725773Y-70493542D01*
X110725773Y-70493542D02*
X110725773Y-69684019D01*
X111725773Y-70684019D02*
X111154345Y-70684019D01*
X111440059Y-70684019D02*
X111440059Y-69684019D01*
X111440059Y-69684019D02*
X111344821Y-69826876D01*
X111344821Y-69826876D02*
X111249583Y-69922114D01*
X111249583Y-69922114D02*
X111154345Y-69969733D01*
X112439334Y-79563819D02*
X112439334Y-80373342D01*
X112439334Y-80373342D02*
X112486953Y-80468580D01*
X112486953Y-80468580D02*
X112534572Y-80516200D01*
X112534572Y-80516200D02*
X112629810Y-80563819D01*
X112629810Y-80563819D02*
X112820286Y-80563819D01*
X112820286Y-80563819D02*
X112915524Y-80516200D01*
X112915524Y-80516200D02*
X112963143Y-80468580D01*
X112963143Y-80468580D02*
X113010762Y-80373342D01*
X113010762Y-80373342D02*
X113010762Y-79563819D01*
X113439334Y-80516200D02*
X113582191Y-80563819D01*
X113582191Y-80563819D02*
X113820286Y-80563819D01*
X113820286Y-80563819D02*
X113915524Y-80516200D01*
X113915524Y-80516200D02*
X113963143Y-80468580D01*
X113963143Y-80468580D02*
X114010762Y-80373342D01*
X114010762Y-80373342D02*
X114010762Y-80278104D01*
X114010762Y-80278104D02*
X113963143Y-80182866D01*
X113963143Y-80182866D02*
X113915524Y-80135247D01*
X113915524Y-80135247D02*
X113820286Y-80087628D01*
X113820286Y-80087628D02*
X113629810Y-80040009D01*
X113629810Y-80040009D02*
X113534572Y-79992390D01*
X113534572Y-79992390D02*
X113486953Y-79944771D01*
X113486953Y-79944771D02*
X113439334Y-79849533D01*
X113439334Y-79849533D02*
X113439334Y-79754295D01*
X113439334Y-79754295D02*
X113486953Y-79659057D01*
X113486953Y-79659057D02*
X113534572Y-79611438D01*
X113534572Y-79611438D02*
X113629810Y-79563819D01*
X113629810Y-79563819D02*
X113867905Y-79563819D01*
X113867905Y-79563819D02*
X114010762Y-79611438D01*
X114772667Y-80040009D02*
X114915524Y-80087628D01*
X114915524Y-80087628D02*
X114963143Y-80135247D01*
X114963143Y-80135247D02*
X115010762Y-80230485D01*
X115010762Y-80230485D02*
X115010762Y-80373342D01*
X115010762Y-80373342D02*
X114963143Y-80468580D01*
X114963143Y-80468580D02*
X114915524Y-80516200D01*
X114915524Y-80516200D02*
X114820286Y-80563819D01*
X114820286Y-80563819D02*
X114439334Y-80563819D01*
X114439334Y-80563819D02*
X114439334Y-79563819D01*
X114439334Y-79563819D02*
X114772667Y-79563819D01*
X114772667Y-79563819D02*
X114867905Y-79611438D01*
X114867905Y-79611438D02*
X114915524Y-79659057D01*
X114915524Y-79659057D02*
X114963143Y-79754295D01*
X114963143Y-79754295D02*
X114963143Y-79849533D01*
X114963143Y-79849533D02*
X114915524Y-79944771D01*
X114915524Y-79944771D02*
X114867905Y-79992390D01*
X114867905Y-79992390D02*
X114772667Y-80040009D01*
X114772667Y-80040009D02*
X114439334Y-80040009D01*
D10*
X123338583Y-72689019D02*
X123005250Y-72212828D01*
X122767155Y-72689019D02*
X122767155Y-71689019D01*
X122767155Y-71689019D02*
X123148107Y-71689019D01*
X123148107Y-71689019D02*
X123243345Y-71736638D01*
X123243345Y-71736638D02*
X123290964Y-71784257D01*
X123290964Y-71784257D02*
X123338583Y-71879495D01*
X123338583Y-71879495D02*
X123338583Y-72022352D01*
X123338583Y-72022352D02*
X123290964Y-72117590D01*
X123290964Y-72117590D02*
X123243345Y-72165209D01*
X123243345Y-72165209D02*
X123148107Y-72212828D01*
X123148107Y-72212828D02*
X122767155Y-72212828D01*
X124290964Y-72689019D02*
X123719536Y-72689019D01*
X124005250Y-72689019D02*
X124005250Y-71689019D01*
X124005250Y-71689019D02*
X123910012Y-71831876D01*
X123910012Y-71831876D02*
X123814774Y-71927114D01*
X123814774Y-71927114D02*
X123719536Y-71974733D01*
D11*
X110083695Y-85572219D02*
X110083695Y-86381742D01*
X110083695Y-86381742D02*
X110131314Y-86476980D01*
X110131314Y-86476980D02*
X110178933Y-86524600D01*
X110178933Y-86524600D02*
X110274171Y-86572219D01*
X110274171Y-86572219D02*
X110464647Y-86572219D01*
X110464647Y-86572219D02*
X110559885Y-86524600D01*
X110559885Y-86524600D02*
X110607504Y-86476980D01*
X110607504Y-86476980D02*
X110655123Y-86381742D01*
X110655123Y-86381742D02*
X110655123Y-85572219D01*
X111655123Y-86572219D02*
X111083695Y-86572219D01*
X111369409Y-86572219D02*
X111369409Y-85572219D01*
X111369409Y-85572219D02*
X111274171Y-85715076D01*
X111274171Y-85715076D02*
X111178933Y-85810314D01*
X111178933Y-85810314D02*
X111083695Y-85857933D01*
X112368684Y-95452019D02*
X112368684Y-96261542D01*
X112368684Y-96261542D02*
X112416303Y-96356780D01*
X112416303Y-96356780D02*
X112463922Y-96404400D01*
X112463922Y-96404400D02*
X112559160Y-96452019D01*
X112559160Y-96452019D02*
X112749636Y-96452019D01*
X112749636Y-96452019D02*
X112844874Y-96404400D01*
X112844874Y-96404400D02*
X112892493Y-96356780D01*
X112892493Y-96356780D02*
X112940112Y-96261542D01*
X112940112Y-96261542D02*
X112940112Y-95452019D01*
X113368684Y-96404400D02*
X113511541Y-96452019D01*
X113511541Y-96452019D02*
X113749636Y-96452019D01*
X113749636Y-96452019D02*
X113844874Y-96404400D01*
X113844874Y-96404400D02*
X113892493Y-96356780D01*
X113892493Y-96356780D02*
X113940112Y-96261542D01*
X113940112Y-96261542D02*
X113940112Y-96166304D01*
X113940112Y-96166304D02*
X113892493Y-96071066D01*
X113892493Y-96071066D02*
X113844874Y-96023447D01*
X113844874Y-96023447D02*
X113749636Y-95975828D01*
X113749636Y-95975828D02*
X113559160Y-95928209D01*
X113559160Y-95928209D02*
X113463922Y-95880590D01*
X113463922Y-95880590D02*
X113416303Y-95832971D01*
X113416303Y-95832971D02*
X113368684Y-95737733D01*
X113368684Y-95737733D02*
X113368684Y-95642495D01*
X113368684Y-95642495D02*
X113416303Y-95547257D01*
X113416303Y-95547257D02*
X113463922Y-95499638D01*
X113463922Y-95499638D02*
X113559160Y-95452019D01*
X113559160Y-95452019D02*
X113797255Y-95452019D01*
X113797255Y-95452019D02*
X113940112Y-95499638D01*
X114702017Y-95928209D02*
X114844874Y-95975828D01*
X114844874Y-95975828D02*
X114892493Y-96023447D01*
X114892493Y-96023447D02*
X114940112Y-96118685D01*
X114940112Y-96118685D02*
X114940112Y-96261542D01*
X114940112Y-96261542D02*
X114892493Y-96356780D01*
X114892493Y-96356780D02*
X114844874Y-96404400D01*
X114844874Y-96404400D02*
X114749636Y-96452019D01*
X114749636Y-96452019D02*
X114368684Y-96452019D01*
X114368684Y-96452019D02*
X114368684Y-95452019D01*
X114368684Y-95452019D02*
X114702017Y-95452019D01*
X114702017Y-95452019D02*
X114797255Y-95499638D01*
X114797255Y-95499638D02*
X114844874Y-95547257D01*
X114844874Y-95547257D02*
X114892493Y-95642495D01*
X114892493Y-95642495D02*
X114892493Y-95737733D01*
X114892493Y-95737733D02*
X114844874Y-95832971D01*
X114844874Y-95832971D02*
X114797255Y-95880590D01*
X114797255Y-95880590D02*
X114702017Y-95928209D01*
X114702017Y-95928209D02*
X114368684Y-95928209D01*
D10*
X117467955Y-82213019D02*
X117467955Y-81213019D01*
X117467955Y-81213019D02*
X117706050Y-81213019D01*
X117706050Y-81213019D02*
X117848907Y-81260638D01*
X117848907Y-81260638D02*
X117944145Y-81355876D01*
X117944145Y-81355876D02*
X117991764Y-81451114D01*
X117991764Y-81451114D02*
X118039383Y-81641590D01*
X118039383Y-81641590D02*
X118039383Y-81784447D01*
X118039383Y-81784447D02*
X117991764Y-81974923D01*
X117991764Y-81974923D02*
X117944145Y-82070161D01*
X117944145Y-82070161D02*
X117848907Y-82165400D01*
X117848907Y-82165400D02*
X117706050Y-82213019D01*
X117706050Y-82213019D02*
X117467955Y-82213019D01*
X118991764Y-82213019D02*
X118420336Y-82213019D01*
X118706050Y-82213019D02*
X118706050Y-81213019D01*
X118706050Y-81213019D02*
X118610812Y-81355876D01*
X118610812Y-81355876D02*
X118515574Y-81451114D01*
X118515574Y-81451114D02*
X118420336Y-81498733D01*
X136113145Y-75929819D02*
X136113145Y-76739342D01*
X136113145Y-76739342D02*
X136160764Y-76834580D01*
X136160764Y-76834580D02*
X136208383Y-76882200D01*
X136208383Y-76882200D02*
X136303621Y-76929819D01*
X136303621Y-76929819D02*
X136494097Y-76929819D01*
X136494097Y-76929819D02*
X136589335Y-76882200D01*
X136589335Y-76882200D02*
X136636954Y-76834580D01*
X136636954Y-76834580D02*
X136684573Y-76739342D01*
X136684573Y-76739342D02*
X136684573Y-75929819D01*
X137113145Y-76025057D02*
X137160764Y-75977438D01*
X137160764Y-75977438D02*
X137256002Y-75929819D01*
X137256002Y-75929819D02*
X137494097Y-75929819D01*
X137494097Y-75929819D02*
X137589335Y-75977438D01*
X137589335Y-75977438D02*
X137636954Y-76025057D01*
X137636954Y-76025057D02*
X137684573Y-76120295D01*
X137684573Y-76120295D02*
X137684573Y-76215533D01*
X137684573Y-76215533D02*
X137636954Y-76358390D01*
X137636954Y-76358390D02*
X137065526Y-76929819D01*
X137065526Y-76929819D02*
X137684573Y-76929819D01*
X119410983Y-70554419D02*
X119077650Y-70078228D01*
X118839555Y-70554419D02*
X118839555Y-69554419D01*
X118839555Y-69554419D02*
X119220507Y-69554419D01*
X119220507Y-69554419D02*
X119315745Y-69602038D01*
X119315745Y-69602038D02*
X119363364Y-69649657D01*
X119363364Y-69649657D02*
X119410983Y-69744895D01*
X119410983Y-69744895D02*
X119410983Y-69887752D01*
X119410983Y-69887752D02*
X119363364Y-69982990D01*
X119363364Y-69982990D02*
X119315745Y-70030609D01*
X119315745Y-70030609D02*
X119220507Y-70078228D01*
X119220507Y-70078228D02*
X118839555Y-70078228D01*
X120268126Y-69887752D02*
X120268126Y-70554419D01*
X120030031Y-69506800D02*
X119791936Y-70221085D01*
X119791936Y-70221085D02*
X120410983Y-70221085D01*
X119340333Y-86442619D02*
X119007000Y-85966428D01*
X118768905Y-86442619D02*
X118768905Y-85442619D01*
X118768905Y-85442619D02*
X119149857Y-85442619D01*
X119149857Y-85442619D02*
X119245095Y-85490238D01*
X119245095Y-85490238D02*
X119292714Y-85537857D01*
X119292714Y-85537857D02*
X119340333Y-85633095D01*
X119340333Y-85633095D02*
X119340333Y-85775952D01*
X119340333Y-85775952D02*
X119292714Y-85871190D01*
X119292714Y-85871190D02*
X119245095Y-85918809D01*
X119245095Y-85918809D02*
X119149857Y-85966428D01*
X119149857Y-85966428D02*
X118768905Y-85966428D01*
X120197476Y-85775952D02*
X120197476Y-86442619D01*
X119959381Y-85395000D02*
X119721286Y-86109285D01*
X119721286Y-86109285D02*
X120340333Y-86109285D01*
X114514333Y-86398180D02*
X114466714Y-86445800D01*
X114466714Y-86445800D02*
X114323857Y-86493419D01*
X114323857Y-86493419D02*
X114228619Y-86493419D01*
X114228619Y-86493419D02*
X114085762Y-86445800D01*
X114085762Y-86445800D02*
X113990524Y-86350561D01*
X113990524Y-86350561D02*
X113942905Y-86255323D01*
X113942905Y-86255323D02*
X113895286Y-86064847D01*
X113895286Y-86064847D02*
X113895286Y-85921990D01*
X113895286Y-85921990D02*
X113942905Y-85731514D01*
X113942905Y-85731514D02*
X113990524Y-85636276D01*
X113990524Y-85636276D02*
X114085762Y-85541038D01*
X114085762Y-85541038D02*
X114228619Y-85493419D01*
X114228619Y-85493419D02*
X114323857Y-85493419D01*
X114323857Y-85493419D02*
X114466714Y-85541038D01*
X114466714Y-85541038D02*
X114514333Y-85588657D01*
X115466714Y-86493419D02*
X114895286Y-86493419D01*
X115181000Y-86493419D02*
X115181000Y-85493419D01*
X115181000Y-85493419D02*
X115085762Y-85636276D01*
X115085762Y-85636276D02*
X114990524Y-85731514D01*
X114990524Y-85731514D02*
X114895286Y-85779133D01*
X137087669Y-80540494D02*
X136087669Y-80540494D01*
X136087669Y-80540494D02*
X136087669Y-80302399D01*
X136087669Y-80302399D02*
X136135288Y-80159542D01*
X136135288Y-80159542D02*
X136230526Y-80064304D01*
X136230526Y-80064304D02*
X136325764Y-80016685D01*
X136325764Y-80016685D02*
X136516240Y-79969066D01*
X136516240Y-79969066D02*
X136659097Y-79969066D01*
X136659097Y-79969066D02*
X136849573Y-80016685D01*
X136849573Y-80016685D02*
X136944811Y-80064304D01*
X136944811Y-80064304D02*
X137040050Y-80159542D01*
X137040050Y-80159542D02*
X137087669Y-80302399D01*
X137087669Y-80302399D02*
X137087669Y-80540494D01*
X136087669Y-79635732D02*
X136087669Y-79016685D01*
X136087669Y-79016685D02*
X136468621Y-79350018D01*
X136468621Y-79350018D02*
X136468621Y-79207161D01*
X136468621Y-79207161D02*
X136516240Y-79111923D01*
X136516240Y-79111923D02*
X136563859Y-79064304D01*
X136563859Y-79064304D02*
X136659097Y-79016685D01*
X136659097Y-79016685D02*
X136897192Y-79016685D01*
X136897192Y-79016685D02*
X136992430Y-79064304D01*
X136992430Y-79064304D02*
X137040050Y-79111923D01*
X137040050Y-79111923D02*
X137087669Y-79207161D01*
X137087669Y-79207161D02*
X137087669Y-79492875D01*
X137087669Y-79492875D02*
X137040050Y-79588113D01*
X137040050Y-79588113D02*
X136992430Y-79635732D01*
X120115105Y-97466219D02*
X120115105Y-96466219D01*
X120115105Y-96466219D02*
X120353200Y-96466219D01*
X120353200Y-96466219D02*
X120496057Y-96513838D01*
X120496057Y-96513838D02*
X120591295Y-96609076D01*
X120591295Y-96609076D02*
X120638914Y-96704314D01*
X120638914Y-96704314D02*
X120686533Y-96894790D01*
X120686533Y-96894790D02*
X120686533Y-97037647D01*
X120686533Y-97037647D02*
X120638914Y-97228123D01*
X120638914Y-97228123D02*
X120591295Y-97323361D01*
X120591295Y-97323361D02*
X120496057Y-97418600D01*
X120496057Y-97418600D02*
X120353200Y-97466219D01*
X120353200Y-97466219D02*
X120115105Y-97466219D01*
X121067486Y-96561457D02*
X121115105Y-96513838D01*
X121115105Y-96513838D02*
X121210343Y-96466219D01*
X121210343Y-96466219D02*
X121448438Y-96466219D01*
X121448438Y-96466219D02*
X121543676Y-96513838D01*
X121543676Y-96513838D02*
X121591295Y-96561457D01*
X121591295Y-96561457D02*
X121638914Y-96656695D01*
X121638914Y-96656695D02*
X121638914Y-96751933D01*
X121638914Y-96751933D02*
X121591295Y-96894790D01*
X121591295Y-96894790D02*
X121019867Y-97466219D01*
X121019867Y-97466219D02*
X121638914Y-97466219D01*
X136042495Y-91818019D02*
X136042495Y-92627542D01*
X136042495Y-92627542D02*
X136090114Y-92722780D01*
X136090114Y-92722780D02*
X136137733Y-92770400D01*
X136137733Y-92770400D02*
X136232971Y-92818019D01*
X136232971Y-92818019D02*
X136423447Y-92818019D01*
X136423447Y-92818019D02*
X136518685Y-92770400D01*
X136518685Y-92770400D02*
X136566304Y-92722780D01*
X136566304Y-92722780D02*
X136613923Y-92627542D01*
X136613923Y-92627542D02*
X136613923Y-91818019D01*
X137042495Y-91913257D02*
X137090114Y-91865638D01*
X137090114Y-91865638D02*
X137185352Y-91818019D01*
X137185352Y-91818019D02*
X137423447Y-91818019D01*
X137423447Y-91818019D02*
X137518685Y-91865638D01*
X137518685Y-91865638D02*
X137566304Y-91913257D01*
X137566304Y-91913257D02*
X137613923Y-92008495D01*
X137613923Y-92008495D02*
X137613923Y-92103733D01*
X137613923Y-92103733D02*
X137566304Y-92246590D01*
X137566304Y-92246590D02*
X136994876Y-92818019D01*
X136994876Y-92818019D02*
X137613923Y-92818019D01*
X123436333Y-92056019D02*
X123103000Y-91579828D01*
X122864905Y-92056019D02*
X122864905Y-91056019D01*
X122864905Y-91056019D02*
X123245857Y-91056019D01*
X123245857Y-91056019D02*
X123341095Y-91103638D01*
X123341095Y-91103638D02*
X123388714Y-91151257D01*
X123388714Y-91151257D02*
X123436333Y-91246495D01*
X123436333Y-91246495D02*
X123436333Y-91389352D01*
X123436333Y-91389352D02*
X123388714Y-91484590D01*
X123388714Y-91484590D02*
X123341095Y-91532209D01*
X123341095Y-91532209D02*
X123245857Y-91579828D01*
X123245857Y-91579828D02*
X122864905Y-91579828D01*
X123817286Y-91151257D02*
X123864905Y-91103638D01*
X123864905Y-91103638D02*
X123960143Y-91056019D01*
X123960143Y-91056019D02*
X124198238Y-91056019D01*
X124198238Y-91056019D02*
X124293476Y-91103638D01*
X124293476Y-91103638D02*
X124341095Y-91151257D01*
X124341095Y-91151257D02*
X124388714Y-91246495D01*
X124388714Y-91246495D02*
X124388714Y-91341733D01*
X124388714Y-91341733D02*
X124341095Y-91484590D01*
X124341095Y-91484590D02*
X123769667Y-92056019D01*
X123769667Y-92056019D02*
X124388714Y-92056019D01*
X138384783Y-73070019D02*
X138051450Y-72593828D01*
X137813355Y-73070019D02*
X137813355Y-72070019D01*
X137813355Y-72070019D02*
X138194307Y-72070019D01*
X138194307Y-72070019D02*
X138289545Y-72117638D01*
X138289545Y-72117638D02*
X138337164Y-72165257D01*
X138337164Y-72165257D02*
X138384783Y-72260495D01*
X138384783Y-72260495D02*
X138384783Y-72403352D01*
X138384783Y-72403352D02*
X138337164Y-72498590D01*
X138337164Y-72498590D02*
X138289545Y-72546209D01*
X138289545Y-72546209D02*
X138194307Y-72593828D01*
X138194307Y-72593828D02*
X137813355Y-72593828D01*
X138718117Y-72070019D02*
X139337164Y-72070019D01*
X139337164Y-72070019D02*
X139003831Y-72450971D01*
X139003831Y-72450971D02*
X139146688Y-72450971D01*
X139146688Y-72450971D02*
X139241926Y-72498590D01*
X139241926Y-72498590D02*
X139289545Y-72546209D01*
X139289545Y-72546209D02*
X139337164Y-72641447D01*
X139337164Y-72641447D02*
X139337164Y-72879542D01*
X139337164Y-72879542D02*
X139289545Y-72974780D01*
X139289545Y-72974780D02*
X139241926Y-73022400D01*
X139241926Y-73022400D02*
X139146688Y-73070019D01*
X139146688Y-73070019D02*
X138860974Y-73070019D01*
X138860974Y-73070019D02*
X138765736Y-73022400D01*
X138765736Y-73022400D02*
X138718117Y-72974780D01*
X138314133Y-88958219D02*
X137980800Y-88482028D01*
X137742705Y-88958219D02*
X137742705Y-87958219D01*
X137742705Y-87958219D02*
X138123657Y-87958219D01*
X138123657Y-87958219D02*
X138218895Y-88005838D01*
X138218895Y-88005838D02*
X138266514Y-88053457D01*
X138266514Y-88053457D02*
X138314133Y-88148695D01*
X138314133Y-88148695D02*
X138314133Y-88291552D01*
X138314133Y-88291552D02*
X138266514Y-88386790D01*
X138266514Y-88386790D02*
X138218895Y-88434409D01*
X138218895Y-88434409D02*
X138123657Y-88482028D01*
X138123657Y-88482028D02*
X137742705Y-88482028D01*
X138647467Y-87958219D02*
X139266514Y-87958219D01*
X139266514Y-87958219D02*
X138933181Y-88339171D01*
X138933181Y-88339171D02*
X139076038Y-88339171D01*
X139076038Y-88339171D02*
X139171276Y-88386790D01*
X139171276Y-88386790D02*
X139218895Y-88434409D01*
X139218895Y-88434409D02*
X139266514Y-88529647D01*
X139266514Y-88529647D02*
X139266514Y-88767742D01*
X139266514Y-88767742D02*
X139218895Y-88862980D01*
X139218895Y-88862980D02*
X139171276Y-88910600D01*
X139171276Y-88910600D02*
X139076038Y-88958219D01*
X139076038Y-88958219D02*
X138790324Y-88958219D01*
X138790324Y-88958219D02*
X138695086Y-88910600D01*
X138695086Y-88910600D02*
X138647467Y-88862980D01*
X123267933Y-88577219D02*
X122934600Y-88101028D01*
X122696505Y-88577219D02*
X122696505Y-87577219D01*
X122696505Y-87577219D02*
X123077457Y-87577219D01*
X123077457Y-87577219D02*
X123172695Y-87624838D01*
X123172695Y-87624838D02*
X123220314Y-87672457D01*
X123220314Y-87672457D02*
X123267933Y-87767695D01*
X123267933Y-87767695D02*
X123267933Y-87910552D01*
X123267933Y-87910552D02*
X123220314Y-88005790D01*
X123220314Y-88005790D02*
X123172695Y-88053409D01*
X123172695Y-88053409D02*
X123077457Y-88101028D01*
X123077457Y-88101028D02*
X122696505Y-88101028D01*
X124220314Y-88577219D02*
X123648886Y-88577219D01*
X123934600Y-88577219D02*
X123934600Y-87577219D01*
X123934600Y-87577219D02*
X123839362Y-87720076D01*
X123839362Y-87720076D02*
X123744124Y-87815314D01*
X123744124Y-87815314D02*
X123648886Y-87862933D01*
X117397305Y-98101219D02*
X117397305Y-97101219D01*
X117397305Y-97101219D02*
X117635400Y-97101219D01*
X117635400Y-97101219D02*
X117778257Y-97148838D01*
X117778257Y-97148838D02*
X117873495Y-97244076D01*
X117873495Y-97244076D02*
X117921114Y-97339314D01*
X117921114Y-97339314D02*
X117968733Y-97529790D01*
X117968733Y-97529790D02*
X117968733Y-97672647D01*
X117968733Y-97672647D02*
X117921114Y-97863123D01*
X117921114Y-97863123D02*
X117873495Y-97958361D01*
X117873495Y-97958361D02*
X117778257Y-98053600D01*
X117778257Y-98053600D02*
X117635400Y-98101219D01*
X117635400Y-98101219D02*
X117397305Y-98101219D01*
X118921114Y-98101219D02*
X118349686Y-98101219D01*
X118635400Y-98101219D02*
X118635400Y-97101219D01*
X118635400Y-97101219D02*
X118540162Y-97244076D01*
X118540162Y-97244076D02*
X118444924Y-97339314D01*
X118444924Y-97339314D02*
X118349686Y-97386933D01*
X156530833Y-101982380D02*
X156483214Y-102030000D01*
X156483214Y-102030000D02*
X156340357Y-102077619D01*
X156340357Y-102077619D02*
X156245119Y-102077619D01*
X156245119Y-102077619D02*
X156102262Y-102030000D01*
X156102262Y-102030000D02*
X156007024Y-101934761D01*
X156007024Y-101934761D02*
X155959405Y-101839523D01*
X155959405Y-101839523D02*
X155911786Y-101649047D01*
X155911786Y-101649047D02*
X155911786Y-101506190D01*
X155911786Y-101506190D02*
X155959405Y-101315714D01*
X155959405Y-101315714D02*
X156007024Y-101220476D01*
X156007024Y-101220476D02*
X156102262Y-101125238D01*
X156102262Y-101125238D02*
X156245119Y-101077619D01*
X156245119Y-101077619D02*
X156340357Y-101077619D01*
X156340357Y-101077619D02*
X156483214Y-101125238D01*
X156483214Y-101125238D02*
X156530833Y-101172857D01*
X157483214Y-102077619D02*
X156911786Y-102077619D01*
X157197500Y-102077619D02*
X157197500Y-101077619D01*
X157197500Y-101077619D02*
X157102262Y-101220476D01*
X157102262Y-101220476D02*
X157007024Y-101315714D01*
X157007024Y-101315714D02*
X156911786Y-101363333D01*
D11*
X152100195Y-101156419D02*
X152100195Y-101965942D01*
X152100195Y-101965942D02*
X152147814Y-102061180D01*
X152147814Y-102061180D02*
X152195433Y-102108800D01*
X152195433Y-102108800D02*
X152290671Y-102156419D01*
X152290671Y-102156419D02*
X152481147Y-102156419D01*
X152481147Y-102156419D02*
X152576385Y-102108800D01*
X152576385Y-102108800D02*
X152624004Y-102061180D01*
X152624004Y-102061180D02*
X152671623Y-101965942D01*
X152671623Y-101965942D02*
X152671623Y-101156419D01*
X153671623Y-102156419D02*
X153100195Y-102156419D01*
X153385909Y-102156419D02*
X153385909Y-101156419D01*
X153385909Y-101156419D02*
X153290671Y-101299276D01*
X153290671Y-101299276D02*
X153195433Y-101394514D01*
X153195433Y-101394514D02*
X153100195Y-101442133D01*
X154385184Y-111036219D02*
X154385184Y-111845742D01*
X154385184Y-111845742D02*
X154432803Y-111940980D01*
X154432803Y-111940980D02*
X154480422Y-111988600D01*
X154480422Y-111988600D02*
X154575660Y-112036219D01*
X154575660Y-112036219D02*
X154766136Y-112036219D01*
X154766136Y-112036219D02*
X154861374Y-111988600D01*
X154861374Y-111988600D02*
X154908993Y-111940980D01*
X154908993Y-111940980D02*
X154956612Y-111845742D01*
X154956612Y-111845742D02*
X154956612Y-111036219D01*
X155385184Y-111988600D02*
X155528041Y-112036219D01*
X155528041Y-112036219D02*
X155766136Y-112036219D01*
X155766136Y-112036219D02*
X155861374Y-111988600D01*
X155861374Y-111988600D02*
X155908993Y-111940980D01*
X155908993Y-111940980D02*
X155956612Y-111845742D01*
X155956612Y-111845742D02*
X155956612Y-111750504D01*
X155956612Y-111750504D02*
X155908993Y-111655266D01*
X155908993Y-111655266D02*
X155861374Y-111607647D01*
X155861374Y-111607647D02*
X155766136Y-111560028D01*
X155766136Y-111560028D02*
X155575660Y-111512409D01*
X155575660Y-111512409D02*
X155480422Y-111464790D01*
X155480422Y-111464790D02*
X155432803Y-111417171D01*
X155432803Y-111417171D02*
X155385184Y-111321933D01*
X155385184Y-111321933D02*
X155385184Y-111226695D01*
X155385184Y-111226695D02*
X155432803Y-111131457D01*
X155432803Y-111131457D02*
X155480422Y-111083838D01*
X155480422Y-111083838D02*
X155575660Y-111036219D01*
X155575660Y-111036219D02*
X155813755Y-111036219D01*
X155813755Y-111036219D02*
X155956612Y-111083838D01*
X156718517Y-111512409D02*
X156861374Y-111560028D01*
X156861374Y-111560028D02*
X156908993Y-111607647D01*
X156908993Y-111607647D02*
X156956612Y-111702885D01*
X156956612Y-111702885D02*
X156956612Y-111845742D01*
X156956612Y-111845742D02*
X156908993Y-111940980D01*
X156908993Y-111940980D02*
X156861374Y-111988600D01*
X156861374Y-111988600D02*
X156766136Y-112036219D01*
X156766136Y-112036219D02*
X156385184Y-112036219D01*
X156385184Y-112036219D02*
X156385184Y-111036219D01*
X156385184Y-111036219D02*
X156718517Y-111036219D01*
X156718517Y-111036219D02*
X156813755Y-111083838D01*
X156813755Y-111083838D02*
X156861374Y-111131457D01*
X156861374Y-111131457D02*
X156908993Y-111226695D01*
X156908993Y-111226695D02*
X156908993Y-111321933D01*
X156908993Y-111321933D02*
X156861374Y-111417171D01*
X156861374Y-111417171D02*
X156813755Y-111464790D01*
X156813755Y-111464790D02*
X156718517Y-111512409D01*
X156718517Y-111512409D02*
X156385184Y-111512409D01*
D10*
X156460183Y-117870580D02*
X156412564Y-117918200D01*
X156412564Y-117918200D02*
X156269707Y-117965819D01*
X156269707Y-117965819D02*
X156174469Y-117965819D01*
X156174469Y-117965819D02*
X156031612Y-117918200D01*
X156031612Y-117918200D02*
X155936374Y-117822961D01*
X155936374Y-117822961D02*
X155888755Y-117727723D01*
X155888755Y-117727723D02*
X155841136Y-117537247D01*
X155841136Y-117537247D02*
X155841136Y-117394390D01*
X155841136Y-117394390D02*
X155888755Y-117203914D01*
X155888755Y-117203914D02*
X155936374Y-117108676D01*
X155936374Y-117108676D02*
X156031612Y-117013438D01*
X156031612Y-117013438D02*
X156174469Y-116965819D01*
X156174469Y-116965819D02*
X156269707Y-116965819D01*
X156269707Y-116965819D02*
X156412564Y-117013438D01*
X156412564Y-117013438D02*
X156460183Y-117061057D01*
X157412564Y-117965819D02*
X156841136Y-117965819D01*
X157126850Y-117965819D02*
X157126850Y-116965819D01*
X157126850Y-116965819D02*
X157031612Y-117108676D01*
X157031612Y-117108676D02*
X156936374Y-117203914D01*
X156936374Y-117203914D02*
X156841136Y-117251533D01*
X178058995Y-107402219D02*
X178058995Y-108211742D01*
X178058995Y-108211742D02*
X178106614Y-108306980D01*
X178106614Y-108306980D02*
X178154233Y-108354600D01*
X178154233Y-108354600D02*
X178249471Y-108402219D01*
X178249471Y-108402219D02*
X178439947Y-108402219D01*
X178439947Y-108402219D02*
X178535185Y-108354600D01*
X178535185Y-108354600D02*
X178582804Y-108306980D01*
X178582804Y-108306980D02*
X178630423Y-108211742D01*
X178630423Y-108211742D02*
X178630423Y-107402219D01*
X179058995Y-107497457D02*
X179106614Y-107449838D01*
X179106614Y-107449838D02*
X179201852Y-107402219D01*
X179201852Y-107402219D02*
X179439947Y-107402219D01*
X179439947Y-107402219D02*
X179535185Y-107449838D01*
X179535185Y-107449838D02*
X179582804Y-107497457D01*
X179582804Y-107497457D02*
X179630423Y-107592695D01*
X179630423Y-107592695D02*
X179630423Y-107687933D01*
X179630423Y-107687933D02*
X179582804Y-107830790D01*
X179582804Y-107830790D02*
X179011376Y-108402219D01*
X179011376Y-108402219D02*
X179630423Y-108402219D01*
X180259983Y-120430619D02*
X179926650Y-119954428D01*
X179688555Y-120430619D02*
X179688555Y-119430619D01*
X179688555Y-119430619D02*
X180069507Y-119430619D01*
X180069507Y-119430619D02*
X180164745Y-119478238D01*
X180164745Y-119478238D02*
X180212364Y-119525857D01*
X180212364Y-119525857D02*
X180259983Y-119621095D01*
X180259983Y-119621095D02*
X180259983Y-119763952D01*
X180259983Y-119763952D02*
X180212364Y-119859190D01*
X180212364Y-119859190D02*
X180164745Y-119906809D01*
X180164745Y-119906809D02*
X180069507Y-119954428D01*
X180069507Y-119954428D02*
X179688555Y-119954428D01*
X180593317Y-119430619D02*
X181212364Y-119430619D01*
X181212364Y-119430619D02*
X180879031Y-119811571D01*
X180879031Y-119811571D02*
X181021888Y-119811571D01*
X181021888Y-119811571D02*
X181117126Y-119859190D01*
X181117126Y-119859190D02*
X181164745Y-119906809D01*
X181164745Y-119906809D02*
X181212364Y-120002047D01*
X181212364Y-120002047D02*
X181212364Y-120240142D01*
X181212364Y-120240142D02*
X181164745Y-120335380D01*
X181164745Y-120335380D02*
X181117126Y-120383000D01*
X181117126Y-120383000D02*
X181021888Y-120430619D01*
X181021888Y-120430619D02*
X180736174Y-120430619D01*
X180736174Y-120430619D02*
X180640936Y-120383000D01*
X180640936Y-120383000D02*
X180593317Y-120335380D01*
X165933633Y-76293619D02*
X165600300Y-75817428D01*
X165362205Y-76293619D02*
X165362205Y-75293619D01*
X165362205Y-75293619D02*
X165743157Y-75293619D01*
X165743157Y-75293619D02*
X165838395Y-75341238D01*
X165838395Y-75341238D02*
X165886014Y-75388857D01*
X165886014Y-75388857D02*
X165933633Y-75484095D01*
X165933633Y-75484095D02*
X165933633Y-75626952D01*
X165933633Y-75626952D02*
X165886014Y-75722190D01*
X165886014Y-75722190D02*
X165838395Y-75769809D01*
X165838395Y-75769809D02*
X165743157Y-75817428D01*
X165743157Y-75817428D02*
X165362205Y-75817428D01*
X166314586Y-75388857D02*
X166362205Y-75341238D01*
X166362205Y-75341238D02*
X166457443Y-75293619D01*
X166457443Y-75293619D02*
X166695538Y-75293619D01*
X166695538Y-75293619D02*
X166790776Y-75341238D01*
X166790776Y-75341238D02*
X166838395Y-75388857D01*
X166838395Y-75388857D02*
X166886014Y-75484095D01*
X166886014Y-75484095D02*
X166886014Y-75579333D01*
X166886014Y-75579333D02*
X166838395Y-75722190D01*
X166838395Y-75722190D02*
X166266967Y-76293619D01*
X166266967Y-76293619D02*
X166886014Y-76293619D01*
X159413805Y-113685419D02*
X159413805Y-112685419D01*
X159413805Y-112685419D02*
X159651900Y-112685419D01*
X159651900Y-112685419D02*
X159794757Y-112733038D01*
X159794757Y-112733038D02*
X159889995Y-112828276D01*
X159889995Y-112828276D02*
X159937614Y-112923514D01*
X159937614Y-112923514D02*
X159985233Y-113113990D01*
X159985233Y-113113990D02*
X159985233Y-113256847D01*
X159985233Y-113256847D02*
X159937614Y-113447323D01*
X159937614Y-113447323D02*
X159889995Y-113542561D01*
X159889995Y-113542561D02*
X159794757Y-113637800D01*
X159794757Y-113637800D02*
X159651900Y-113685419D01*
X159651900Y-113685419D02*
X159413805Y-113685419D01*
X160937614Y-113685419D02*
X160366186Y-113685419D01*
X160651900Y-113685419D02*
X160651900Y-112685419D01*
X160651900Y-112685419D02*
X160556662Y-112828276D01*
X160556662Y-112828276D02*
X160461424Y-112923514D01*
X160461424Y-112923514D02*
X160366186Y-112971133D01*
X162060955Y-128938619D02*
X162060955Y-127938619D01*
X162060955Y-127938619D02*
X162299050Y-127938619D01*
X162299050Y-127938619D02*
X162441907Y-127986238D01*
X162441907Y-127986238D02*
X162537145Y-128081476D01*
X162537145Y-128081476D02*
X162584764Y-128176714D01*
X162584764Y-128176714D02*
X162632383Y-128367190D01*
X162632383Y-128367190D02*
X162632383Y-128510047D01*
X162632383Y-128510047D02*
X162584764Y-128700523D01*
X162584764Y-128700523D02*
X162537145Y-128795761D01*
X162537145Y-128795761D02*
X162441907Y-128891000D01*
X162441907Y-128891000D02*
X162299050Y-128938619D01*
X162299050Y-128938619D02*
X162060955Y-128938619D01*
X163013336Y-128033857D02*
X163060955Y-127986238D01*
X163060955Y-127986238D02*
X163156193Y-127938619D01*
X163156193Y-127938619D02*
X163394288Y-127938619D01*
X163394288Y-127938619D02*
X163489526Y-127986238D01*
X163489526Y-127986238D02*
X163537145Y-128033857D01*
X163537145Y-128033857D02*
X163584764Y-128129095D01*
X163584764Y-128129095D02*
X163584764Y-128224333D01*
X163584764Y-128224333D02*
X163537145Y-128367190D01*
X163537145Y-128367190D02*
X162965717Y-128938619D01*
X162965717Y-128938619D02*
X163584764Y-128938619D01*
X178962869Y-127901094D02*
X177962869Y-127901094D01*
X177962869Y-127901094D02*
X177962869Y-127662999D01*
X177962869Y-127662999D02*
X178010488Y-127520142D01*
X178010488Y-127520142D02*
X178105726Y-127424904D01*
X178105726Y-127424904D02*
X178200964Y-127377285D01*
X178200964Y-127377285D02*
X178391440Y-127329666D01*
X178391440Y-127329666D02*
X178534297Y-127329666D01*
X178534297Y-127329666D02*
X178724773Y-127377285D01*
X178724773Y-127377285D02*
X178820011Y-127424904D01*
X178820011Y-127424904D02*
X178915250Y-127520142D01*
X178915250Y-127520142D02*
X178962869Y-127662999D01*
X178962869Y-127662999D02*
X178962869Y-127901094D01*
X177962869Y-126996332D02*
X177962869Y-126377285D01*
X177962869Y-126377285D02*
X178343821Y-126710618D01*
X178343821Y-126710618D02*
X178343821Y-126567761D01*
X178343821Y-126567761D02*
X178391440Y-126472523D01*
X178391440Y-126472523D02*
X178439059Y-126424904D01*
X178439059Y-126424904D02*
X178534297Y-126377285D01*
X178534297Y-126377285D02*
X178772392Y-126377285D01*
X178772392Y-126377285D02*
X178867630Y-126424904D01*
X178867630Y-126424904D02*
X178915250Y-126472523D01*
X178915250Y-126472523D02*
X178962869Y-126567761D01*
X178962869Y-126567761D02*
X178962869Y-126853475D01*
X178962869Y-126853475D02*
X178915250Y-126948713D01*
X178915250Y-126948713D02*
X178867630Y-126996332D01*
X178547519Y-102946733D02*
X179261804Y-102946733D01*
X179261804Y-102946733D02*
X179404661Y-102994352D01*
X179404661Y-102994352D02*
X179499900Y-103089590D01*
X179499900Y-103089590D02*
X179547519Y-103232447D01*
X179547519Y-103232447D02*
X179547519Y-103327685D01*
X178642757Y-102518161D02*
X178595138Y-102470542D01*
X178595138Y-102470542D02*
X178547519Y-102375304D01*
X178547519Y-102375304D02*
X178547519Y-102137209D01*
X178547519Y-102137209D02*
X178595138Y-102041971D01*
X178595138Y-102041971D02*
X178642757Y-101994352D01*
X178642757Y-101994352D02*
X178737995Y-101946733D01*
X178737995Y-101946733D02*
X178833233Y-101946733D01*
X178833233Y-101946733D02*
X178976090Y-101994352D01*
X178976090Y-101994352D02*
X179547519Y-102565780D01*
X179547519Y-102565780D02*
X179547519Y-101946733D01*
X179033519Y-112012894D02*
X178033519Y-112012894D01*
X178033519Y-112012894D02*
X178033519Y-111774799D01*
X178033519Y-111774799D02*
X178081138Y-111631942D01*
X178081138Y-111631942D02*
X178176376Y-111536704D01*
X178176376Y-111536704D02*
X178271614Y-111489085D01*
X178271614Y-111489085D02*
X178462090Y-111441466D01*
X178462090Y-111441466D02*
X178604947Y-111441466D01*
X178604947Y-111441466D02*
X178795423Y-111489085D01*
X178795423Y-111489085D02*
X178890661Y-111536704D01*
X178890661Y-111536704D02*
X178985900Y-111631942D01*
X178985900Y-111631942D02*
X179033519Y-111774799D01*
X179033519Y-111774799D02*
X179033519Y-112012894D01*
X178033519Y-111108132D02*
X178033519Y-110489085D01*
X178033519Y-110489085D02*
X178414471Y-110822418D01*
X178414471Y-110822418D02*
X178414471Y-110679561D01*
X178414471Y-110679561D02*
X178462090Y-110584323D01*
X178462090Y-110584323D02*
X178509709Y-110536704D01*
X178509709Y-110536704D02*
X178604947Y-110489085D01*
X178604947Y-110489085D02*
X178843042Y-110489085D01*
X178843042Y-110489085D02*
X178938280Y-110536704D01*
X178938280Y-110536704D02*
X178985900Y-110584323D01*
X178985900Y-110584323D02*
X179033519Y-110679561D01*
X179033519Y-110679561D02*
X179033519Y-110965275D01*
X179033519Y-110965275D02*
X178985900Y-111060513D01*
X178985900Y-111060513D02*
X178938280Y-111108132D01*
X162131605Y-113050419D02*
X162131605Y-112050419D01*
X162131605Y-112050419D02*
X162369700Y-112050419D01*
X162369700Y-112050419D02*
X162512557Y-112098038D01*
X162512557Y-112098038D02*
X162607795Y-112193276D01*
X162607795Y-112193276D02*
X162655414Y-112288514D01*
X162655414Y-112288514D02*
X162703033Y-112478990D01*
X162703033Y-112478990D02*
X162703033Y-112621847D01*
X162703033Y-112621847D02*
X162655414Y-112812323D01*
X162655414Y-112812323D02*
X162607795Y-112907561D01*
X162607795Y-112907561D02*
X162512557Y-113002800D01*
X162512557Y-113002800D02*
X162369700Y-113050419D01*
X162369700Y-113050419D02*
X162131605Y-113050419D01*
X163083986Y-112145657D02*
X163131605Y-112098038D01*
X163131605Y-112098038D02*
X163226843Y-112050419D01*
X163226843Y-112050419D02*
X163464938Y-112050419D01*
X163464938Y-112050419D02*
X163560176Y-112098038D01*
X163560176Y-112098038D02*
X163607795Y-112145657D01*
X163607795Y-112145657D02*
X163655414Y-112240895D01*
X163655414Y-112240895D02*
X163655414Y-112336133D01*
X163655414Y-112336133D02*
X163607795Y-112478990D01*
X163607795Y-112478990D02*
X163036367Y-113050419D01*
X163036367Y-113050419D02*
X163655414Y-113050419D01*
X180330633Y-104542419D02*
X179997300Y-104066228D01*
X179759205Y-104542419D02*
X179759205Y-103542419D01*
X179759205Y-103542419D02*
X180140157Y-103542419D01*
X180140157Y-103542419D02*
X180235395Y-103590038D01*
X180235395Y-103590038D02*
X180283014Y-103637657D01*
X180283014Y-103637657D02*
X180330633Y-103732895D01*
X180330633Y-103732895D02*
X180330633Y-103875752D01*
X180330633Y-103875752D02*
X180283014Y-103970990D01*
X180283014Y-103970990D02*
X180235395Y-104018609D01*
X180235395Y-104018609D02*
X180140157Y-104066228D01*
X180140157Y-104066228D02*
X179759205Y-104066228D01*
X180663967Y-103542419D02*
X181283014Y-103542419D01*
X181283014Y-103542419D02*
X180949681Y-103923371D01*
X180949681Y-103923371D02*
X181092538Y-103923371D01*
X181092538Y-103923371D02*
X181187776Y-103970990D01*
X181187776Y-103970990D02*
X181235395Y-104018609D01*
X181235395Y-104018609D02*
X181283014Y-104113847D01*
X181283014Y-104113847D02*
X181283014Y-104351942D01*
X181283014Y-104351942D02*
X181235395Y-104447180D01*
X181235395Y-104447180D02*
X181187776Y-104494800D01*
X181187776Y-104494800D02*
X181092538Y-104542419D01*
X181092538Y-104542419D02*
X180806824Y-104542419D01*
X180806824Y-104542419D02*
X180711586Y-104494800D01*
X180711586Y-104494800D02*
X180663967Y-104447180D01*
X165284433Y-104161419D02*
X164951100Y-103685228D01*
X164713005Y-104161419D02*
X164713005Y-103161419D01*
X164713005Y-103161419D02*
X165093957Y-103161419D01*
X165093957Y-103161419D02*
X165189195Y-103209038D01*
X165189195Y-103209038D02*
X165236814Y-103256657D01*
X165236814Y-103256657D02*
X165284433Y-103351895D01*
X165284433Y-103351895D02*
X165284433Y-103494752D01*
X165284433Y-103494752D02*
X165236814Y-103589990D01*
X165236814Y-103589990D02*
X165189195Y-103637609D01*
X165189195Y-103637609D02*
X165093957Y-103685228D01*
X165093957Y-103685228D02*
X164713005Y-103685228D01*
X166236814Y-104161419D02*
X165665386Y-104161419D01*
X165951100Y-104161419D02*
X165951100Y-103161419D01*
X165951100Y-103161419D02*
X165855862Y-103304276D01*
X165855862Y-103304276D02*
X165760624Y-103399514D01*
X165760624Y-103399514D02*
X165665386Y-103447133D01*
X166345319Y-112446333D02*
X167059604Y-112446333D01*
X167059604Y-112446333D02*
X167202461Y-112493952D01*
X167202461Y-112493952D02*
X167297700Y-112589190D01*
X167297700Y-112589190D02*
X167345319Y-112732047D01*
X167345319Y-112732047D02*
X167345319Y-112827285D01*
X167345319Y-111446333D02*
X167345319Y-112017761D01*
X167345319Y-111732047D02*
X166345319Y-111732047D01*
X166345319Y-111732047D02*
X166488176Y-111827285D01*
X166488176Y-111827285D02*
X166583414Y-111922523D01*
X166583414Y-111922523D02*
X166631033Y-112017761D01*
X161356833Y-102026819D02*
X161023500Y-101550628D01*
X160785405Y-102026819D02*
X160785405Y-101026819D01*
X160785405Y-101026819D02*
X161166357Y-101026819D01*
X161166357Y-101026819D02*
X161261595Y-101074438D01*
X161261595Y-101074438D02*
X161309214Y-101122057D01*
X161309214Y-101122057D02*
X161356833Y-101217295D01*
X161356833Y-101217295D02*
X161356833Y-101360152D01*
X161356833Y-101360152D02*
X161309214Y-101455390D01*
X161309214Y-101455390D02*
X161261595Y-101503009D01*
X161261595Y-101503009D02*
X161166357Y-101550628D01*
X161166357Y-101550628D02*
X160785405Y-101550628D01*
X162213976Y-101360152D02*
X162213976Y-102026819D01*
X161975881Y-100979200D02*
X161737786Y-101693485D01*
X161737786Y-101693485D02*
X162356833Y-101693485D01*
X161286183Y-117915019D02*
X160952850Y-117438828D01*
X160714755Y-117915019D02*
X160714755Y-116915019D01*
X160714755Y-116915019D02*
X161095707Y-116915019D01*
X161095707Y-116915019D02*
X161190945Y-116962638D01*
X161190945Y-116962638D02*
X161238564Y-117010257D01*
X161238564Y-117010257D02*
X161286183Y-117105495D01*
X161286183Y-117105495D02*
X161286183Y-117248352D01*
X161286183Y-117248352D02*
X161238564Y-117343590D01*
X161238564Y-117343590D02*
X161190945Y-117391209D01*
X161190945Y-117391209D02*
X161095707Y-117438828D01*
X161095707Y-117438828D02*
X160714755Y-117438828D01*
X162143326Y-117248352D02*
X162143326Y-117915019D01*
X161905231Y-116867400D02*
X161667136Y-117581685D01*
X161667136Y-117581685D02*
X162286183Y-117581685D01*
X165452833Y-107640219D02*
X165119500Y-107164028D01*
X164881405Y-107640219D02*
X164881405Y-106640219D01*
X164881405Y-106640219D02*
X165262357Y-106640219D01*
X165262357Y-106640219D02*
X165357595Y-106687838D01*
X165357595Y-106687838D02*
X165405214Y-106735457D01*
X165405214Y-106735457D02*
X165452833Y-106830695D01*
X165452833Y-106830695D02*
X165452833Y-106973552D01*
X165452833Y-106973552D02*
X165405214Y-107068790D01*
X165405214Y-107068790D02*
X165357595Y-107116409D01*
X165357595Y-107116409D02*
X165262357Y-107164028D01*
X165262357Y-107164028D02*
X164881405Y-107164028D01*
X165833786Y-106735457D02*
X165881405Y-106687838D01*
X165881405Y-106687838D02*
X165976643Y-106640219D01*
X165976643Y-106640219D02*
X166214738Y-106640219D01*
X166214738Y-106640219D02*
X166309976Y-106687838D01*
X166309976Y-106687838D02*
X166357595Y-106735457D01*
X166357595Y-106735457D02*
X166405214Y-106830695D01*
X166405214Y-106830695D02*
X166405214Y-106925933D01*
X166405214Y-106925933D02*
X166357595Y-107068790D01*
X166357595Y-107068790D02*
X165786167Y-107640219D01*
X165786167Y-107640219D02*
X166405214Y-107640219D01*
D11*
X152029545Y-117044619D02*
X152029545Y-117854142D01*
X152029545Y-117854142D02*
X152077164Y-117949380D01*
X152077164Y-117949380D02*
X152124783Y-117997000D01*
X152124783Y-117997000D02*
X152220021Y-118044619D01*
X152220021Y-118044619D02*
X152410497Y-118044619D01*
X152410497Y-118044619D02*
X152505735Y-117997000D01*
X152505735Y-117997000D02*
X152553354Y-117949380D01*
X152553354Y-117949380D02*
X152600973Y-117854142D01*
X152600973Y-117854142D02*
X152600973Y-117044619D01*
X153600973Y-118044619D02*
X153029545Y-118044619D01*
X153315259Y-118044619D02*
X153315259Y-117044619D01*
X153315259Y-117044619D02*
X153220021Y-117187476D01*
X153220021Y-117187476D02*
X153124783Y-117282714D01*
X153124783Y-117282714D02*
X153029545Y-117330333D01*
X154314534Y-126924419D02*
X154314534Y-127733942D01*
X154314534Y-127733942D02*
X154362153Y-127829180D01*
X154362153Y-127829180D02*
X154409772Y-127876800D01*
X154409772Y-127876800D02*
X154505010Y-127924419D01*
X154505010Y-127924419D02*
X154695486Y-127924419D01*
X154695486Y-127924419D02*
X154790724Y-127876800D01*
X154790724Y-127876800D02*
X154838343Y-127829180D01*
X154838343Y-127829180D02*
X154885962Y-127733942D01*
X154885962Y-127733942D02*
X154885962Y-126924419D01*
X155314534Y-127876800D02*
X155457391Y-127924419D01*
X155457391Y-127924419D02*
X155695486Y-127924419D01*
X155695486Y-127924419D02*
X155790724Y-127876800D01*
X155790724Y-127876800D02*
X155838343Y-127829180D01*
X155838343Y-127829180D02*
X155885962Y-127733942D01*
X155885962Y-127733942D02*
X155885962Y-127638704D01*
X155885962Y-127638704D02*
X155838343Y-127543466D01*
X155838343Y-127543466D02*
X155790724Y-127495847D01*
X155790724Y-127495847D02*
X155695486Y-127448228D01*
X155695486Y-127448228D02*
X155505010Y-127400609D01*
X155505010Y-127400609D02*
X155409772Y-127352990D01*
X155409772Y-127352990D02*
X155362153Y-127305371D01*
X155362153Y-127305371D02*
X155314534Y-127210133D01*
X155314534Y-127210133D02*
X155314534Y-127114895D01*
X155314534Y-127114895D02*
X155362153Y-127019657D01*
X155362153Y-127019657D02*
X155409772Y-126972038D01*
X155409772Y-126972038D02*
X155505010Y-126924419D01*
X155505010Y-126924419D02*
X155743105Y-126924419D01*
X155743105Y-126924419D02*
X155885962Y-126972038D01*
X156647867Y-127400609D02*
X156790724Y-127448228D01*
X156790724Y-127448228D02*
X156838343Y-127495847D01*
X156838343Y-127495847D02*
X156885962Y-127591085D01*
X156885962Y-127591085D02*
X156885962Y-127733942D01*
X156885962Y-127733942D02*
X156838343Y-127829180D01*
X156838343Y-127829180D02*
X156790724Y-127876800D01*
X156790724Y-127876800D02*
X156695486Y-127924419D01*
X156695486Y-127924419D02*
X156314534Y-127924419D01*
X156314534Y-127924419D02*
X156314534Y-126924419D01*
X156314534Y-126924419D02*
X156647867Y-126924419D01*
X156647867Y-126924419D02*
X156743105Y-126972038D01*
X156743105Y-126972038D02*
X156790724Y-127019657D01*
X156790724Y-127019657D02*
X156838343Y-127114895D01*
X156838343Y-127114895D02*
X156838343Y-127210133D01*
X156838343Y-127210133D02*
X156790724Y-127305371D01*
X156790724Y-127305371D02*
X156743105Y-127352990D01*
X156743105Y-127352990D02*
X156647867Y-127400609D01*
X156647867Y-127400609D02*
X156314534Y-127400609D01*
D10*
X177988345Y-123290419D02*
X177988345Y-124099942D01*
X177988345Y-124099942D02*
X178035964Y-124195180D01*
X178035964Y-124195180D02*
X178083583Y-124242800D01*
X178083583Y-124242800D02*
X178178821Y-124290419D01*
X178178821Y-124290419D02*
X178369297Y-124290419D01*
X178369297Y-124290419D02*
X178464535Y-124242800D01*
X178464535Y-124242800D02*
X178512154Y-124195180D01*
X178512154Y-124195180D02*
X178559773Y-124099942D01*
X178559773Y-124099942D02*
X178559773Y-123290419D01*
X178988345Y-123385657D02*
X179035964Y-123338038D01*
X179035964Y-123338038D02*
X179131202Y-123290419D01*
X179131202Y-123290419D02*
X179369297Y-123290419D01*
X179369297Y-123290419D02*
X179464535Y-123338038D01*
X179464535Y-123338038D02*
X179512154Y-123385657D01*
X179512154Y-123385657D02*
X179559773Y-123480895D01*
X179559773Y-123480895D02*
X179559773Y-123576133D01*
X179559773Y-123576133D02*
X179512154Y-123718990D01*
X179512154Y-123718990D02*
X178940726Y-124290419D01*
X178940726Y-124290419D02*
X179559773Y-124290419D01*
X165382183Y-123528419D02*
X165048850Y-123052228D01*
X164810755Y-123528419D02*
X164810755Y-122528419D01*
X164810755Y-122528419D02*
X165191707Y-122528419D01*
X165191707Y-122528419D02*
X165286945Y-122576038D01*
X165286945Y-122576038D02*
X165334564Y-122623657D01*
X165334564Y-122623657D02*
X165382183Y-122718895D01*
X165382183Y-122718895D02*
X165382183Y-122861752D01*
X165382183Y-122861752D02*
X165334564Y-122956990D01*
X165334564Y-122956990D02*
X165286945Y-123004609D01*
X165286945Y-123004609D02*
X165191707Y-123052228D01*
X165191707Y-123052228D02*
X164810755Y-123052228D01*
X165763136Y-122623657D02*
X165810755Y-122576038D01*
X165810755Y-122576038D02*
X165905993Y-122528419D01*
X165905993Y-122528419D02*
X166144088Y-122528419D01*
X166144088Y-122528419D02*
X166239326Y-122576038D01*
X166239326Y-122576038D02*
X166286945Y-122623657D01*
X166286945Y-122623657D02*
X166334564Y-122718895D01*
X166334564Y-122718895D02*
X166334564Y-122814133D01*
X166334564Y-122814133D02*
X166286945Y-122956990D01*
X166286945Y-122956990D02*
X165715517Y-123528419D01*
X165715517Y-123528419D02*
X166334564Y-123528419D01*
X178476869Y-118834933D02*
X179191154Y-118834933D01*
X179191154Y-118834933D02*
X179334011Y-118882552D01*
X179334011Y-118882552D02*
X179429250Y-118977790D01*
X179429250Y-118977790D02*
X179476869Y-119120647D01*
X179476869Y-119120647D02*
X179476869Y-119215885D01*
X178572107Y-118406361D02*
X178524488Y-118358742D01*
X178524488Y-118358742D02*
X178476869Y-118263504D01*
X178476869Y-118263504D02*
X178476869Y-118025409D01*
X178476869Y-118025409D02*
X178524488Y-117930171D01*
X178524488Y-117930171D02*
X178572107Y-117882552D01*
X178572107Y-117882552D02*
X178667345Y-117834933D01*
X178667345Y-117834933D02*
X178762583Y-117834933D01*
X178762583Y-117834933D02*
X178905440Y-117882552D01*
X178905440Y-117882552D02*
X179476869Y-118453980D01*
X179476869Y-118453980D02*
X179476869Y-117834933D01*
X161837633Y-70680219D02*
X161504300Y-70204028D01*
X161266205Y-70680219D02*
X161266205Y-69680219D01*
X161266205Y-69680219D02*
X161647157Y-69680219D01*
X161647157Y-69680219D02*
X161742395Y-69727838D01*
X161742395Y-69727838D02*
X161790014Y-69775457D01*
X161790014Y-69775457D02*
X161837633Y-69870695D01*
X161837633Y-69870695D02*
X161837633Y-70013552D01*
X161837633Y-70013552D02*
X161790014Y-70108790D01*
X161790014Y-70108790D02*
X161742395Y-70156409D01*
X161742395Y-70156409D02*
X161647157Y-70204028D01*
X161647157Y-70204028D02*
X161266205Y-70204028D01*
X162694776Y-70013552D02*
X162694776Y-70680219D01*
X162456681Y-69632600D02*
X162218586Y-70346885D01*
X162218586Y-70346885D02*
X162837633Y-70346885D01*
D11*
X152510345Y-85698019D02*
X152510345Y-86507542D01*
X152510345Y-86507542D02*
X152557964Y-86602780D01*
X152557964Y-86602780D02*
X152605583Y-86650400D01*
X152605583Y-86650400D02*
X152700821Y-86698019D01*
X152700821Y-86698019D02*
X152891297Y-86698019D01*
X152891297Y-86698019D02*
X152986535Y-86650400D01*
X152986535Y-86650400D02*
X153034154Y-86602780D01*
X153034154Y-86602780D02*
X153081773Y-86507542D01*
X153081773Y-86507542D02*
X153081773Y-85698019D01*
X154081773Y-86698019D02*
X153510345Y-86698019D01*
X153796059Y-86698019D02*
X153796059Y-85698019D01*
X153796059Y-85698019D02*
X153700821Y-85840876D01*
X153700821Y-85840876D02*
X153605583Y-85936114D01*
X153605583Y-85936114D02*
X153510345Y-85983733D01*
X154795334Y-95577819D02*
X154795334Y-96387342D01*
X154795334Y-96387342D02*
X154842953Y-96482580D01*
X154842953Y-96482580D02*
X154890572Y-96530200D01*
X154890572Y-96530200D02*
X154985810Y-96577819D01*
X154985810Y-96577819D02*
X155176286Y-96577819D01*
X155176286Y-96577819D02*
X155271524Y-96530200D01*
X155271524Y-96530200D02*
X155319143Y-96482580D01*
X155319143Y-96482580D02*
X155366762Y-96387342D01*
X155366762Y-96387342D02*
X155366762Y-95577819D01*
X155795334Y-96530200D02*
X155938191Y-96577819D01*
X155938191Y-96577819D02*
X156176286Y-96577819D01*
X156176286Y-96577819D02*
X156271524Y-96530200D01*
X156271524Y-96530200D02*
X156319143Y-96482580D01*
X156319143Y-96482580D02*
X156366762Y-96387342D01*
X156366762Y-96387342D02*
X156366762Y-96292104D01*
X156366762Y-96292104D02*
X156319143Y-96196866D01*
X156319143Y-96196866D02*
X156271524Y-96149247D01*
X156271524Y-96149247D02*
X156176286Y-96101628D01*
X156176286Y-96101628D02*
X155985810Y-96054009D01*
X155985810Y-96054009D02*
X155890572Y-96006390D01*
X155890572Y-96006390D02*
X155842953Y-95958771D01*
X155842953Y-95958771D02*
X155795334Y-95863533D01*
X155795334Y-95863533D02*
X155795334Y-95768295D01*
X155795334Y-95768295D02*
X155842953Y-95673057D01*
X155842953Y-95673057D02*
X155890572Y-95625438D01*
X155890572Y-95625438D02*
X155985810Y-95577819D01*
X155985810Y-95577819D02*
X156223905Y-95577819D01*
X156223905Y-95577819D02*
X156366762Y-95625438D01*
X157128667Y-96054009D02*
X157271524Y-96101628D01*
X157271524Y-96101628D02*
X157319143Y-96149247D01*
X157319143Y-96149247D02*
X157366762Y-96244485D01*
X157366762Y-96244485D02*
X157366762Y-96387342D01*
X157366762Y-96387342D02*
X157319143Y-96482580D01*
X157319143Y-96482580D02*
X157271524Y-96530200D01*
X157271524Y-96530200D02*
X157176286Y-96577819D01*
X157176286Y-96577819D02*
X156795334Y-96577819D01*
X156795334Y-96577819D02*
X156795334Y-95577819D01*
X156795334Y-95577819D02*
X157128667Y-95577819D01*
X157128667Y-95577819D02*
X157223905Y-95625438D01*
X157223905Y-95625438D02*
X157271524Y-95673057D01*
X157271524Y-95673057D02*
X157319143Y-95768295D01*
X157319143Y-95768295D02*
X157319143Y-95863533D01*
X157319143Y-95863533D02*
X157271524Y-95958771D01*
X157271524Y-95958771D02*
X157223905Y-96006390D01*
X157223905Y-96006390D02*
X157128667Y-96054009D01*
X157128667Y-96054009D02*
X156795334Y-96054009D01*
D10*
X162612405Y-81703819D02*
X162612405Y-80703819D01*
X162612405Y-80703819D02*
X162850500Y-80703819D01*
X162850500Y-80703819D02*
X162993357Y-80751438D01*
X162993357Y-80751438D02*
X163088595Y-80846676D01*
X163088595Y-80846676D02*
X163136214Y-80941914D01*
X163136214Y-80941914D02*
X163183833Y-81132390D01*
X163183833Y-81132390D02*
X163183833Y-81275247D01*
X163183833Y-81275247D02*
X163136214Y-81465723D01*
X163136214Y-81465723D02*
X163088595Y-81560961D01*
X163088595Y-81560961D02*
X162993357Y-81656200D01*
X162993357Y-81656200D02*
X162850500Y-81703819D01*
X162850500Y-81703819D02*
X162612405Y-81703819D01*
X163564786Y-80799057D02*
X163612405Y-80751438D01*
X163612405Y-80751438D02*
X163707643Y-80703819D01*
X163707643Y-80703819D02*
X163945738Y-80703819D01*
X163945738Y-80703819D02*
X164040976Y-80751438D01*
X164040976Y-80751438D02*
X164088595Y-80799057D01*
X164088595Y-80799057D02*
X164136214Y-80894295D01*
X164136214Y-80894295D02*
X164136214Y-80989533D01*
X164136214Y-80989533D02*
X164088595Y-81132390D01*
X164088595Y-81132390D02*
X163517167Y-81703819D01*
X163517167Y-81703819D02*
X164136214Y-81703819D01*
X178957669Y-87488333D02*
X179671954Y-87488333D01*
X179671954Y-87488333D02*
X179814811Y-87535952D01*
X179814811Y-87535952D02*
X179910050Y-87631190D01*
X179910050Y-87631190D02*
X179957669Y-87774047D01*
X179957669Y-87774047D02*
X179957669Y-87869285D01*
X179052907Y-87059761D02*
X179005288Y-87012142D01*
X179005288Y-87012142D02*
X178957669Y-86916904D01*
X178957669Y-86916904D02*
X178957669Y-86678809D01*
X178957669Y-86678809D02*
X179005288Y-86583571D01*
X179005288Y-86583571D02*
X179052907Y-86535952D01*
X179052907Y-86535952D02*
X179148145Y-86488333D01*
X179148145Y-86488333D02*
X179243383Y-86488333D01*
X179243383Y-86488333D02*
X179386240Y-86535952D01*
X179386240Y-86535952D02*
X179957669Y-87107380D01*
X179957669Y-87107380D02*
X179957669Y-86488333D01*
X166755469Y-96987933D02*
X167469754Y-96987933D01*
X167469754Y-96987933D02*
X167612611Y-97035552D01*
X167612611Y-97035552D02*
X167707850Y-97130790D01*
X167707850Y-97130790D02*
X167755469Y-97273647D01*
X167755469Y-97273647D02*
X167755469Y-97368885D01*
X167755469Y-95987933D02*
X167755469Y-96559361D01*
X167755469Y-96273647D02*
X166755469Y-96273647D01*
X166755469Y-96273647D02*
X166898326Y-96368885D01*
X166898326Y-96368885D02*
X166993564Y-96464123D01*
X166993564Y-96464123D02*
X167041183Y-96559361D01*
X159894605Y-82338819D02*
X159894605Y-81338819D01*
X159894605Y-81338819D02*
X160132700Y-81338819D01*
X160132700Y-81338819D02*
X160275557Y-81386438D01*
X160275557Y-81386438D02*
X160370795Y-81481676D01*
X160370795Y-81481676D02*
X160418414Y-81576914D01*
X160418414Y-81576914D02*
X160466033Y-81767390D01*
X160466033Y-81767390D02*
X160466033Y-81910247D01*
X160466033Y-81910247D02*
X160418414Y-82100723D01*
X160418414Y-82100723D02*
X160370795Y-82195961D01*
X160370795Y-82195961D02*
X160275557Y-82291200D01*
X160275557Y-82291200D02*
X160132700Y-82338819D01*
X160132700Y-82338819D02*
X159894605Y-82338819D01*
X161418414Y-82338819D02*
X160846986Y-82338819D01*
X161132700Y-82338819D02*
X161132700Y-81338819D01*
X161132700Y-81338819D02*
X161037462Y-81481676D01*
X161037462Y-81481676D02*
X160942224Y-81576914D01*
X160942224Y-81576914D02*
X160846986Y-81624533D01*
X180740783Y-89084019D02*
X180407450Y-88607828D01*
X180169355Y-89084019D02*
X180169355Y-88084019D01*
X180169355Y-88084019D02*
X180550307Y-88084019D01*
X180550307Y-88084019D02*
X180645545Y-88131638D01*
X180645545Y-88131638D02*
X180693164Y-88179257D01*
X180693164Y-88179257D02*
X180740783Y-88274495D01*
X180740783Y-88274495D02*
X180740783Y-88417352D01*
X180740783Y-88417352D02*
X180693164Y-88512590D01*
X180693164Y-88512590D02*
X180645545Y-88560209D01*
X180645545Y-88560209D02*
X180550307Y-88607828D01*
X180550307Y-88607828D02*
X180169355Y-88607828D01*
X181074117Y-88084019D02*
X181693164Y-88084019D01*
X181693164Y-88084019D02*
X181359831Y-88464971D01*
X181359831Y-88464971D02*
X181502688Y-88464971D01*
X181502688Y-88464971D02*
X181597926Y-88512590D01*
X181597926Y-88512590D02*
X181645545Y-88560209D01*
X181645545Y-88560209D02*
X181693164Y-88655447D01*
X181693164Y-88655447D02*
X181693164Y-88893542D01*
X181693164Y-88893542D02*
X181645545Y-88988780D01*
X181645545Y-88988780D02*
X181597926Y-89036400D01*
X181597926Y-89036400D02*
X181502688Y-89084019D01*
X181502688Y-89084019D02*
X181216974Y-89084019D01*
X181216974Y-89084019D02*
X181121736Y-89036400D01*
X181121736Y-89036400D02*
X181074117Y-88988780D01*
X165765233Y-72814819D02*
X165431900Y-72338628D01*
X165193805Y-72814819D02*
X165193805Y-71814819D01*
X165193805Y-71814819D02*
X165574757Y-71814819D01*
X165574757Y-71814819D02*
X165669995Y-71862438D01*
X165669995Y-71862438D02*
X165717614Y-71910057D01*
X165717614Y-71910057D02*
X165765233Y-72005295D01*
X165765233Y-72005295D02*
X165765233Y-72148152D01*
X165765233Y-72148152D02*
X165717614Y-72243390D01*
X165717614Y-72243390D02*
X165669995Y-72291009D01*
X165669995Y-72291009D02*
X165574757Y-72338628D01*
X165574757Y-72338628D02*
X165193805Y-72338628D01*
X166717614Y-72814819D02*
X166146186Y-72814819D01*
X166431900Y-72814819D02*
X166431900Y-71814819D01*
X166431900Y-71814819D02*
X166336662Y-71957676D01*
X166336662Y-71957676D02*
X166241424Y-72052914D01*
X166241424Y-72052914D02*
X166146186Y-72100533D01*
X162541755Y-97592019D02*
X162541755Y-96592019D01*
X162541755Y-96592019D02*
X162779850Y-96592019D01*
X162779850Y-96592019D02*
X162922707Y-96639638D01*
X162922707Y-96639638D02*
X163017945Y-96734876D01*
X163017945Y-96734876D02*
X163065564Y-96830114D01*
X163065564Y-96830114D02*
X163113183Y-97020590D01*
X163113183Y-97020590D02*
X163113183Y-97163447D01*
X163113183Y-97163447D02*
X163065564Y-97353923D01*
X163065564Y-97353923D02*
X163017945Y-97449161D01*
X163017945Y-97449161D02*
X162922707Y-97544400D01*
X162922707Y-97544400D02*
X162779850Y-97592019D01*
X162779850Y-97592019D02*
X162541755Y-97592019D01*
X163494136Y-96687257D02*
X163541755Y-96639638D01*
X163541755Y-96639638D02*
X163636993Y-96592019D01*
X163636993Y-96592019D02*
X163875088Y-96592019D01*
X163875088Y-96592019D02*
X163970326Y-96639638D01*
X163970326Y-96639638D02*
X164017945Y-96687257D01*
X164017945Y-96687257D02*
X164065564Y-96782495D01*
X164065564Y-96782495D02*
X164065564Y-96877733D01*
X164065564Y-96877733D02*
X164017945Y-97020590D01*
X164017945Y-97020590D02*
X163446517Y-97592019D01*
X163446517Y-97592019D02*
X164065564Y-97592019D01*
X159343155Y-129573619D02*
X159343155Y-128573619D01*
X159343155Y-128573619D02*
X159581250Y-128573619D01*
X159581250Y-128573619D02*
X159724107Y-128621238D01*
X159724107Y-128621238D02*
X159819345Y-128716476D01*
X159819345Y-128716476D02*
X159866964Y-128811714D01*
X159866964Y-128811714D02*
X159914583Y-129002190D01*
X159914583Y-129002190D02*
X159914583Y-129145047D01*
X159914583Y-129145047D02*
X159866964Y-129335523D01*
X159866964Y-129335523D02*
X159819345Y-129430761D01*
X159819345Y-129430761D02*
X159724107Y-129526000D01*
X159724107Y-129526000D02*
X159581250Y-129573619D01*
X159581250Y-129573619D02*
X159343155Y-129573619D01*
X160866964Y-129573619D02*
X160295536Y-129573619D01*
X160581250Y-129573619D02*
X160581250Y-128573619D01*
X160581250Y-128573619D02*
X160486012Y-128716476D01*
X160486012Y-128716476D02*
X160390774Y-128811714D01*
X160390774Y-128811714D02*
X160295536Y-128859333D01*
X166826119Y-81099733D02*
X167540404Y-81099733D01*
X167540404Y-81099733D02*
X167683261Y-81147352D01*
X167683261Y-81147352D02*
X167778500Y-81242590D01*
X167778500Y-81242590D02*
X167826119Y-81385447D01*
X167826119Y-81385447D02*
X167826119Y-81480685D01*
X167826119Y-80099733D02*
X167826119Y-80671161D01*
X167826119Y-80385447D02*
X166826119Y-80385447D01*
X166826119Y-80385447D02*
X166968976Y-80480685D01*
X166968976Y-80480685D02*
X167064214Y-80575923D01*
X167064214Y-80575923D02*
X167111833Y-80671161D01*
X179443669Y-96554494D02*
X178443669Y-96554494D01*
X178443669Y-96554494D02*
X178443669Y-96316399D01*
X178443669Y-96316399D02*
X178491288Y-96173542D01*
X178491288Y-96173542D02*
X178586526Y-96078304D01*
X178586526Y-96078304D02*
X178681764Y-96030685D01*
X178681764Y-96030685D02*
X178872240Y-95983066D01*
X178872240Y-95983066D02*
X179015097Y-95983066D01*
X179015097Y-95983066D02*
X179205573Y-96030685D01*
X179205573Y-96030685D02*
X179300811Y-96078304D01*
X179300811Y-96078304D02*
X179396050Y-96173542D01*
X179396050Y-96173542D02*
X179443669Y-96316399D01*
X179443669Y-96316399D02*
X179443669Y-96554494D01*
X178443669Y-95649732D02*
X178443669Y-95030685D01*
X178443669Y-95030685D02*
X178824621Y-95364018D01*
X178824621Y-95364018D02*
X178824621Y-95221161D01*
X178824621Y-95221161D02*
X178872240Y-95125923D01*
X178872240Y-95125923D02*
X178919859Y-95078304D01*
X178919859Y-95078304D02*
X179015097Y-95030685D01*
X179015097Y-95030685D02*
X179253192Y-95030685D01*
X179253192Y-95030685D02*
X179348430Y-95078304D01*
X179348430Y-95078304D02*
X179396050Y-95125923D01*
X179396050Y-95125923D02*
X179443669Y-95221161D01*
X179443669Y-95221161D02*
X179443669Y-95506875D01*
X179443669Y-95506875D02*
X179396050Y-95602113D01*
X179396050Y-95602113D02*
X179348430Y-95649732D01*
X157011633Y-70635780D02*
X156964014Y-70683400D01*
X156964014Y-70683400D02*
X156821157Y-70731019D01*
X156821157Y-70731019D02*
X156725919Y-70731019D01*
X156725919Y-70731019D02*
X156583062Y-70683400D01*
X156583062Y-70683400D02*
X156487824Y-70588161D01*
X156487824Y-70588161D02*
X156440205Y-70492923D01*
X156440205Y-70492923D02*
X156392586Y-70302447D01*
X156392586Y-70302447D02*
X156392586Y-70159590D01*
X156392586Y-70159590D02*
X156440205Y-69969114D01*
X156440205Y-69969114D02*
X156487824Y-69873876D01*
X156487824Y-69873876D02*
X156583062Y-69778638D01*
X156583062Y-69778638D02*
X156725919Y-69731019D01*
X156725919Y-69731019D02*
X156821157Y-69731019D01*
X156821157Y-69731019D02*
X156964014Y-69778638D01*
X156964014Y-69778638D02*
X157011633Y-69826257D01*
X157964014Y-70731019D02*
X157392586Y-70731019D01*
X157678300Y-70731019D02*
X157678300Y-69731019D01*
X157678300Y-69731019D02*
X157583062Y-69873876D01*
X157583062Y-69873876D02*
X157487824Y-69969114D01*
X157487824Y-69969114D02*
X157392586Y-70016733D01*
X165213783Y-120049619D02*
X164880450Y-119573428D01*
X164642355Y-120049619D02*
X164642355Y-119049619D01*
X164642355Y-119049619D02*
X165023307Y-119049619D01*
X165023307Y-119049619D02*
X165118545Y-119097238D01*
X165118545Y-119097238D02*
X165166164Y-119144857D01*
X165166164Y-119144857D02*
X165213783Y-119240095D01*
X165213783Y-119240095D02*
X165213783Y-119382952D01*
X165213783Y-119382952D02*
X165166164Y-119478190D01*
X165166164Y-119478190D02*
X165118545Y-119525809D01*
X165118545Y-119525809D02*
X165023307Y-119573428D01*
X165023307Y-119573428D02*
X164642355Y-119573428D01*
X166166164Y-120049619D02*
X165594736Y-120049619D01*
X165880450Y-120049619D02*
X165880450Y-119049619D01*
X165880450Y-119049619D02*
X165785212Y-119192476D01*
X165785212Y-119192476D02*
X165689974Y-119287714D01*
X165689974Y-119287714D02*
X165594736Y-119335333D01*
X166274669Y-128334533D02*
X166988954Y-128334533D01*
X166988954Y-128334533D02*
X167131811Y-128382152D01*
X167131811Y-128382152D02*
X167227050Y-128477390D01*
X167227050Y-128477390D02*
X167274669Y-128620247D01*
X167274669Y-128620247D02*
X167274669Y-128715485D01*
X167274669Y-127334533D02*
X167274669Y-127905961D01*
X167274669Y-127620247D02*
X166274669Y-127620247D01*
X166274669Y-127620247D02*
X166417526Y-127715485D01*
X166417526Y-127715485D02*
X166512764Y-127810723D01*
X166512764Y-127810723D02*
X166560383Y-127905961D01*
X179028319Y-71600133D02*
X179742604Y-71600133D01*
X179742604Y-71600133D02*
X179885461Y-71647752D01*
X179885461Y-71647752D02*
X179980700Y-71742990D01*
X179980700Y-71742990D02*
X180028319Y-71885847D01*
X180028319Y-71885847D02*
X180028319Y-71981085D01*
X179123557Y-71171561D02*
X179075938Y-71123942D01*
X179075938Y-71123942D02*
X179028319Y-71028704D01*
X179028319Y-71028704D02*
X179028319Y-70790609D01*
X179028319Y-70790609D02*
X179075938Y-70695371D01*
X179075938Y-70695371D02*
X179123557Y-70647752D01*
X179123557Y-70647752D02*
X179218795Y-70600133D01*
X179218795Y-70600133D02*
X179314033Y-70600133D01*
X179314033Y-70600133D02*
X179456890Y-70647752D01*
X179456890Y-70647752D02*
X180028319Y-71219180D01*
X180028319Y-71219180D02*
X180028319Y-70600133D01*
D11*
X152580995Y-69809819D02*
X152580995Y-70619342D01*
X152580995Y-70619342D02*
X152628614Y-70714580D01*
X152628614Y-70714580D02*
X152676233Y-70762200D01*
X152676233Y-70762200D02*
X152771471Y-70809819D01*
X152771471Y-70809819D02*
X152961947Y-70809819D01*
X152961947Y-70809819D02*
X153057185Y-70762200D01*
X153057185Y-70762200D02*
X153104804Y-70714580D01*
X153104804Y-70714580D02*
X153152423Y-70619342D01*
X153152423Y-70619342D02*
X153152423Y-69809819D01*
X154152423Y-70809819D02*
X153580995Y-70809819D01*
X153866709Y-70809819D02*
X153866709Y-69809819D01*
X153866709Y-69809819D02*
X153771471Y-69952676D01*
X153771471Y-69952676D02*
X153676233Y-70047914D01*
X153676233Y-70047914D02*
X153580995Y-70095533D01*
X154865984Y-79689619D02*
X154865984Y-80499142D01*
X154865984Y-80499142D02*
X154913603Y-80594380D01*
X154913603Y-80594380D02*
X154961222Y-80642000D01*
X154961222Y-80642000D02*
X155056460Y-80689619D01*
X155056460Y-80689619D02*
X155246936Y-80689619D01*
X155246936Y-80689619D02*
X155342174Y-80642000D01*
X155342174Y-80642000D02*
X155389793Y-80594380D01*
X155389793Y-80594380D02*
X155437412Y-80499142D01*
X155437412Y-80499142D02*
X155437412Y-79689619D01*
X155865984Y-80642000D02*
X156008841Y-80689619D01*
X156008841Y-80689619D02*
X156246936Y-80689619D01*
X156246936Y-80689619D02*
X156342174Y-80642000D01*
X156342174Y-80642000D02*
X156389793Y-80594380D01*
X156389793Y-80594380D02*
X156437412Y-80499142D01*
X156437412Y-80499142D02*
X156437412Y-80403904D01*
X156437412Y-80403904D02*
X156389793Y-80308666D01*
X156389793Y-80308666D02*
X156342174Y-80261047D01*
X156342174Y-80261047D02*
X156246936Y-80213428D01*
X156246936Y-80213428D02*
X156056460Y-80165809D01*
X156056460Y-80165809D02*
X155961222Y-80118190D01*
X155961222Y-80118190D02*
X155913603Y-80070571D01*
X155913603Y-80070571D02*
X155865984Y-79975333D01*
X155865984Y-79975333D02*
X155865984Y-79880095D01*
X155865984Y-79880095D02*
X155913603Y-79784857D01*
X155913603Y-79784857D02*
X155961222Y-79737238D01*
X155961222Y-79737238D02*
X156056460Y-79689619D01*
X156056460Y-79689619D02*
X156294555Y-79689619D01*
X156294555Y-79689619D02*
X156437412Y-79737238D01*
X157199317Y-80165809D02*
X157342174Y-80213428D01*
X157342174Y-80213428D02*
X157389793Y-80261047D01*
X157389793Y-80261047D02*
X157437412Y-80356285D01*
X157437412Y-80356285D02*
X157437412Y-80499142D01*
X157437412Y-80499142D02*
X157389793Y-80594380D01*
X157389793Y-80594380D02*
X157342174Y-80642000D01*
X157342174Y-80642000D02*
X157246936Y-80689619D01*
X157246936Y-80689619D02*
X156865984Y-80689619D01*
X156865984Y-80689619D02*
X156865984Y-79689619D01*
X156865984Y-79689619D02*
X157199317Y-79689619D01*
X157199317Y-79689619D02*
X157294555Y-79737238D01*
X157294555Y-79737238D02*
X157342174Y-79784857D01*
X157342174Y-79784857D02*
X157389793Y-79880095D01*
X157389793Y-79880095D02*
X157389793Y-79975333D01*
X157389793Y-79975333D02*
X157342174Y-80070571D01*
X157342174Y-80070571D02*
X157294555Y-80118190D01*
X157294555Y-80118190D02*
X157199317Y-80165809D01*
X157199317Y-80165809D02*
X156865984Y-80165809D01*
D10*
X178539795Y-76055619D02*
X178539795Y-76865142D01*
X178539795Y-76865142D02*
X178587414Y-76960380D01*
X178587414Y-76960380D02*
X178635033Y-77008000D01*
X178635033Y-77008000D02*
X178730271Y-77055619D01*
X178730271Y-77055619D02*
X178920747Y-77055619D01*
X178920747Y-77055619D02*
X179015985Y-77008000D01*
X179015985Y-77008000D02*
X179063604Y-76960380D01*
X179063604Y-76960380D02*
X179111223Y-76865142D01*
X179111223Y-76865142D02*
X179111223Y-76055619D01*
X179539795Y-76150857D02*
X179587414Y-76103238D01*
X179587414Y-76103238D02*
X179682652Y-76055619D01*
X179682652Y-76055619D02*
X179920747Y-76055619D01*
X179920747Y-76055619D02*
X180015985Y-76103238D01*
X180015985Y-76103238D02*
X180063604Y-76150857D01*
X180063604Y-76150857D02*
X180111223Y-76246095D01*
X180111223Y-76246095D02*
X180111223Y-76341333D01*
X180111223Y-76341333D02*
X180063604Y-76484190D01*
X180063604Y-76484190D02*
X179492176Y-77055619D01*
X179492176Y-77055619D02*
X180111223Y-77055619D01*
X161766983Y-86568419D02*
X161433650Y-86092228D01*
X161195555Y-86568419D02*
X161195555Y-85568419D01*
X161195555Y-85568419D02*
X161576507Y-85568419D01*
X161576507Y-85568419D02*
X161671745Y-85616038D01*
X161671745Y-85616038D02*
X161719364Y-85663657D01*
X161719364Y-85663657D02*
X161766983Y-85758895D01*
X161766983Y-85758895D02*
X161766983Y-85901752D01*
X161766983Y-85901752D02*
X161719364Y-85996990D01*
X161719364Y-85996990D02*
X161671745Y-86044609D01*
X161671745Y-86044609D02*
X161576507Y-86092228D01*
X161576507Y-86092228D02*
X161195555Y-86092228D01*
X162624126Y-85901752D02*
X162624126Y-86568419D01*
X162386031Y-85520800D02*
X162147936Y-86235085D01*
X162147936Y-86235085D02*
X162766983Y-86235085D01*
X156940983Y-86523980D02*
X156893364Y-86571600D01*
X156893364Y-86571600D02*
X156750507Y-86619219D01*
X156750507Y-86619219D02*
X156655269Y-86619219D01*
X156655269Y-86619219D02*
X156512412Y-86571600D01*
X156512412Y-86571600D02*
X156417174Y-86476361D01*
X156417174Y-86476361D02*
X156369555Y-86381123D01*
X156369555Y-86381123D02*
X156321936Y-86190647D01*
X156321936Y-86190647D02*
X156321936Y-86047790D01*
X156321936Y-86047790D02*
X156369555Y-85857314D01*
X156369555Y-85857314D02*
X156417174Y-85762076D01*
X156417174Y-85762076D02*
X156512412Y-85666838D01*
X156512412Y-85666838D02*
X156655269Y-85619219D01*
X156655269Y-85619219D02*
X156750507Y-85619219D01*
X156750507Y-85619219D02*
X156893364Y-85666838D01*
X156893364Y-85666838D02*
X156940983Y-85714457D01*
X157893364Y-86619219D02*
X157321936Y-86619219D01*
X157607650Y-86619219D02*
X157607650Y-85619219D01*
X157607650Y-85619219D02*
X157512412Y-85762076D01*
X157512412Y-85762076D02*
X157417174Y-85857314D01*
X157417174Y-85857314D02*
X157321936Y-85904933D01*
X178469145Y-91943819D02*
X178469145Y-92753342D01*
X178469145Y-92753342D02*
X178516764Y-92848580D01*
X178516764Y-92848580D02*
X178564383Y-92896200D01*
X178564383Y-92896200D02*
X178659621Y-92943819D01*
X178659621Y-92943819D02*
X178850097Y-92943819D01*
X178850097Y-92943819D02*
X178945335Y-92896200D01*
X178945335Y-92896200D02*
X178992954Y-92848580D01*
X178992954Y-92848580D02*
X179040573Y-92753342D01*
X179040573Y-92753342D02*
X179040573Y-91943819D01*
X179469145Y-92039057D02*
X179516764Y-91991438D01*
X179516764Y-91991438D02*
X179612002Y-91943819D01*
X179612002Y-91943819D02*
X179850097Y-91943819D01*
X179850097Y-91943819D02*
X179945335Y-91991438D01*
X179945335Y-91991438D02*
X179992954Y-92039057D01*
X179992954Y-92039057D02*
X180040573Y-92134295D01*
X180040573Y-92134295D02*
X180040573Y-92229533D01*
X180040573Y-92229533D02*
X179992954Y-92372390D01*
X179992954Y-92372390D02*
X179421526Y-92943819D01*
X179421526Y-92943819D02*
X180040573Y-92943819D01*
X179514319Y-80666294D02*
X178514319Y-80666294D01*
X178514319Y-80666294D02*
X178514319Y-80428199D01*
X178514319Y-80428199D02*
X178561938Y-80285342D01*
X178561938Y-80285342D02*
X178657176Y-80190104D01*
X178657176Y-80190104D02*
X178752414Y-80142485D01*
X178752414Y-80142485D02*
X178942890Y-80094866D01*
X178942890Y-80094866D02*
X179085747Y-80094866D01*
X179085747Y-80094866D02*
X179276223Y-80142485D01*
X179276223Y-80142485D02*
X179371461Y-80190104D01*
X179371461Y-80190104D02*
X179466700Y-80285342D01*
X179466700Y-80285342D02*
X179514319Y-80428199D01*
X179514319Y-80428199D02*
X179514319Y-80666294D01*
X178514319Y-79761532D02*
X178514319Y-79142485D01*
X178514319Y-79142485D02*
X178895271Y-79475818D01*
X178895271Y-79475818D02*
X178895271Y-79332961D01*
X178895271Y-79332961D02*
X178942890Y-79237723D01*
X178942890Y-79237723D02*
X178990509Y-79190104D01*
X178990509Y-79190104D02*
X179085747Y-79142485D01*
X179085747Y-79142485D02*
X179323842Y-79142485D01*
X179323842Y-79142485D02*
X179419080Y-79190104D01*
X179419080Y-79190104D02*
X179466700Y-79237723D01*
X179466700Y-79237723D02*
X179514319Y-79332961D01*
X179514319Y-79332961D02*
X179514319Y-79618675D01*
X179514319Y-79618675D02*
X179466700Y-79713913D01*
X179466700Y-79713913D02*
X179419080Y-79761532D01*
X165862983Y-92181819D02*
X165529650Y-91705628D01*
X165291555Y-92181819D02*
X165291555Y-91181819D01*
X165291555Y-91181819D02*
X165672507Y-91181819D01*
X165672507Y-91181819D02*
X165767745Y-91229438D01*
X165767745Y-91229438D02*
X165815364Y-91277057D01*
X165815364Y-91277057D02*
X165862983Y-91372295D01*
X165862983Y-91372295D02*
X165862983Y-91515152D01*
X165862983Y-91515152D02*
X165815364Y-91610390D01*
X165815364Y-91610390D02*
X165767745Y-91658009D01*
X165767745Y-91658009D02*
X165672507Y-91705628D01*
X165672507Y-91705628D02*
X165291555Y-91705628D01*
X166243936Y-91277057D02*
X166291555Y-91229438D01*
X166291555Y-91229438D02*
X166386793Y-91181819D01*
X166386793Y-91181819D02*
X166624888Y-91181819D01*
X166624888Y-91181819D02*
X166720126Y-91229438D01*
X166720126Y-91229438D02*
X166767745Y-91277057D01*
X166767745Y-91277057D02*
X166815364Y-91372295D01*
X166815364Y-91372295D02*
X166815364Y-91467533D01*
X166815364Y-91467533D02*
X166767745Y-91610390D01*
X166767745Y-91610390D02*
X166196317Y-92181819D01*
X166196317Y-92181819D02*
X166815364Y-92181819D01*
X180811433Y-73195819D02*
X180478100Y-72719628D01*
X180240005Y-73195819D02*
X180240005Y-72195819D01*
X180240005Y-72195819D02*
X180620957Y-72195819D01*
X180620957Y-72195819D02*
X180716195Y-72243438D01*
X180716195Y-72243438D02*
X180763814Y-72291057D01*
X180763814Y-72291057D02*
X180811433Y-72386295D01*
X180811433Y-72386295D02*
X180811433Y-72529152D01*
X180811433Y-72529152D02*
X180763814Y-72624390D01*
X180763814Y-72624390D02*
X180716195Y-72672009D01*
X180716195Y-72672009D02*
X180620957Y-72719628D01*
X180620957Y-72719628D02*
X180240005Y-72719628D01*
X181144767Y-72195819D02*
X181763814Y-72195819D01*
X181763814Y-72195819D02*
X181430481Y-72576771D01*
X181430481Y-72576771D02*
X181573338Y-72576771D01*
X181573338Y-72576771D02*
X181668576Y-72624390D01*
X181668576Y-72624390D02*
X181716195Y-72672009D01*
X181716195Y-72672009D02*
X181763814Y-72767247D01*
X181763814Y-72767247D02*
X181763814Y-73005342D01*
X181763814Y-73005342D02*
X181716195Y-73100580D01*
X181716195Y-73100580D02*
X181668576Y-73148200D01*
X181668576Y-73148200D02*
X181573338Y-73195819D01*
X181573338Y-73195819D02*
X181287624Y-73195819D01*
X181287624Y-73195819D02*
X181192386Y-73148200D01*
X181192386Y-73148200D02*
X181144767Y-73100580D01*
X165694583Y-88703019D02*
X165361250Y-88226828D01*
X165123155Y-88703019D02*
X165123155Y-87703019D01*
X165123155Y-87703019D02*
X165504107Y-87703019D01*
X165504107Y-87703019D02*
X165599345Y-87750638D01*
X165599345Y-87750638D02*
X165646964Y-87798257D01*
X165646964Y-87798257D02*
X165694583Y-87893495D01*
X165694583Y-87893495D02*
X165694583Y-88036352D01*
X165694583Y-88036352D02*
X165646964Y-88131590D01*
X165646964Y-88131590D02*
X165599345Y-88179209D01*
X165599345Y-88179209D02*
X165504107Y-88226828D01*
X165504107Y-88226828D02*
X165123155Y-88226828D01*
X166646964Y-88703019D02*
X166075536Y-88703019D01*
X166361250Y-88703019D02*
X166361250Y-87703019D01*
X166361250Y-87703019D02*
X166266012Y-87845876D01*
X166266012Y-87845876D02*
X166170774Y-87941114D01*
X166170774Y-87941114D02*
X166075536Y-87988733D01*
X159823955Y-98227019D02*
X159823955Y-97227019D01*
X159823955Y-97227019D02*
X160062050Y-97227019D01*
X160062050Y-97227019D02*
X160204907Y-97274638D01*
X160204907Y-97274638D02*
X160300145Y-97369876D01*
X160300145Y-97369876D02*
X160347764Y-97465114D01*
X160347764Y-97465114D02*
X160395383Y-97655590D01*
X160395383Y-97655590D02*
X160395383Y-97798447D01*
X160395383Y-97798447D02*
X160347764Y-97988923D01*
X160347764Y-97988923D02*
X160300145Y-98084161D01*
X160300145Y-98084161D02*
X160204907Y-98179400D01*
X160204907Y-98179400D02*
X160062050Y-98227019D01*
X160062050Y-98227019D02*
X159823955Y-98227019D01*
X161347764Y-98227019D02*
X160776336Y-98227019D01*
X161062050Y-98227019D02*
X161062050Y-97227019D01*
X161062050Y-97227019D02*
X160966812Y-97369876D01*
X160966812Y-97369876D02*
X160871574Y-97465114D01*
X160871574Y-97465114D02*
X160776336Y-97512733D01*
D12*
%TO.C,R2*%
X123025986Y-108077200D02*
X123480114Y-108077200D01*
X123025986Y-109547200D02*
X123480114Y-109547200D01*
%TO.C,J2*%
X125286050Y-101107600D02*
X125286050Y-103867600D01*
X133016050Y-101107600D02*
X125286050Y-101107600D01*
X133016050Y-101107600D02*
X133016050Y-103867600D01*
X133016050Y-103867600D02*
X125286050Y-103867600D01*
X134286050Y-101107600D02*
X135666050Y-101107600D01*
X135666050Y-101107600D02*
X135666050Y-102487600D01*
%TO.C,C1*%
X115672250Y-103617448D02*
X115672250Y-105039952D01*
X117492250Y-103617448D02*
X117492250Y-105039952D01*
%TO.C,U2*%
X127868450Y-104452000D02*
X127868450Y-104722000D01*
X127868450Y-109972000D02*
X127868450Y-109702000D01*
X130628450Y-104452000D02*
X127868450Y-104452000D01*
X130628450Y-104452000D02*
X133388450Y-104452000D01*
X130628450Y-109972000D02*
X127868450Y-109972000D01*
X130628450Y-109972000D02*
X133388450Y-109972000D01*
X133388450Y-104452000D02*
X133388450Y-104722000D01*
X133388450Y-109972000D02*
X133388450Y-109702000D01*
X127103450Y-104722000D02*
X126863450Y-104392000D01*
X127343450Y-104392000D01*
X127103450Y-104722000D01*
G36*
X127103450Y-104722000D02*
G01*
X126863450Y-104392000D01*
X127343450Y-104392000D01*
X127103450Y-104722000D01*
G37*
%TO.C,D1*%
X115455250Y-107520000D02*
X115455250Y-111530000D01*
X117455250Y-107520000D02*
X115455250Y-107520000D01*
X117455250Y-107520000D02*
X117455250Y-111530000D01*
%TO.C,D3*%
X137876050Y-112709000D02*
X138032050Y-112709000D01*
X140192050Y-112709000D02*
X140348050Y-112709000D01*
X137876534Y-112709000D02*
G75*
G02*
X138032050Y-109477563I1235516J1560000D01*
G01*
X138032050Y-112189961D02*
G75*
G02*
X138032050Y-110108039I1080000J1040961D01*
G01*
X140192050Y-109477563D02*
G75*
G02*
X140347566Y-112709000I-1080000J-1671437D01*
G01*
X140192050Y-110108039D02*
G75*
G02*
X140192050Y-112189961I-1080000J-1040961D01*
G01*
%TO.C,D2*%
X118554050Y-106707200D02*
X118554050Y-110717200D01*
X120554050Y-106707200D02*
X118554050Y-106707200D01*
X120554050Y-106707200D02*
X120554050Y-110717200D01*
%TO.C,R3*%
X137843586Y-104876800D02*
X138297714Y-104876800D01*
X137843586Y-106346800D02*
X138297714Y-106346800D01*
%TO.C,R4*%
X118971450Y-104073336D02*
X118971450Y-104527464D01*
X120441450Y-104073336D02*
X120441450Y-104527464D01*
%TO.C,R1*%
X122797386Y-104495800D02*
X123251514Y-104495800D01*
X122797386Y-105965800D02*
X123251514Y-105965800D01*
%TO.C,J1*%
X125463850Y-113367200D02*
X125463850Y-111987200D01*
X126843850Y-113367200D02*
X125463850Y-113367200D01*
X128113850Y-110607200D02*
X135843850Y-110607200D01*
X128113850Y-113367200D02*
X128113850Y-110607200D01*
X128113850Y-113367200D02*
X135843850Y-113367200D01*
X135843850Y-113367200D02*
X135843850Y-110607200D01*
%TO.C,R2*%
X123506786Y-78200600D02*
X123960914Y-78200600D01*
X123506786Y-76730600D02*
X123960914Y-76730600D01*
%TO.C,R4*%
X120370800Y-119961536D02*
X120370800Y-120415664D01*
X118900800Y-119961536D02*
X118900800Y-120415664D01*
%TO.C,C1*%
X117421600Y-119505648D02*
X117421600Y-120928152D01*
X115601600Y-119505648D02*
X115601600Y-120928152D01*
%TO.C,D2*%
X120483400Y-122595400D02*
X120483400Y-126605400D01*
X120483400Y-122595400D02*
X118483400Y-122595400D01*
X118483400Y-122595400D02*
X118483400Y-126605400D01*
%TO.C,U2*%
X127032800Y-120610200D02*
X126792800Y-120280200D01*
X127272800Y-120280200D01*
X127032800Y-120610200D01*
G36*
X127032800Y-120610200D02*
G01*
X126792800Y-120280200D01*
X127272800Y-120280200D01*
X127032800Y-120610200D01*
G37*
X133317800Y-125860200D02*
X133317800Y-125590200D01*
X133317800Y-120340200D02*
X133317800Y-120610200D01*
X130557800Y-125860200D02*
X133317800Y-125860200D01*
X130557800Y-125860200D02*
X127797800Y-125860200D01*
X130557800Y-120340200D02*
X133317800Y-120340200D01*
X130557800Y-120340200D02*
X127797800Y-120340200D01*
X127797800Y-125860200D02*
X127797800Y-125590200D01*
X127797800Y-120340200D02*
X127797800Y-120610200D01*
%TO.C,R2*%
X122955336Y-125435400D02*
X123409464Y-125435400D01*
X122955336Y-123965400D02*
X123409464Y-123965400D01*
%TO.C,J2*%
X135595400Y-116995800D02*
X135595400Y-118375800D01*
X134215400Y-116995800D02*
X135595400Y-116995800D01*
X132945400Y-119755800D02*
X125215400Y-119755800D01*
X132945400Y-116995800D02*
X132945400Y-119755800D01*
X132945400Y-116995800D02*
X125215400Y-116995800D01*
X125215400Y-116995800D02*
X125215400Y-119755800D01*
%TO.C,D3*%
X140121400Y-125996239D02*
G75*
G02*
X140121400Y-128078161I-1080000J-1040961D01*
G01*
X140121400Y-125365763D02*
G75*
G02*
X140276916Y-128597200I-1080000J-1671437D01*
G01*
X137961400Y-128078161D02*
G75*
G02*
X137961400Y-125996239I1080000J1040961D01*
G01*
X137805884Y-128597200D02*
G75*
G02*
X137961400Y-125365763I1235516J1560000D01*
G01*
X140121400Y-128597200D02*
X140277400Y-128597200D01*
X137805400Y-128597200D02*
X137961400Y-128597200D01*
%TO.C,R3*%
X137772936Y-122235000D02*
X138227064Y-122235000D01*
X137772936Y-120765000D02*
X138227064Y-120765000D01*
%TO.C,D1*%
X117384600Y-123408200D02*
X117384600Y-127418200D01*
X117384600Y-123408200D02*
X115384600Y-123408200D01*
X115384600Y-123408200D02*
X115384600Y-127418200D01*
%TO.C,R1*%
X122726736Y-121854000D02*
X123180864Y-121854000D01*
X122726736Y-120384000D02*
X123180864Y-120384000D01*
%TO.C,J1*%
X135773200Y-129255400D02*
X135773200Y-126495400D01*
X128043200Y-129255400D02*
X135773200Y-129255400D01*
X128043200Y-129255400D02*
X128043200Y-126495400D01*
X128043200Y-126495400D02*
X135773200Y-126495400D01*
X126773200Y-129255400D02*
X125393200Y-129255400D01*
X125393200Y-129255400D02*
X125393200Y-127875400D01*
%TO.C,D2*%
X121034850Y-75360600D02*
X121034850Y-79370600D01*
X121034850Y-75360600D02*
X119034850Y-75360600D01*
X119034850Y-75360600D02*
X119034850Y-79370600D01*
%TO.C,J2*%
X136146850Y-69761000D02*
X136146850Y-71141000D01*
X134766850Y-69761000D02*
X136146850Y-69761000D01*
X133496850Y-72521000D02*
X125766850Y-72521000D01*
X133496850Y-69761000D02*
X133496850Y-72521000D01*
X133496850Y-69761000D02*
X125766850Y-69761000D01*
X125766850Y-69761000D02*
X125766850Y-72521000D01*
X136076200Y-85649200D02*
X136076200Y-87029200D01*
X134696200Y-85649200D02*
X136076200Y-85649200D01*
X133426200Y-88409200D02*
X125696200Y-88409200D01*
X133426200Y-85649200D02*
X133426200Y-88409200D01*
X133426200Y-85649200D02*
X125696200Y-85649200D01*
X125696200Y-85649200D02*
X125696200Y-88409200D01*
%TO.C,J1*%
X136324650Y-82020600D02*
X136324650Y-79260600D01*
X128594650Y-82020600D02*
X136324650Y-82020600D01*
X128594650Y-82020600D02*
X128594650Y-79260600D01*
X128594650Y-79260600D02*
X136324650Y-79260600D01*
X127324650Y-82020600D02*
X125944650Y-82020600D01*
X125944650Y-82020600D02*
X125944650Y-80640600D01*
%TO.C,D3*%
X140602200Y-94649639D02*
G75*
G02*
X140602200Y-96731561I-1080000J-1040961D01*
G01*
X140602200Y-94019163D02*
G75*
G02*
X140757716Y-97250600I-1080000J-1671437D01*
G01*
X138442200Y-96731561D02*
G75*
G02*
X138442200Y-94649639I1080000J1040961D01*
G01*
X138286684Y-97250600D02*
G75*
G02*
X138442200Y-94019163I1235516J1560000D01*
G01*
X140602200Y-97250600D02*
X140758200Y-97250600D01*
X138286200Y-97250600D02*
X138442200Y-97250600D01*
%TO.C,J1*%
X136254000Y-97908800D02*
X136254000Y-95148800D01*
X128524000Y-97908800D02*
X136254000Y-97908800D01*
X128524000Y-97908800D02*
X128524000Y-95148800D01*
X128524000Y-95148800D02*
X136254000Y-95148800D01*
X127254000Y-97908800D02*
X125874000Y-97908800D01*
X125874000Y-97908800D02*
X125874000Y-96528800D01*
%TO.C,C1*%
X117973050Y-72270848D02*
X117973050Y-73693352D01*
X116153050Y-72270848D02*
X116153050Y-73693352D01*
%TO.C,R1*%
X123278186Y-74619200D02*
X123732314Y-74619200D01*
X123278186Y-73149200D02*
X123732314Y-73149200D01*
%TO.C,D1*%
X117936050Y-76173400D02*
X117936050Y-80183400D01*
X117936050Y-76173400D02*
X115936050Y-76173400D01*
X115936050Y-76173400D02*
X115936050Y-80183400D01*
%TO.C,U2*%
X127584250Y-73375400D02*
X127344250Y-73045400D01*
X127824250Y-73045400D01*
X127584250Y-73375400D01*
G36*
X127584250Y-73375400D02*
G01*
X127344250Y-73045400D01*
X127824250Y-73045400D01*
X127584250Y-73375400D01*
G37*
X133869250Y-78625400D02*
X133869250Y-78355400D01*
X133869250Y-73105400D02*
X133869250Y-73375400D01*
X131109250Y-78625400D02*
X133869250Y-78625400D01*
X131109250Y-78625400D02*
X128349250Y-78625400D01*
X131109250Y-73105400D02*
X133869250Y-73105400D01*
X131109250Y-73105400D02*
X128349250Y-73105400D01*
X128349250Y-78625400D02*
X128349250Y-78355400D01*
X128349250Y-73105400D02*
X128349250Y-73375400D01*
%TO.C,R4*%
X120922250Y-72726736D02*
X120922250Y-73180864D01*
X119452250Y-72726736D02*
X119452250Y-73180864D01*
X120851600Y-88614936D02*
X120851600Y-89069064D01*
X119381600Y-88614936D02*
X119381600Y-89069064D01*
%TO.C,C1*%
X117902400Y-88159048D02*
X117902400Y-89581552D01*
X116082400Y-88159048D02*
X116082400Y-89581552D01*
%TO.C,D3*%
X140672850Y-78761439D02*
G75*
G02*
X140672850Y-80843361I-1080000J-1040961D01*
G01*
X140672850Y-78130963D02*
G75*
G02*
X140828366Y-81362400I-1080000J-1671437D01*
G01*
X138512850Y-80843361D02*
G75*
G02*
X138512850Y-78761439I1080000J1040961D01*
G01*
X138357334Y-81362400D02*
G75*
G02*
X138512850Y-78130963I1235516J1560000D01*
G01*
X140672850Y-81362400D02*
X140828850Y-81362400D01*
X138356850Y-81362400D02*
X138512850Y-81362400D01*
%TO.C,D2*%
X120964200Y-91248800D02*
X120964200Y-95258800D01*
X120964200Y-91248800D02*
X118964200Y-91248800D01*
X118964200Y-91248800D02*
X118964200Y-95258800D01*
%TO.C,U2*%
X127513600Y-89263600D02*
X127273600Y-88933600D01*
X127753600Y-88933600D01*
X127513600Y-89263600D01*
G36*
X127513600Y-89263600D02*
G01*
X127273600Y-88933600D01*
X127753600Y-88933600D01*
X127513600Y-89263600D01*
G37*
X133798600Y-94513600D02*
X133798600Y-94243600D01*
X133798600Y-88993600D02*
X133798600Y-89263600D01*
X131038600Y-94513600D02*
X133798600Y-94513600D01*
X131038600Y-94513600D02*
X128278600Y-94513600D01*
X131038600Y-88993600D02*
X133798600Y-88993600D01*
X131038600Y-88993600D02*
X128278600Y-88993600D01*
X128278600Y-94513600D02*
X128278600Y-94243600D01*
X128278600Y-88993600D02*
X128278600Y-89263600D01*
%TO.C,R2*%
X123436136Y-94088800D02*
X123890264Y-94088800D01*
X123436136Y-92618800D02*
X123890264Y-92618800D01*
%TO.C,R3*%
X138324386Y-75000200D02*
X138778514Y-75000200D01*
X138324386Y-73530200D02*
X138778514Y-73530200D01*
X138253736Y-90888400D02*
X138707864Y-90888400D01*
X138253736Y-89418400D02*
X138707864Y-89418400D01*
%TO.C,R1*%
X123207536Y-90507400D02*
X123661664Y-90507400D01*
X123207536Y-89037400D02*
X123661664Y-89037400D01*
%TO.C,D1*%
X117865400Y-92061600D02*
X117865400Y-96071600D01*
X117865400Y-92061600D02*
X115865400Y-92061600D01*
X115865400Y-92061600D02*
X115865400Y-96071600D01*
%TO.C,C1*%
X159918900Y-103743248D02*
X159918900Y-105165752D01*
X158098900Y-103743248D02*
X158098900Y-105165752D01*
X159848250Y-119631448D02*
X159848250Y-121053952D01*
X158028250Y-119631448D02*
X158028250Y-121053952D01*
%TO.C,U2*%
X169530100Y-104847800D02*
X169290100Y-104517800D01*
X169770100Y-104517800D01*
X169530100Y-104847800D01*
G36*
X169530100Y-104847800D02*
G01*
X169290100Y-104517800D01*
X169770100Y-104517800D01*
X169530100Y-104847800D01*
G37*
X175815100Y-110097800D02*
X175815100Y-109827800D01*
X175815100Y-104577800D02*
X175815100Y-104847800D01*
X173055100Y-110097800D02*
X175815100Y-110097800D01*
X173055100Y-110097800D02*
X170295100Y-110097800D01*
X173055100Y-104577800D02*
X175815100Y-104577800D01*
X173055100Y-104577800D02*
X170295100Y-104577800D01*
X170295100Y-110097800D02*
X170295100Y-109827800D01*
X170295100Y-104577800D02*
X170295100Y-104847800D01*
%TO.C,R3*%
X180199586Y-122360800D02*
X180653714Y-122360800D01*
X180199586Y-120890800D02*
X180653714Y-120890800D01*
%TO.C,R2*%
X165933436Y-78326400D02*
X166387564Y-78326400D01*
X165933436Y-76856400D02*
X166387564Y-76856400D01*
%TO.C,D1*%
X159881900Y-107645800D02*
X159881900Y-111655800D01*
X159881900Y-107645800D02*
X157881900Y-107645800D01*
X157881900Y-107645800D02*
X157881900Y-111655800D01*
%TO.C,D2*%
X162910050Y-122721200D02*
X162910050Y-126731200D01*
X162910050Y-122721200D02*
X160910050Y-122721200D01*
X160910050Y-122721200D02*
X160910050Y-126731200D01*
%TO.C,D3*%
X182548050Y-126122039D02*
G75*
G02*
X182548050Y-128203961I-1080000J-1040961D01*
G01*
X182548050Y-125491563D02*
G75*
G02*
X182703566Y-128723000I-1080000J-1671437D01*
G01*
X180388050Y-128203961D02*
G75*
G02*
X180388050Y-126122039I1080000J1040961D01*
G01*
X180232534Y-128723000D02*
G75*
G02*
X180388050Y-125491563I1235516J1560000D01*
G01*
X182548050Y-128723000D02*
X182704050Y-128723000D01*
X180232050Y-128723000D02*
X180388050Y-128723000D01*
%TO.C,J2*%
X178092700Y-101233400D02*
X178092700Y-102613400D01*
X176712700Y-101233400D02*
X178092700Y-101233400D01*
X175442700Y-103993400D02*
X167712700Y-103993400D01*
X175442700Y-101233400D02*
X175442700Y-103993400D01*
X175442700Y-101233400D02*
X167712700Y-101233400D01*
X167712700Y-101233400D02*
X167712700Y-103993400D01*
%TO.C,D3*%
X182618700Y-110233839D02*
G75*
G02*
X182618700Y-112315761I-1080000J-1040961D01*
G01*
X182618700Y-109603363D02*
G75*
G02*
X182774216Y-112834800I-1080000J-1671437D01*
G01*
X180458700Y-112315761D02*
G75*
G02*
X180458700Y-110233839I1080000J1040961D01*
G01*
X180303184Y-112834800D02*
G75*
G02*
X180458700Y-109603363I1235516J1560000D01*
G01*
X182618700Y-112834800D02*
X182774700Y-112834800D01*
X180302700Y-112834800D02*
X180458700Y-112834800D01*
%TO.C,D2*%
X162980700Y-106833000D02*
X162980700Y-110843000D01*
X162980700Y-106833000D02*
X160980700Y-106833000D01*
X160980700Y-106833000D02*
X160980700Y-110843000D01*
%TO.C,R3*%
X180270236Y-106472600D02*
X180724364Y-106472600D01*
X180270236Y-105002600D02*
X180724364Y-105002600D01*
%TO.C,R1*%
X165224036Y-106091600D02*
X165678164Y-106091600D01*
X165224036Y-104621600D02*
X165678164Y-104621600D01*
%TO.C,J1*%
X178270500Y-113493000D02*
X178270500Y-110733000D01*
X170540500Y-113493000D02*
X178270500Y-113493000D01*
X170540500Y-113493000D02*
X170540500Y-110733000D01*
X170540500Y-110733000D02*
X178270500Y-110733000D01*
X169270500Y-113493000D02*
X167890500Y-113493000D01*
X167890500Y-113493000D02*
X167890500Y-112113000D01*
%TO.C,R4*%
X162868100Y-104199136D02*
X162868100Y-104653264D01*
X161398100Y-104199136D02*
X161398100Y-104653264D01*
X162797450Y-120087336D02*
X162797450Y-120541464D01*
X161327450Y-120087336D02*
X161327450Y-120541464D01*
%TO.C,R2*%
X165452636Y-109673000D02*
X165906764Y-109673000D01*
X165452636Y-108203000D02*
X165906764Y-108203000D01*
%TO.C,U2*%
X169459450Y-120736000D02*
X169219450Y-120406000D01*
X169699450Y-120406000D01*
X169459450Y-120736000D01*
G36*
X169459450Y-120736000D02*
G01*
X169219450Y-120406000D01*
X169699450Y-120406000D01*
X169459450Y-120736000D01*
G37*
X175744450Y-125986000D02*
X175744450Y-125716000D01*
X175744450Y-120466000D02*
X175744450Y-120736000D01*
X172984450Y-125986000D02*
X175744450Y-125986000D01*
X172984450Y-125986000D02*
X170224450Y-125986000D01*
X172984450Y-120466000D02*
X175744450Y-120466000D01*
X172984450Y-120466000D02*
X170224450Y-120466000D01*
X170224450Y-125986000D02*
X170224450Y-125716000D01*
X170224450Y-120466000D02*
X170224450Y-120736000D01*
%TO.C,R2*%
X165381986Y-125561200D02*
X165836114Y-125561200D01*
X165381986Y-124091200D02*
X165836114Y-124091200D01*
%TO.C,J2*%
X178022050Y-117121600D02*
X178022050Y-118501600D01*
X176642050Y-117121600D02*
X178022050Y-117121600D01*
X175372050Y-119881600D02*
X167642050Y-119881600D01*
X175372050Y-117121600D02*
X175372050Y-119881600D01*
X175372050Y-117121600D02*
X167642050Y-117121600D01*
X167642050Y-117121600D02*
X167642050Y-119881600D01*
%TO.C,R4*%
X163348900Y-72852536D02*
X163348900Y-73306664D01*
X161878900Y-72852536D02*
X161878900Y-73306664D01*
%TO.C,D2*%
X163461500Y-75486400D02*
X163461500Y-79496400D01*
X163461500Y-75486400D02*
X161461500Y-75486400D01*
X161461500Y-75486400D02*
X161461500Y-79496400D01*
%TO.C,J2*%
X178502850Y-85775000D02*
X178502850Y-87155000D01*
X177122850Y-85775000D02*
X178502850Y-85775000D01*
X175852850Y-88535000D02*
X168122850Y-88535000D01*
X175852850Y-85775000D02*
X175852850Y-88535000D01*
X175852850Y-85775000D02*
X168122850Y-85775000D01*
X168122850Y-85775000D02*
X168122850Y-88535000D01*
%TO.C,J1*%
X178680650Y-98034600D02*
X178680650Y-95274600D01*
X170950650Y-98034600D02*
X178680650Y-98034600D01*
X170950650Y-98034600D02*
X170950650Y-95274600D01*
X170950650Y-95274600D02*
X178680650Y-95274600D01*
X169680650Y-98034600D02*
X168300650Y-98034600D01*
X168300650Y-98034600D02*
X168300650Y-96654600D01*
%TO.C,D1*%
X160362700Y-76299200D02*
X160362700Y-80309200D01*
X160362700Y-76299200D02*
X158362700Y-76299200D01*
X158362700Y-76299200D02*
X158362700Y-80309200D01*
%TO.C,R3*%
X180680386Y-91014200D02*
X181134514Y-91014200D01*
X180680386Y-89544200D02*
X181134514Y-89544200D01*
%TO.C,R1*%
X165704836Y-74745000D02*
X166158964Y-74745000D01*
X165704836Y-73275000D02*
X166158964Y-73275000D01*
%TO.C,D2*%
X163390850Y-91374600D02*
X163390850Y-95384600D01*
X163390850Y-91374600D02*
X161390850Y-91374600D01*
X161390850Y-91374600D02*
X161390850Y-95384600D01*
%TO.C,D1*%
X159811250Y-123534000D02*
X159811250Y-127544000D01*
X159811250Y-123534000D02*
X157811250Y-123534000D01*
X157811250Y-123534000D02*
X157811250Y-127544000D01*
%TO.C,J1*%
X178751300Y-82146400D02*
X178751300Y-79386400D01*
X171021300Y-82146400D02*
X178751300Y-82146400D01*
X171021300Y-82146400D02*
X171021300Y-79386400D01*
X171021300Y-79386400D02*
X178751300Y-79386400D01*
X169751300Y-82146400D02*
X168371300Y-82146400D01*
X168371300Y-82146400D02*
X168371300Y-80766400D01*
%TO.C,D3*%
X183028850Y-94775439D02*
G75*
G02*
X183028850Y-96857361I-1080000J-1040961D01*
G01*
X183028850Y-94144963D02*
G75*
G02*
X183184366Y-97376400I-1080000J-1671437D01*
G01*
X180868850Y-96857361D02*
G75*
G02*
X180868850Y-94775439I1080000J1040961D01*
G01*
X180713334Y-97376400D02*
G75*
G02*
X180868850Y-94144963I1235516J1560000D01*
G01*
X183028850Y-97376400D02*
X183184850Y-97376400D01*
X180712850Y-97376400D02*
X180868850Y-97376400D01*
%TO.C,C1*%
X160399700Y-72396648D02*
X160399700Y-73819152D01*
X158579700Y-72396648D02*
X158579700Y-73819152D01*
%TO.C,R1*%
X165153386Y-121979800D02*
X165607514Y-121979800D01*
X165153386Y-120509800D02*
X165607514Y-120509800D01*
%TO.C,J1*%
X178199850Y-129381200D02*
X178199850Y-126621200D01*
X170469850Y-129381200D02*
X178199850Y-129381200D01*
X170469850Y-129381200D02*
X170469850Y-126621200D01*
X170469850Y-126621200D02*
X178199850Y-126621200D01*
X169199850Y-129381200D02*
X167819850Y-129381200D01*
X167819850Y-129381200D02*
X167819850Y-128001200D01*
%TO.C,J2*%
X178573500Y-69886800D02*
X178573500Y-71266800D01*
X177193500Y-69886800D02*
X178573500Y-69886800D01*
X175923500Y-72646800D02*
X168193500Y-72646800D01*
X175923500Y-69886800D02*
X175923500Y-72646800D01*
X175923500Y-69886800D02*
X168193500Y-69886800D01*
X168193500Y-69886800D02*
X168193500Y-72646800D01*
%TO.C,U2*%
X170010900Y-73501200D02*
X169770900Y-73171200D01*
X170250900Y-73171200D01*
X170010900Y-73501200D01*
G36*
X170010900Y-73501200D02*
G01*
X169770900Y-73171200D01*
X170250900Y-73171200D01*
X170010900Y-73501200D01*
G37*
X176295900Y-78751200D02*
X176295900Y-78481200D01*
X176295900Y-73231200D02*
X176295900Y-73501200D01*
X173535900Y-78751200D02*
X176295900Y-78751200D01*
X173535900Y-78751200D02*
X170775900Y-78751200D01*
X173535900Y-73231200D02*
X176295900Y-73231200D01*
X173535900Y-73231200D02*
X170775900Y-73231200D01*
X170775900Y-78751200D02*
X170775900Y-78481200D01*
X170775900Y-73231200D02*
X170775900Y-73501200D01*
%TO.C,R4*%
X163278250Y-88740736D02*
X163278250Y-89194864D01*
X161808250Y-88740736D02*
X161808250Y-89194864D01*
%TO.C,C1*%
X160329050Y-88284848D02*
X160329050Y-89707352D01*
X158509050Y-88284848D02*
X158509050Y-89707352D01*
%TO.C,U2*%
X169940250Y-89389400D02*
X169700250Y-89059400D01*
X170180250Y-89059400D01*
X169940250Y-89389400D01*
G36*
X169940250Y-89389400D02*
G01*
X169700250Y-89059400D01*
X170180250Y-89059400D01*
X169940250Y-89389400D01*
G37*
X176225250Y-94639400D02*
X176225250Y-94369400D01*
X176225250Y-89119400D02*
X176225250Y-89389400D01*
X173465250Y-94639400D02*
X176225250Y-94639400D01*
X173465250Y-94639400D02*
X170705250Y-94639400D01*
X173465250Y-89119400D02*
X176225250Y-89119400D01*
X173465250Y-89119400D02*
X170705250Y-89119400D01*
X170705250Y-94639400D02*
X170705250Y-94369400D01*
X170705250Y-89119400D02*
X170705250Y-89389400D01*
%TO.C,D3*%
X183099500Y-78887239D02*
G75*
G02*
X183099500Y-80969161I-1080000J-1040961D01*
G01*
X183099500Y-78256763D02*
G75*
G02*
X183255016Y-81488200I-1080000J-1671437D01*
G01*
X180939500Y-80969161D02*
G75*
G02*
X180939500Y-78887239I1080000J1040961D01*
G01*
X180783984Y-81488200D02*
G75*
G02*
X180939500Y-78256763I1235516J1560000D01*
G01*
X183099500Y-81488200D02*
X183255500Y-81488200D01*
X180783500Y-81488200D02*
X180939500Y-81488200D01*
%TO.C,R2*%
X165862786Y-94214600D02*
X166316914Y-94214600D01*
X165862786Y-92744600D02*
X166316914Y-92744600D01*
%TO.C,R3*%
X180751036Y-75126000D02*
X181205164Y-75126000D01*
X180751036Y-73656000D02*
X181205164Y-73656000D01*
%TO.C,R1*%
X165634186Y-90633200D02*
X166088314Y-90633200D01*
X165634186Y-89163200D02*
X166088314Y-89163200D01*
%TO.C,D1*%
X160292050Y-92187400D02*
X160292050Y-96197400D01*
X160292050Y-92187400D02*
X158292050Y-92187400D01*
X158292050Y-92187400D02*
X158292050Y-96197400D01*
%TD*%
M02*
