M48
; DRILL file {KiCad 9.0.2} date 2025-11-07T14:57:53+0100
; FORMAT={-:-/ absolute / metric / decimal}
; #@! TF.CreationDate,2025-11-07T14:57:53+01:00
; #@! TF.GenerationSoftware,Kicad,Pcbnew,9.0.2
; #@! TF.FileFunction,Plated,1,2,PTH
FMAT,2
METRIC
; #@! TA.AperFunction,Plated,PTH,ViaDrill
T1C0.300
; #@! TA.AperFunction,Plated,PTH,ComponentDrill
T2C0.900
; #@! TA.AperFunction,Plated,PTH,ComponentDrill
T3C1.000
%
G90
G05
T1
X113.159Y-126.402
X113.229Y-110.514
X113.64Y-95.056
X113.71Y-79.167
X118.112Y-121.805
X118.182Y-105.917
X118.593Y-90.458
X118.663Y-74.57
X128.627Y-121.576
X128.698Y-105.688
X129.108Y-90.23
X129.179Y-74.341
X129.227Y-122.465
X129.298Y-106.577
X129.708Y-91.119
X129.779Y-75.23
X130.202Y-123.634
X130.273Y-107.745
X130.683Y-92.287
X130.754Y-76.399
X132.437Y-123.354
X132.508Y-107.466
X132.918Y-92.008
X132.989Y-76.119
X135.739Y-124.904
X135.81Y-109.015
X136.22Y-93.557
X136.291Y-77.669
X155.585Y-126.528
X155.656Y-110.64
X156.066Y-95.181
X156.137Y-79.293
X160.538Y-121.931
X160.609Y-106.042
X161.019Y-90.584
X161.09Y-74.696
X171.054Y-121.702
X171.125Y-105.814
X171.535Y-90.355
X171.606Y-74.467
X171.654Y-122.591
X171.725Y-106.703
X172.135Y-91.244
X172.206Y-75.356
X172.629Y-123.759
X172.7Y-107.871
X173.11Y-92.413
X173.18Y-76.525
X174.864Y-123.48
X174.935Y-107.592
X175.345Y-92.133
X175.415Y-76.245
X178.166Y-125.029
X178.237Y-109.141
X178.647Y-93.683
X178.718Y-77.795
T2
X139.041Y-125.767
X139.041Y-128.307
X139.112Y-109.879
X139.112Y-112.419
X139.522Y-94.421
X139.522Y-96.961
X139.593Y-78.532
X139.593Y-81.072
X181.468Y-125.893
X181.468Y-128.433
X181.539Y-110.005
X181.539Y-112.545
X181.949Y-94.546
X181.949Y-97.086
X182.019Y-78.658
X182.019Y-81.198
T3
X126.595Y-118.376
X126.666Y-102.488
X126.773Y-127.875
X126.844Y-111.987
X127.076Y-87.029
X127.147Y-71.141
X127.254Y-96.529
X127.325Y-80.641
X129.135Y-118.376
X129.206Y-102.488
X129.313Y-127.875
X129.384Y-111.987
X129.616Y-87.029
X129.687Y-71.141
X129.794Y-96.529
X129.865Y-80.641
X131.675Y-118.376
X131.746Y-102.488
X131.853Y-127.875
X131.924Y-111.987
X132.156Y-87.029
X132.227Y-71.141
X132.334Y-96.529
X132.405Y-80.641
X134.215Y-118.376
X134.286Y-102.488
X134.393Y-127.875
X134.464Y-111.987
X134.696Y-87.029
X134.767Y-71.141
X134.874Y-96.529
X134.945Y-80.641
X169.022Y-118.502
X169.093Y-102.613
X169.2Y-128.001
X169.27Y-112.113
X169.503Y-87.155
X169.573Y-71.267
X169.681Y-96.655
X169.751Y-80.766
X171.562Y-118.502
X171.633Y-102.613
X171.74Y-128.001
X171.81Y-112.113
X172.043Y-87.155
X172.113Y-71.267
X172.221Y-96.655
X172.291Y-80.766
X174.102Y-118.502
X174.173Y-102.613
X174.28Y-128.001
X174.35Y-112.113
X174.583Y-87.155
X174.653Y-71.267
X174.761Y-96.655
X174.831Y-80.766
X176.642Y-118.502
X176.713Y-102.613
X176.82Y-128.001
X176.891Y-112.113
X177.123Y-87.155
X177.194Y-71.267
X177.301Y-96.655
X177.371Y-80.766
M30
